%TF.GenerationSoftware,KiCad,Pcbnew,10.0.3*%
%TF.CreationDate,2026-09-07T14:17:23+03:00*%
%TF.ProjectId,staj_proje,7374616a-5f70-4726-9f6a-652e6b696361,rev?*%
%TF.SameCoordinates,Original*%
%TF.FileFunction,Legend,Top*%
%TF.FilePolarity,Positive*%
%FSLAX46Y46*%
G04 Gerber Fmt 4.6, Leading zero omitted, Abs format (unit mm)*
G04 Created by KiCad (PCBNEW 10.0.3) date 2026-09-07 14:17:23*
%MOMM*%
%LPD*%
G01*
G04 APERTURE LIST*
%ADD10C,0.200000*%
%ADD11C,0.150000*%
%ADD12C,0.120000*%
G04 APERTURE END LIST*
D10*
X142985714Y-57033504D02*
X142947618Y-57071600D01*
X142947618Y-57071600D02*
X142833333Y-57109695D01*
X142833333Y-57109695D02*
X142757142Y-57109695D01*
X142757142Y-57109695D02*
X142642856Y-57071600D01*
X142642856Y-57071600D02*
X142566666Y-56995409D01*
X142566666Y-56995409D02*
X142528571Y-56919219D01*
X142528571Y-56919219D02*
X142490475Y-56766838D01*
X142490475Y-56766838D02*
X142490475Y-56652552D01*
X142490475Y-56652552D02*
X142528571Y-56500171D01*
X142528571Y-56500171D02*
X142566666Y-56423980D01*
X142566666Y-56423980D02*
X142642856Y-56347790D01*
X142642856Y-56347790D02*
X142757142Y-56309695D01*
X142757142Y-56309695D02*
X142833333Y-56309695D01*
X142833333Y-56309695D02*
X142947618Y-56347790D01*
X142947618Y-56347790D02*
X142985714Y-56385885D01*
X143671428Y-56576361D02*
X143671428Y-57109695D01*
X143480952Y-56271600D02*
X143290475Y-56843028D01*
X143290475Y-56843028D02*
X143785714Y-56843028D01*
X144242857Y-56309695D02*
X144319047Y-56309695D01*
X144319047Y-56309695D02*
X144395238Y-56347790D01*
X144395238Y-56347790D02*
X144433333Y-56385885D01*
X144433333Y-56385885D02*
X144471428Y-56462076D01*
X144471428Y-56462076D02*
X144509523Y-56614457D01*
X144509523Y-56614457D02*
X144509523Y-56804933D01*
X144509523Y-56804933D02*
X144471428Y-56957314D01*
X144471428Y-56957314D02*
X144433333Y-57033504D01*
X144433333Y-57033504D02*
X144395238Y-57071600D01*
X144395238Y-57071600D02*
X144319047Y-57109695D01*
X144319047Y-57109695D02*
X144242857Y-57109695D01*
X144242857Y-57109695D02*
X144166666Y-57071600D01*
X144166666Y-57071600D02*
X144128571Y-57033504D01*
X144128571Y-57033504D02*
X144090476Y-56957314D01*
X144090476Y-56957314D02*
X144052380Y-56804933D01*
X144052380Y-56804933D02*
X144052380Y-56614457D01*
X144052380Y-56614457D02*
X144090476Y-56462076D01*
X144090476Y-56462076D02*
X144128571Y-56385885D01*
X144128571Y-56385885D02*
X144166666Y-56347790D01*
X144166666Y-56347790D02*
X144242857Y-56309695D01*
X140509524Y-52559695D02*
X140509524Y-53207314D01*
X140509524Y-53207314D02*
X140547619Y-53283504D01*
X140547619Y-53283504D02*
X140585714Y-53321600D01*
X140585714Y-53321600D02*
X140661905Y-53359695D01*
X140661905Y-53359695D02*
X140814286Y-53359695D01*
X140814286Y-53359695D02*
X140890476Y-53321600D01*
X140890476Y-53321600D02*
X140928571Y-53283504D01*
X140928571Y-53283504D02*
X140966667Y-53207314D01*
X140966667Y-53207314D02*
X140966667Y-52559695D01*
X141766666Y-53359695D02*
X141309523Y-53359695D01*
X141538095Y-53359695D02*
X141538095Y-52559695D01*
X141538095Y-52559695D02*
X141461904Y-52673980D01*
X141461904Y-52673980D02*
X141385714Y-52750171D01*
X141385714Y-52750171D02*
X141309523Y-52788266D01*
X142452381Y-52559695D02*
X142300000Y-52559695D01*
X142300000Y-52559695D02*
X142223809Y-52597790D01*
X142223809Y-52597790D02*
X142185714Y-52635885D01*
X142185714Y-52635885D02*
X142109524Y-52750171D01*
X142109524Y-52750171D02*
X142071428Y-52902552D01*
X142071428Y-52902552D02*
X142071428Y-53207314D01*
X142071428Y-53207314D02*
X142109524Y-53283504D01*
X142109524Y-53283504D02*
X142147619Y-53321600D01*
X142147619Y-53321600D02*
X142223809Y-53359695D01*
X142223809Y-53359695D02*
X142376190Y-53359695D01*
X142376190Y-53359695D02*
X142452381Y-53321600D01*
X142452381Y-53321600D02*
X142490476Y-53283504D01*
X142490476Y-53283504D02*
X142528571Y-53207314D01*
X142528571Y-53207314D02*
X142528571Y-53016838D01*
X142528571Y-53016838D02*
X142490476Y-52940647D01*
X142490476Y-52940647D02*
X142452381Y-52902552D01*
X142452381Y-52902552D02*
X142376190Y-52864457D01*
X142376190Y-52864457D02*
X142223809Y-52864457D01*
X142223809Y-52864457D02*
X142147619Y-52902552D01*
X142147619Y-52902552D02*
X142109524Y-52940647D01*
X142109524Y-52940647D02*
X142071428Y-53016838D01*
D11*
X147804819Y-53142857D02*
X147328628Y-53476190D01*
X147804819Y-53714285D02*
X146804819Y-53714285D01*
X146804819Y-53714285D02*
X146804819Y-53333333D01*
X146804819Y-53333333D02*
X146852438Y-53238095D01*
X146852438Y-53238095D02*
X146900057Y-53190476D01*
X146900057Y-53190476D02*
X146995295Y-53142857D01*
X146995295Y-53142857D02*
X147138152Y-53142857D01*
X147138152Y-53142857D02*
X147233390Y-53190476D01*
X147233390Y-53190476D02*
X147281009Y-53238095D01*
X147281009Y-53238095D02*
X147328628Y-53333333D01*
X147328628Y-53333333D02*
X147328628Y-53714285D01*
X146804819Y-52809523D02*
X146804819Y-52190476D01*
X146804819Y-52190476D02*
X147185771Y-52523809D01*
X147185771Y-52523809D02*
X147185771Y-52380952D01*
X147185771Y-52380952D02*
X147233390Y-52285714D01*
X147233390Y-52285714D02*
X147281009Y-52238095D01*
X147281009Y-52238095D02*
X147376247Y-52190476D01*
X147376247Y-52190476D02*
X147614342Y-52190476D01*
X147614342Y-52190476D02*
X147709580Y-52238095D01*
X147709580Y-52238095D02*
X147757200Y-52285714D01*
X147757200Y-52285714D02*
X147804819Y-52380952D01*
X147804819Y-52380952D02*
X147804819Y-52666666D01*
X147804819Y-52666666D02*
X147757200Y-52761904D01*
X147757200Y-52761904D02*
X147709580Y-52809523D01*
X146804819Y-51857142D02*
X146804819Y-51190476D01*
X146804819Y-51190476D02*
X147804819Y-51619047D01*
X147304819Y-44142857D02*
X146828628Y-44476190D01*
X147304819Y-44714285D02*
X146304819Y-44714285D01*
X146304819Y-44714285D02*
X146304819Y-44333333D01*
X146304819Y-44333333D02*
X146352438Y-44238095D01*
X146352438Y-44238095D02*
X146400057Y-44190476D01*
X146400057Y-44190476D02*
X146495295Y-44142857D01*
X146495295Y-44142857D02*
X146638152Y-44142857D01*
X146638152Y-44142857D02*
X146733390Y-44190476D01*
X146733390Y-44190476D02*
X146781009Y-44238095D01*
X146781009Y-44238095D02*
X146828628Y-44333333D01*
X146828628Y-44333333D02*
X146828628Y-44714285D01*
X146304819Y-43809523D02*
X146304819Y-43190476D01*
X146304819Y-43190476D02*
X146685771Y-43523809D01*
X146685771Y-43523809D02*
X146685771Y-43380952D01*
X146685771Y-43380952D02*
X146733390Y-43285714D01*
X146733390Y-43285714D02*
X146781009Y-43238095D01*
X146781009Y-43238095D02*
X146876247Y-43190476D01*
X146876247Y-43190476D02*
X147114342Y-43190476D01*
X147114342Y-43190476D02*
X147209580Y-43238095D01*
X147209580Y-43238095D02*
X147257200Y-43285714D01*
X147257200Y-43285714D02*
X147304819Y-43380952D01*
X147304819Y-43380952D02*
X147304819Y-43666666D01*
X147304819Y-43666666D02*
X147257200Y-43761904D01*
X147257200Y-43761904D02*
X147209580Y-43809523D01*
X146304819Y-42333333D02*
X146304819Y-42523809D01*
X146304819Y-42523809D02*
X146352438Y-42619047D01*
X146352438Y-42619047D02*
X146400057Y-42666666D01*
X146400057Y-42666666D02*
X146542914Y-42761904D01*
X146542914Y-42761904D02*
X146733390Y-42809523D01*
X146733390Y-42809523D02*
X147114342Y-42809523D01*
X147114342Y-42809523D02*
X147209580Y-42761904D01*
X147209580Y-42761904D02*
X147257200Y-42714285D01*
X147257200Y-42714285D02*
X147304819Y-42619047D01*
X147304819Y-42619047D02*
X147304819Y-42428571D01*
X147304819Y-42428571D02*
X147257200Y-42333333D01*
X147257200Y-42333333D02*
X147209580Y-42285714D01*
X147209580Y-42285714D02*
X147114342Y-42238095D01*
X147114342Y-42238095D02*
X146876247Y-42238095D01*
X146876247Y-42238095D02*
X146781009Y-42285714D01*
X146781009Y-42285714D02*
X146733390Y-42333333D01*
X146733390Y-42333333D02*
X146685771Y-42428571D01*
X146685771Y-42428571D02*
X146685771Y-42619047D01*
X146685771Y-42619047D02*
X146733390Y-42714285D01*
X146733390Y-42714285D02*
X146781009Y-42761904D01*
X146781009Y-42761904D02*
X146876247Y-42809523D01*
D10*
X132735714Y-62533504D02*
X132697618Y-62571600D01*
X132697618Y-62571600D02*
X132583333Y-62609695D01*
X132583333Y-62609695D02*
X132507142Y-62609695D01*
X132507142Y-62609695D02*
X132392856Y-62571600D01*
X132392856Y-62571600D02*
X132316666Y-62495409D01*
X132316666Y-62495409D02*
X132278571Y-62419219D01*
X132278571Y-62419219D02*
X132240475Y-62266838D01*
X132240475Y-62266838D02*
X132240475Y-62152552D01*
X132240475Y-62152552D02*
X132278571Y-62000171D01*
X132278571Y-62000171D02*
X132316666Y-61923980D01*
X132316666Y-61923980D02*
X132392856Y-61847790D01*
X132392856Y-61847790D02*
X132507142Y-61809695D01*
X132507142Y-61809695D02*
X132583333Y-61809695D01*
X132583333Y-61809695D02*
X132697618Y-61847790D01*
X132697618Y-61847790D02*
X132735714Y-61885885D01*
X133002380Y-61809695D02*
X133497618Y-61809695D01*
X133497618Y-61809695D02*
X133230952Y-62114457D01*
X133230952Y-62114457D02*
X133345237Y-62114457D01*
X133345237Y-62114457D02*
X133421428Y-62152552D01*
X133421428Y-62152552D02*
X133459523Y-62190647D01*
X133459523Y-62190647D02*
X133497618Y-62266838D01*
X133497618Y-62266838D02*
X133497618Y-62457314D01*
X133497618Y-62457314D02*
X133459523Y-62533504D01*
X133459523Y-62533504D02*
X133421428Y-62571600D01*
X133421428Y-62571600D02*
X133345237Y-62609695D01*
X133345237Y-62609695D02*
X133116666Y-62609695D01*
X133116666Y-62609695D02*
X133040475Y-62571600D01*
X133040475Y-62571600D02*
X133002380Y-62533504D01*
X133764285Y-61809695D02*
X134259523Y-61809695D01*
X134259523Y-61809695D02*
X133992857Y-62114457D01*
X133992857Y-62114457D02*
X134107142Y-62114457D01*
X134107142Y-62114457D02*
X134183333Y-62152552D01*
X134183333Y-62152552D02*
X134221428Y-62190647D01*
X134221428Y-62190647D02*
X134259523Y-62266838D01*
X134259523Y-62266838D02*
X134259523Y-62457314D01*
X134259523Y-62457314D02*
X134221428Y-62533504D01*
X134221428Y-62533504D02*
X134183333Y-62571600D01*
X134183333Y-62571600D02*
X134107142Y-62609695D01*
X134107142Y-62609695D02*
X133878571Y-62609695D01*
X133878571Y-62609695D02*
X133802380Y-62571600D01*
X133802380Y-62571600D02*
X133764285Y-62533504D01*
X138985714Y-101359695D02*
X138719047Y-100978742D01*
X138528571Y-101359695D02*
X138528571Y-100559695D01*
X138528571Y-100559695D02*
X138833333Y-100559695D01*
X138833333Y-100559695D02*
X138909523Y-100597790D01*
X138909523Y-100597790D02*
X138947618Y-100635885D01*
X138947618Y-100635885D02*
X138985714Y-100712076D01*
X138985714Y-100712076D02*
X138985714Y-100826361D01*
X138985714Y-100826361D02*
X138947618Y-100902552D01*
X138947618Y-100902552D02*
X138909523Y-100940647D01*
X138909523Y-100940647D02*
X138833333Y-100978742D01*
X138833333Y-100978742D02*
X138528571Y-100978742D01*
X139747618Y-101359695D02*
X139290475Y-101359695D01*
X139519047Y-101359695D02*
X139519047Y-100559695D01*
X139519047Y-100559695D02*
X139442856Y-100673980D01*
X139442856Y-100673980D02*
X139366666Y-100750171D01*
X139366666Y-100750171D02*
X139290475Y-100788266D01*
X140014285Y-100559695D02*
X140509523Y-100559695D01*
X140509523Y-100559695D02*
X140242857Y-100864457D01*
X140242857Y-100864457D02*
X140357142Y-100864457D01*
X140357142Y-100864457D02*
X140433333Y-100902552D01*
X140433333Y-100902552D02*
X140471428Y-100940647D01*
X140471428Y-100940647D02*
X140509523Y-101016838D01*
X140509523Y-101016838D02*
X140509523Y-101207314D01*
X140509523Y-101207314D02*
X140471428Y-101283504D01*
X140471428Y-101283504D02*
X140433333Y-101321600D01*
X140433333Y-101321600D02*
X140357142Y-101359695D01*
X140357142Y-101359695D02*
X140128571Y-101359695D01*
X140128571Y-101359695D02*
X140052380Y-101321600D01*
X140052380Y-101321600D02*
X140014285Y-101283504D01*
X138673809Y-103185885D02*
X138597619Y-103147790D01*
X138597619Y-103147790D02*
X138521428Y-103071600D01*
X138521428Y-103071600D02*
X138407142Y-102957314D01*
X138407142Y-102957314D02*
X138330952Y-102919219D01*
X138330952Y-102919219D02*
X138254761Y-102919219D01*
X138292857Y-103109695D02*
X138216666Y-103071600D01*
X138216666Y-103071600D02*
X138140476Y-102995409D01*
X138140476Y-102995409D02*
X138102380Y-102843028D01*
X138102380Y-102843028D02*
X138102380Y-102576361D01*
X138102380Y-102576361D02*
X138140476Y-102423980D01*
X138140476Y-102423980D02*
X138216666Y-102347790D01*
X138216666Y-102347790D02*
X138292857Y-102309695D01*
X138292857Y-102309695D02*
X138445238Y-102309695D01*
X138445238Y-102309695D02*
X138521428Y-102347790D01*
X138521428Y-102347790D02*
X138597619Y-102423980D01*
X138597619Y-102423980D02*
X138635714Y-102576361D01*
X138635714Y-102576361D02*
X138635714Y-102843028D01*
X138635714Y-102843028D02*
X138597619Y-102995409D01*
X138597619Y-102995409D02*
X138521428Y-103071600D01*
X138521428Y-103071600D02*
X138445238Y-103109695D01*
X138445238Y-103109695D02*
X138292857Y-103109695D01*
X139397618Y-103109695D02*
X138940475Y-103109695D01*
X139169047Y-103109695D02*
X139169047Y-102309695D01*
X139169047Y-102309695D02*
X139092856Y-102423980D01*
X139092856Y-102423980D02*
X139016666Y-102500171D01*
X139016666Y-102500171D02*
X138940475Y-102538266D01*
X97735714Y-85033504D02*
X97697618Y-85071600D01*
X97697618Y-85071600D02*
X97583333Y-85109695D01*
X97583333Y-85109695D02*
X97507142Y-85109695D01*
X97507142Y-85109695D02*
X97392856Y-85071600D01*
X97392856Y-85071600D02*
X97316666Y-84995409D01*
X97316666Y-84995409D02*
X97278571Y-84919219D01*
X97278571Y-84919219D02*
X97240475Y-84766838D01*
X97240475Y-84766838D02*
X97240475Y-84652552D01*
X97240475Y-84652552D02*
X97278571Y-84500171D01*
X97278571Y-84500171D02*
X97316666Y-84423980D01*
X97316666Y-84423980D02*
X97392856Y-84347790D01*
X97392856Y-84347790D02*
X97507142Y-84309695D01*
X97507142Y-84309695D02*
X97583333Y-84309695D01*
X97583333Y-84309695D02*
X97697618Y-84347790D01*
X97697618Y-84347790D02*
X97735714Y-84385885D01*
X98040475Y-84385885D02*
X98078571Y-84347790D01*
X98078571Y-84347790D02*
X98154761Y-84309695D01*
X98154761Y-84309695D02*
X98345237Y-84309695D01*
X98345237Y-84309695D02*
X98421428Y-84347790D01*
X98421428Y-84347790D02*
X98459523Y-84385885D01*
X98459523Y-84385885D02*
X98497618Y-84462076D01*
X98497618Y-84462076D02*
X98497618Y-84538266D01*
X98497618Y-84538266D02*
X98459523Y-84652552D01*
X98459523Y-84652552D02*
X98002380Y-85109695D01*
X98002380Y-85109695D02*
X98497618Y-85109695D01*
X99183333Y-84309695D02*
X99030952Y-84309695D01*
X99030952Y-84309695D02*
X98954761Y-84347790D01*
X98954761Y-84347790D02*
X98916666Y-84385885D01*
X98916666Y-84385885D02*
X98840476Y-84500171D01*
X98840476Y-84500171D02*
X98802380Y-84652552D01*
X98802380Y-84652552D02*
X98802380Y-84957314D01*
X98802380Y-84957314D02*
X98840476Y-85033504D01*
X98840476Y-85033504D02*
X98878571Y-85071600D01*
X98878571Y-85071600D02*
X98954761Y-85109695D01*
X98954761Y-85109695D02*
X99107142Y-85109695D01*
X99107142Y-85109695D02*
X99183333Y-85071600D01*
X99183333Y-85071600D02*
X99221428Y-85033504D01*
X99221428Y-85033504D02*
X99259523Y-84957314D01*
X99259523Y-84957314D02*
X99259523Y-84766838D01*
X99259523Y-84766838D02*
X99221428Y-84690647D01*
X99221428Y-84690647D02*
X99183333Y-84652552D01*
X99183333Y-84652552D02*
X99107142Y-84614457D01*
X99107142Y-84614457D02*
X98954761Y-84614457D01*
X98954761Y-84614457D02*
X98878571Y-84652552D01*
X98878571Y-84652552D02*
X98840476Y-84690647D01*
X98840476Y-84690647D02*
X98802380Y-84766838D01*
D11*
X139799819Y-81083333D02*
X140514104Y-81083333D01*
X140514104Y-81083333D02*
X140656961Y-81130952D01*
X140656961Y-81130952D02*
X140752200Y-81226190D01*
X140752200Y-81226190D02*
X140799819Y-81369047D01*
X140799819Y-81369047D02*
X140799819Y-81464285D01*
X139799819Y-80702380D02*
X139799819Y-80035714D01*
X139799819Y-80035714D02*
X140799819Y-80464285D01*
D10*
X82983333Y-60559695D02*
X82983333Y-61131123D01*
X82983333Y-61131123D02*
X82945238Y-61245409D01*
X82945238Y-61245409D02*
X82869047Y-61321600D01*
X82869047Y-61321600D02*
X82754762Y-61359695D01*
X82754762Y-61359695D02*
X82678571Y-61359695D01*
X83326190Y-60635885D02*
X83364286Y-60597790D01*
X83364286Y-60597790D02*
X83440476Y-60559695D01*
X83440476Y-60559695D02*
X83630952Y-60559695D01*
X83630952Y-60559695D02*
X83707143Y-60597790D01*
X83707143Y-60597790D02*
X83745238Y-60635885D01*
X83745238Y-60635885D02*
X83783333Y-60712076D01*
X83783333Y-60712076D02*
X83783333Y-60788266D01*
X83783333Y-60788266D02*
X83745238Y-60902552D01*
X83745238Y-60902552D02*
X83288095Y-61359695D01*
X83288095Y-61359695D02*
X83783333Y-61359695D01*
X114235714Y-103859695D02*
X113969047Y-103478742D01*
X113778571Y-103859695D02*
X113778571Y-103059695D01*
X113778571Y-103059695D02*
X114083333Y-103059695D01*
X114083333Y-103059695D02*
X114159523Y-103097790D01*
X114159523Y-103097790D02*
X114197618Y-103135885D01*
X114197618Y-103135885D02*
X114235714Y-103212076D01*
X114235714Y-103212076D02*
X114235714Y-103326361D01*
X114235714Y-103326361D02*
X114197618Y-103402552D01*
X114197618Y-103402552D02*
X114159523Y-103440647D01*
X114159523Y-103440647D02*
X114083333Y-103478742D01*
X114083333Y-103478742D02*
X113778571Y-103478742D01*
X114540475Y-103135885D02*
X114578571Y-103097790D01*
X114578571Y-103097790D02*
X114654761Y-103059695D01*
X114654761Y-103059695D02*
X114845237Y-103059695D01*
X114845237Y-103059695D02*
X114921428Y-103097790D01*
X114921428Y-103097790D02*
X114959523Y-103135885D01*
X114959523Y-103135885D02*
X114997618Y-103212076D01*
X114997618Y-103212076D02*
X114997618Y-103288266D01*
X114997618Y-103288266D02*
X114959523Y-103402552D01*
X114959523Y-103402552D02*
X114502380Y-103859695D01*
X114502380Y-103859695D02*
X114997618Y-103859695D01*
X115454761Y-103402552D02*
X115378571Y-103364457D01*
X115378571Y-103364457D02*
X115340476Y-103326361D01*
X115340476Y-103326361D02*
X115302380Y-103250171D01*
X115302380Y-103250171D02*
X115302380Y-103212076D01*
X115302380Y-103212076D02*
X115340476Y-103135885D01*
X115340476Y-103135885D02*
X115378571Y-103097790D01*
X115378571Y-103097790D02*
X115454761Y-103059695D01*
X115454761Y-103059695D02*
X115607142Y-103059695D01*
X115607142Y-103059695D02*
X115683333Y-103097790D01*
X115683333Y-103097790D02*
X115721428Y-103135885D01*
X115721428Y-103135885D02*
X115759523Y-103212076D01*
X115759523Y-103212076D02*
X115759523Y-103250171D01*
X115759523Y-103250171D02*
X115721428Y-103326361D01*
X115721428Y-103326361D02*
X115683333Y-103364457D01*
X115683333Y-103364457D02*
X115607142Y-103402552D01*
X115607142Y-103402552D02*
X115454761Y-103402552D01*
X115454761Y-103402552D02*
X115378571Y-103440647D01*
X115378571Y-103440647D02*
X115340476Y-103478742D01*
X115340476Y-103478742D02*
X115302380Y-103554933D01*
X115302380Y-103554933D02*
X115302380Y-103707314D01*
X115302380Y-103707314D02*
X115340476Y-103783504D01*
X115340476Y-103783504D02*
X115378571Y-103821600D01*
X115378571Y-103821600D02*
X115454761Y-103859695D01*
X115454761Y-103859695D02*
X115607142Y-103859695D01*
X115607142Y-103859695D02*
X115683333Y-103821600D01*
X115683333Y-103821600D02*
X115721428Y-103783504D01*
X115721428Y-103783504D02*
X115759523Y-103707314D01*
X115759523Y-103707314D02*
X115759523Y-103554933D01*
X115759523Y-103554933D02*
X115721428Y-103478742D01*
X115721428Y-103478742D02*
X115683333Y-103440647D01*
X115683333Y-103440647D02*
X115607142Y-103402552D01*
X141235714Y-87533504D02*
X141197618Y-87571600D01*
X141197618Y-87571600D02*
X141083333Y-87609695D01*
X141083333Y-87609695D02*
X141007142Y-87609695D01*
X141007142Y-87609695D02*
X140892856Y-87571600D01*
X140892856Y-87571600D02*
X140816666Y-87495409D01*
X140816666Y-87495409D02*
X140778571Y-87419219D01*
X140778571Y-87419219D02*
X140740475Y-87266838D01*
X140740475Y-87266838D02*
X140740475Y-87152552D01*
X140740475Y-87152552D02*
X140778571Y-87000171D01*
X140778571Y-87000171D02*
X140816666Y-86923980D01*
X140816666Y-86923980D02*
X140892856Y-86847790D01*
X140892856Y-86847790D02*
X141007142Y-86809695D01*
X141007142Y-86809695D02*
X141083333Y-86809695D01*
X141083333Y-86809695D02*
X141197618Y-86847790D01*
X141197618Y-86847790D02*
X141235714Y-86885885D01*
X141997618Y-87609695D02*
X141540475Y-87609695D01*
X141769047Y-87609695D02*
X141769047Y-86809695D01*
X141769047Y-86809695D02*
X141692856Y-86923980D01*
X141692856Y-86923980D02*
X141616666Y-87000171D01*
X141616666Y-87000171D02*
X141540475Y-87038266D01*
X142492857Y-86809695D02*
X142569047Y-86809695D01*
X142569047Y-86809695D02*
X142645238Y-86847790D01*
X142645238Y-86847790D02*
X142683333Y-86885885D01*
X142683333Y-86885885D02*
X142721428Y-86962076D01*
X142721428Y-86962076D02*
X142759523Y-87114457D01*
X142759523Y-87114457D02*
X142759523Y-87304933D01*
X142759523Y-87304933D02*
X142721428Y-87457314D01*
X142721428Y-87457314D02*
X142683333Y-87533504D01*
X142683333Y-87533504D02*
X142645238Y-87571600D01*
X142645238Y-87571600D02*
X142569047Y-87609695D01*
X142569047Y-87609695D02*
X142492857Y-87609695D01*
X142492857Y-87609695D02*
X142416666Y-87571600D01*
X142416666Y-87571600D02*
X142378571Y-87533504D01*
X142378571Y-87533504D02*
X142340476Y-87457314D01*
X142340476Y-87457314D02*
X142302380Y-87304933D01*
X142302380Y-87304933D02*
X142302380Y-87114457D01*
X142302380Y-87114457D02*
X142340476Y-86962076D01*
X142340476Y-86962076D02*
X142378571Y-86885885D01*
X142378571Y-86885885D02*
X142416666Y-86847790D01*
X142416666Y-86847790D02*
X142492857Y-86809695D01*
X149235714Y-83463504D02*
X149197618Y-83501600D01*
X149197618Y-83501600D02*
X149083333Y-83539695D01*
X149083333Y-83539695D02*
X149007142Y-83539695D01*
X149007142Y-83539695D02*
X148892856Y-83501600D01*
X148892856Y-83501600D02*
X148816666Y-83425409D01*
X148816666Y-83425409D02*
X148778571Y-83349219D01*
X148778571Y-83349219D02*
X148740475Y-83196838D01*
X148740475Y-83196838D02*
X148740475Y-83082552D01*
X148740475Y-83082552D02*
X148778571Y-82930171D01*
X148778571Y-82930171D02*
X148816666Y-82853980D01*
X148816666Y-82853980D02*
X148892856Y-82777790D01*
X148892856Y-82777790D02*
X149007142Y-82739695D01*
X149007142Y-82739695D02*
X149083333Y-82739695D01*
X149083333Y-82739695D02*
X149197618Y-82777790D01*
X149197618Y-82777790D02*
X149235714Y-82815885D01*
X149502380Y-82739695D02*
X149997618Y-82739695D01*
X149997618Y-82739695D02*
X149730952Y-83044457D01*
X149730952Y-83044457D02*
X149845237Y-83044457D01*
X149845237Y-83044457D02*
X149921428Y-83082552D01*
X149921428Y-83082552D02*
X149959523Y-83120647D01*
X149959523Y-83120647D02*
X149997618Y-83196838D01*
X149997618Y-83196838D02*
X149997618Y-83387314D01*
X149997618Y-83387314D02*
X149959523Y-83463504D01*
X149959523Y-83463504D02*
X149921428Y-83501600D01*
X149921428Y-83501600D02*
X149845237Y-83539695D01*
X149845237Y-83539695D02*
X149616666Y-83539695D01*
X149616666Y-83539695D02*
X149540475Y-83501600D01*
X149540475Y-83501600D02*
X149502380Y-83463504D01*
X150683333Y-82739695D02*
X150530952Y-82739695D01*
X150530952Y-82739695D02*
X150454761Y-82777790D01*
X150454761Y-82777790D02*
X150416666Y-82815885D01*
X150416666Y-82815885D02*
X150340476Y-82930171D01*
X150340476Y-82930171D02*
X150302380Y-83082552D01*
X150302380Y-83082552D02*
X150302380Y-83387314D01*
X150302380Y-83387314D02*
X150340476Y-83463504D01*
X150340476Y-83463504D02*
X150378571Y-83501600D01*
X150378571Y-83501600D02*
X150454761Y-83539695D01*
X150454761Y-83539695D02*
X150607142Y-83539695D01*
X150607142Y-83539695D02*
X150683333Y-83501600D01*
X150683333Y-83501600D02*
X150721428Y-83463504D01*
X150721428Y-83463504D02*
X150759523Y-83387314D01*
X150759523Y-83387314D02*
X150759523Y-83196838D01*
X150759523Y-83196838D02*
X150721428Y-83120647D01*
X150721428Y-83120647D02*
X150683333Y-83082552D01*
X150683333Y-83082552D02*
X150607142Y-83044457D01*
X150607142Y-83044457D02*
X150454761Y-83044457D01*
X150454761Y-83044457D02*
X150378571Y-83082552D01*
X150378571Y-83082552D02*
X150340476Y-83120647D01*
X150340476Y-83120647D02*
X150302380Y-83196838D01*
X147761905Y-97022219D02*
X147761905Y-96022219D01*
X147761905Y-96022219D02*
X148000000Y-96022219D01*
X148000000Y-96022219D02*
X148142857Y-96069838D01*
X148142857Y-96069838D02*
X148238095Y-96165076D01*
X148238095Y-96165076D02*
X148285714Y-96260314D01*
X148285714Y-96260314D02*
X148333333Y-96450790D01*
X148333333Y-96450790D02*
X148333333Y-96593647D01*
X148333333Y-96593647D02*
X148285714Y-96784123D01*
X148285714Y-96784123D02*
X148238095Y-96879361D01*
X148238095Y-96879361D02*
X148142857Y-96974600D01*
X148142857Y-96974600D02*
X148000000Y-97022219D01*
X148000000Y-97022219D02*
X147761905Y-97022219D01*
X149190476Y-96022219D02*
X149000000Y-96022219D01*
X149000000Y-96022219D02*
X148904762Y-96069838D01*
X148904762Y-96069838D02*
X148857143Y-96117457D01*
X148857143Y-96117457D02*
X148761905Y-96260314D01*
X148761905Y-96260314D02*
X148714286Y-96450790D01*
X148714286Y-96450790D02*
X148714286Y-96831742D01*
X148714286Y-96831742D02*
X148761905Y-96926980D01*
X148761905Y-96926980D02*
X148809524Y-96974600D01*
X148809524Y-96974600D02*
X148904762Y-97022219D01*
X148904762Y-97022219D02*
X149095238Y-97022219D01*
X149095238Y-97022219D02*
X149190476Y-96974600D01*
X149190476Y-96974600D02*
X149238095Y-96926980D01*
X149238095Y-96926980D02*
X149285714Y-96831742D01*
X149285714Y-96831742D02*
X149285714Y-96593647D01*
X149285714Y-96593647D02*
X149238095Y-96498409D01*
X149238095Y-96498409D02*
X149190476Y-96450790D01*
X149190476Y-96450790D02*
X149095238Y-96403171D01*
X149095238Y-96403171D02*
X148904762Y-96403171D01*
X148904762Y-96403171D02*
X148809524Y-96450790D01*
X148809524Y-96450790D02*
X148761905Y-96498409D01*
X148761905Y-96498409D02*
X148714286Y-96593647D01*
X99366667Y-116783504D02*
X99328571Y-116821600D01*
X99328571Y-116821600D02*
X99214286Y-116859695D01*
X99214286Y-116859695D02*
X99138095Y-116859695D01*
X99138095Y-116859695D02*
X99023809Y-116821600D01*
X99023809Y-116821600D02*
X98947619Y-116745409D01*
X98947619Y-116745409D02*
X98909524Y-116669219D01*
X98909524Y-116669219D02*
X98871428Y-116516838D01*
X98871428Y-116516838D02*
X98871428Y-116402552D01*
X98871428Y-116402552D02*
X98909524Y-116250171D01*
X98909524Y-116250171D02*
X98947619Y-116173980D01*
X98947619Y-116173980D02*
X99023809Y-116097790D01*
X99023809Y-116097790D02*
X99138095Y-116059695D01*
X99138095Y-116059695D02*
X99214286Y-116059695D01*
X99214286Y-116059695D02*
X99328571Y-116097790D01*
X99328571Y-116097790D02*
X99366667Y-116135885D01*
X99823809Y-116402552D02*
X99747619Y-116364457D01*
X99747619Y-116364457D02*
X99709524Y-116326361D01*
X99709524Y-116326361D02*
X99671428Y-116250171D01*
X99671428Y-116250171D02*
X99671428Y-116212076D01*
X99671428Y-116212076D02*
X99709524Y-116135885D01*
X99709524Y-116135885D02*
X99747619Y-116097790D01*
X99747619Y-116097790D02*
X99823809Y-116059695D01*
X99823809Y-116059695D02*
X99976190Y-116059695D01*
X99976190Y-116059695D02*
X100052381Y-116097790D01*
X100052381Y-116097790D02*
X100090476Y-116135885D01*
X100090476Y-116135885D02*
X100128571Y-116212076D01*
X100128571Y-116212076D02*
X100128571Y-116250171D01*
X100128571Y-116250171D02*
X100090476Y-116326361D01*
X100090476Y-116326361D02*
X100052381Y-116364457D01*
X100052381Y-116364457D02*
X99976190Y-116402552D01*
X99976190Y-116402552D02*
X99823809Y-116402552D01*
X99823809Y-116402552D02*
X99747619Y-116440647D01*
X99747619Y-116440647D02*
X99709524Y-116478742D01*
X99709524Y-116478742D02*
X99671428Y-116554933D01*
X99671428Y-116554933D02*
X99671428Y-116707314D01*
X99671428Y-116707314D02*
X99709524Y-116783504D01*
X99709524Y-116783504D02*
X99747619Y-116821600D01*
X99747619Y-116821600D02*
X99823809Y-116859695D01*
X99823809Y-116859695D02*
X99976190Y-116859695D01*
X99976190Y-116859695D02*
X100052381Y-116821600D01*
X100052381Y-116821600D02*
X100090476Y-116783504D01*
X100090476Y-116783504D02*
X100128571Y-116707314D01*
X100128571Y-116707314D02*
X100128571Y-116554933D01*
X100128571Y-116554933D02*
X100090476Y-116478742D01*
X100090476Y-116478742D02*
X100052381Y-116440647D01*
X100052381Y-116440647D02*
X99976190Y-116402552D01*
X115283504Y-73764285D02*
X115321600Y-73802381D01*
X115321600Y-73802381D02*
X115359695Y-73916666D01*
X115359695Y-73916666D02*
X115359695Y-73992857D01*
X115359695Y-73992857D02*
X115321600Y-74107143D01*
X115321600Y-74107143D02*
X115245409Y-74183333D01*
X115245409Y-74183333D02*
X115169219Y-74221428D01*
X115169219Y-74221428D02*
X115016838Y-74259524D01*
X115016838Y-74259524D02*
X114902552Y-74259524D01*
X114902552Y-74259524D02*
X114750171Y-74221428D01*
X114750171Y-74221428D02*
X114673980Y-74183333D01*
X114673980Y-74183333D02*
X114597790Y-74107143D01*
X114597790Y-74107143D02*
X114559695Y-73992857D01*
X114559695Y-73992857D02*
X114559695Y-73916666D01*
X114559695Y-73916666D02*
X114597790Y-73802381D01*
X114597790Y-73802381D02*
X114635885Y-73764285D01*
X115359695Y-73002381D02*
X115359695Y-73459524D01*
X115359695Y-73230952D02*
X114559695Y-73230952D01*
X114559695Y-73230952D02*
X114673980Y-73307143D01*
X114673980Y-73307143D02*
X114750171Y-73383333D01*
X114750171Y-73383333D02*
X114788266Y-73459524D01*
X114902552Y-72545238D02*
X114864457Y-72621428D01*
X114864457Y-72621428D02*
X114826361Y-72659523D01*
X114826361Y-72659523D02*
X114750171Y-72697619D01*
X114750171Y-72697619D02*
X114712076Y-72697619D01*
X114712076Y-72697619D02*
X114635885Y-72659523D01*
X114635885Y-72659523D02*
X114597790Y-72621428D01*
X114597790Y-72621428D02*
X114559695Y-72545238D01*
X114559695Y-72545238D02*
X114559695Y-72392857D01*
X114559695Y-72392857D02*
X114597790Y-72316666D01*
X114597790Y-72316666D02*
X114635885Y-72278571D01*
X114635885Y-72278571D02*
X114712076Y-72240476D01*
X114712076Y-72240476D02*
X114750171Y-72240476D01*
X114750171Y-72240476D02*
X114826361Y-72278571D01*
X114826361Y-72278571D02*
X114864457Y-72316666D01*
X114864457Y-72316666D02*
X114902552Y-72392857D01*
X114902552Y-72392857D02*
X114902552Y-72545238D01*
X114902552Y-72545238D02*
X114940647Y-72621428D01*
X114940647Y-72621428D02*
X114978742Y-72659523D01*
X114978742Y-72659523D02*
X115054933Y-72697619D01*
X115054933Y-72697619D02*
X115207314Y-72697619D01*
X115207314Y-72697619D02*
X115283504Y-72659523D01*
X115283504Y-72659523D02*
X115321600Y-72621428D01*
X115321600Y-72621428D02*
X115359695Y-72545238D01*
X115359695Y-72545238D02*
X115359695Y-72392857D01*
X115359695Y-72392857D02*
X115321600Y-72316666D01*
X115321600Y-72316666D02*
X115283504Y-72278571D01*
X115283504Y-72278571D02*
X115207314Y-72240476D01*
X115207314Y-72240476D02*
X115054933Y-72240476D01*
X115054933Y-72240476D02*
X114978742Y-72278571D01*
X114978742Y-72278571D02*
X114940647Y-72316666D01*
X114940647Y-72316666D02*
X114902552Y-72392857D01*
X140278571Y-120359695D02*
X140278571Y-119559695D01*
X140278571Y-119559695D02*
X140469047Y-119559695D01*
X140469047Y-119559695D02*
X140583333Y-119597790D01*
X140583333Y-119597790D02*
X140659523Y-119673980D01*
X140659523Y-119673980D02*
X140697618Y-119750171D01*
X140697618Y-119750171D02*
X140735714Y-119902552D01*
X140735714Y-119902552D02*
X140735714Y-120016838D01*
X140735714Y-120016838D02*
X140697618Y-120169219D01*
X140697618Y-120169219D02*
X140659523Y-120245409D01*
X140659523Y-120245409D02*
X140583333Y-120321600D01*
X140583333Y-120321600D02*
X140469047Y-120359695D01*
X140469047Y-120359695D02*
X140278571Y-120359695D01*
X141497618Y-120359695D02*
X141040475Y-120359695D01*
X141269047Y-120359695D02*
X141269047Y-119559695D01*
X141269047Y-119559695D02*
X141192856Y-119673980D01*
X141192856Y-119673980D02*
X141116666Y-119750171D01*
X141116666Y-119750171D02*
X141040475Y-119788266D01*
X141992857Y-119559695D02*
X142069047Y-119559695D01*
X142069047Y-119559695D02*
X142145238Y-119597790D01*
X142145238Y-119597790D02*
X142183333Y-119635885D01*
X142183333Y-119635885D02*
X142221428Y-119712076D01*
X142221428Y-119712076D02*
X142259523Y-119864457D01*
X142259523Y-119864457D02*
X142259523Y-120054933D01*
X142259523Y-120054933D02*
X142221428Y-120207314D01*
X142221428Y-120207314D02*
X142183333Y-120283504D01*
X142183333Y-120283504D02*
X142145238Y-120321600D01*
X142145238Y-120321600D02*
X142069047Y-120359695D01*
X142069047Y-120359695D02*
X141992857Y-120359695D01*
X141992857Y-120359695D02*
X141916666Y-120321600D01*
X141916666Y-120321600D02*
X141878571Y-120283504D01*
X141878571Y-120283504D02*
X141840476Y-120207314D01*
X141840476Y-120207314D02*
X141802380Y-120054933D01*
X141802380Y-120054933D02*
X141802380Y-119864457D01*
X141802380Y-119864457D02*
X141840476Y-119712076D01*
X141840476Y-119712076D02*
X141878571Y-119635885D01*
X141878571Y-119635885D02*
X141916666Y-119597790D01*
X141916666Y-119597790D02*
X141992857Y-119559695D01*
X147761905Y-101022219D02*
X147761905Y-100022219D01*
X147761905Y-100022219D02*
X148000000Y-100022219D01*
X148000000Y-100022219D02*
X148142857Y-100069838D01*
X148142857Y-100069838D02*
X148238095Y-100165076D01*
X148238095Y-100165076D02*
X148285714Y-100260314D01*
X148285714Y-100260314D02*
X148333333Y-100450790D01*
X148333333Y-100450790D02*
X148333333Y-100593647D01*
X148333333Y-100593647D02*
X148285714Y-100784123D01*
X148285714Y-100784123D02*
X148238095Y-100879361D01*
X148238095Y-100879361D02*
X148142857Y-100974600D01*
X148142857Y-100974600D02*
X148000000Y-101022219D01*
X148000000Y-101022219D02*
X147761905Y-101022219D01*
X148666667Y-100022219D02*
X149333333Y-100022219D01*
X149333333Y-100022219D02*
X148904762Y-101022219D01*
X96485714Y-57859695D02*
X96219047Y-57478742D01*
X96028571Y-57859695D02*
X96028571Y-57059695D01*
X96028571Y-57059695D02*
X96333333Y-57059695D01*
X96333333Y-57059695D02*
X96409523Y-57097790D01*
X96409523Y-57097790D02*
X96447618Y-57135885D01*
X96447618Y-57135885D02*
X96485714Y-57212076D01*
X96485714Y-57212076D02*
X96485714Y-57326361D01*
X96485714Y-57326361D02*
X96447618Y-57402552D01*
X96447618Y-57402552D02*
X96409523Y-57440647D01*
X96409523Y-57440647D02*
X96333333Y-57478742D01*
X96333333Y-57478742D02*
X96028571Y-57478742D01*
X97247618Y-57859695D02*
X96790475Y-57859695D01*
X97019047Y-57859695D02*
X97019047Y-57059695D01*
X97019047Y-57059695D02*
X96942856Y-57173980D01*
X96942856Y-57173980D02*
X96866666Y-57250171D01*
X96866666Y-57250171D02*
X96790475Y-57288266D01*
X97704761Y-57402552D02*
X97628571Y-57364457D01*
X97628571Y-57364457D02*
X97590476Y-57326361D01*
X97590476Y-57326361D02*
X97552380Y-57250171D01*
X97552380Y-57250171D02*
X97552380Y-57212076D01*
X97552380Y-57212076D02*
X97590476Y-57135885D01*
X97590476Y-57135885D02*
X97628571Y-57097790D01*
X97628571Y-57097790D02*
X97704761Y-57059695D01*
X97704761Y-57059695D02*
X97857142Y-57059695D01*
X97857142Y-57059695D02*
X97933333Y-57097790D01*
X97933333Y-57097790D02*
X97971428Y-57135885D01*
X97971428Y-57135885D02*
X98009523Y-57212076D01*
X98009523Y-57212076D02*
X98009523Y-57250171D01*
X98009523Y-57250171D02*
X97971428Y-57326361D01*
X97971428Y-57326361D02*
X97933333Y-57364457D01*
X97933333Y-57364457D02*
X97857142Y-57402552D01*
X97857142Y-57402552D02*
X97704761Y-57402552D01*
X97704761Y-57402552D02*
X97628571Y-57440647D01*
X97628571Y-57440647D02*
X97590476Y-57478742D01*
X97590476Y-57478742D02*
X97552380Y-57554933D01*
X97552380Y-57554933D02*
X97552380Y-57707314D01*
X97552380Y-57707314D02*
X97590476Y-57783504D01*
X97590476Y-57783504D02*
X97628571Y-57821600D01*
X97628571Y-57821600D02*
X97704761Y-57859695D01*
X97704761Y-57859695D02*
X97857142Y-57859695D01*
X97857142Y-57859695D02*
X97933333Y-57821600D01*
X97933333Y-57821600D02*
X97971428Y-57783504D01*
X97971428Y-57783504D02*
X98009523Y-57707314D01*
X98009523Y-57707314D02*
X98009523Y-57554933D01*
X98009523Y-57554933D02*
X97971428Y-57478742D01*
X97971428Y-57478742D02*
X97933333Y-57440647D01*
X97933333Y-57440647D02*
X97857142Y-57402552D01*
X96866667Y-121633504D02*
X96828571Y-121671600D01*
X96828571Y-121671600D02*
X96714286Y-121709695D01*
X96714286Y-121709695D02*
X96638095Y-121709695D01*
X96638095Y-121709695D02*
X96523809Y-121671600D01*
X96523809Y-121671600D02*
X96447619Y-121595409D01*
X96447619Y-121595409D02*
X96409524Y-121519219D01*
X96409524Y-121519219D02*
X96371428Y-121366838D01*
X96371428Y-121366838D02*
X96371428Y-121252552D01*
X96371428Y-121252552D02*
X96409524Y-121100171D01*
X96409524Y-121100171D02*
X96447619Y-121023980D01*
X96447619Y-121023980D02*
X96523809Y-120947790D01*
X96523809Y-120947790D02*
X96638095Y-120909695D01*
X96638095Y-120909695D02*
X96714286Y-120909695D01*
X96714286Y-120909695D02*
X96828571Y-120947790D01*
X96828571Y-120947790D02*
X96866667Y-120985885D01*
X97133333Y-120909695D02*
X97666667Y-120909695D01*
X97666667Y-120909695D02*
X97323809Y-121709695D01*
X151259695Y-58534285D02*
X150878742Y-58800952D01*
X151259695Y-58991428D02*
X150459695Y-58991428D01*
X150459695Y-58991428D02*
X150459695Y-58686666D01*
X150459695Y-58686666D02*
X150497790Y-58610476D01*
X150497790Y-58610476D02*
X150535885Y-58572381D01*
X150535885Y-58572381D02*
X150612076Y-58534285D01*
X150612076Y-58534285D02*
X150726361Y-58534285D01*
X150726361Y-58534285D02*
X150802552Y-58572381D01*
X150802552Y-58572381D02*
X150840647Y-58610476D01*
X150840647Y-58610476D02*
X150878742Y-58686666D01*
X150878742Y-58686666D02*
X150878742Y-58991428D01*
X150459695Y-58267619D02*
X150459695Y-57772381D01*
X150459695Y-57772381D02*
X150764457Y-58039047D01*
X150764457Y-58039047D02*
X150764457Y-57924762D01*
X150764457Y-57924762D02*
X150802552Y-57848571D01*
X150802552Y-57848571D02*
X150840647Y-57810476D01*
X150840647Y-57810476D02*
X150916838Y-57772381D01*
X150916838Y-57772381D02*
X151107314Y-57772381D01*
X151107314Y-57772381D02*
X151183504Y-57810476D01*
X151183504Y-57810476D02*
X151221600Y-57848571D01*
X151221600Y-57848571D02*
X151259695Y-57924762D01*
X151259695Y-57924762D02*
X151259695Y-58153333D01*
X151259695Y-58153333D02*
X151221600Y-58229524D01*
X151221600Y-58229524D02*
X151183504Y-58267619D01*
X151259695Y-57391428D02*
X151259695Y-57239047D01*
X151259695Y-57239047D02*
X151221600Y-57162857D01*
X151221600Y-57162857D02*
X151183504Y-57124761D01*
X151183504Y-57124761D02*
X151069219Y-57048571D01*
X151069219Y-57048571D02*
X150916838Y-57010476D01*
X150916838Y-57010476D02*
X150612076Y-57010476D01*
X150612076Y-57010476D02*
X150535885Y-57048571D01*
X150535885Y-57048571D02*
X150497790Y-57086666D01*
X150497790Y-57086666D02*
X150459695Y-57162857D01*
X150459695Y-57162857D02*
X150459695Y-57315238D01*
X150459695Y-57315238D02*
X150497790Y-57391428D01*
X150497790Y-57391428D02*
X150535885Y-57429523D01*
X150535885Y-57429523D02*
X150612076Y-57467619D01*
X150612076Y-57467619D02*
X150802552Y-57467619D01*
X150802552Y-57467619D02*
X150878742Y-57429523D01*
X150878742Y-57429523D02*
X150916838Y-57391428D01*
X150916838Y-57391428D02*
X150954933Y-57315238D01*
X150954933Y-57315238D02*
X150954933Y-57162857D01*
X150954933Y-57162857D02*
X150916838Y-57086666D01*
X150916838Y-57086666D02*
X150878742Y-57048571D01*
X150878742Y-57048571D02*
X150802552Y-57010476D01*
X140985714Y-77859695D02*
X140719047Y-77478742D01*
X140528571Y-77859695D02*
X140528571Y-77059695D01*
X140528571Y-77059695D02*
X140833333Y-77059695D01*
X140833333Y-77059695D02*
X140909523Y-77097790D01*
X140909523Y-77097790D02*
X140947618Y-77135885D01*
X140947618Y-77135885D02*
X140985714Y-77212076D01*
X140985714Y-77212076D02*
X140985714Y-77326361D01*
X140985714Y-77326361D02*
X140947618Y-77402552D01*
X140947618Y-77402552D02*
X140909523Y-77440647D01*
X140909523Y-77440647D02*
X140833333Y-77478742D01*
X140833333Y-77478742D02*
X140528571Y-77478742D01*
X141252380Y-77059695D02*
X141747618Y-77059695D01*
X141747618Y-77059695D02*
X141480952Y-77364457D01*
X141480952Y-77364457D02*
X141595237Y-77364457D01*
X141595237Y-77364457D02*
X141671428Y-77402552D01*
X141671428Y-77402552D02*
X141709523Y-77440647D01*
X141709523Y-77440647D02*
X141747618Y-77516838D01*
X141747618Y-77516838D02*
X141747618Y-77707314D01*
X141747618Y-77707314D02*
X141709523Y-77783504D01*
X141709523Y-77783504D02*
X141671428Y-77821600D01*
X141671428Y-77821600D02*
X141595237Y-77859695D01*
X141595237Y-77859695D02*
X141366666Y-77859695D01*
X141366666Y-77859695D02*
X141290475Y-77821600D01*
X141290475Y-77821600D02*
X141252380Y-77783504D01*
X142014285Y-77059695D02*
X142509523Y-77059695D01*
X142509523Y-77059695D02*
X142242857Y-77364457D01*
X142242857Y-77364457D02*
X142357142Y-77364457D01*
X142357142Y-77364457D02*
X142433333Y-77402552D01*
X142433333Y-77402552D02*
X142471428Y-77440647D01*
X142471428Y-77440647D02*
X142509523Y-77516838D01*
X142509523Y-77516838D02*
X142509523Y-77707314D01*
X142509523Y-77707314D02*
X142471428Y-77783504D01*
X142471428Y-77783504D02*
X142433333Y-77821600D01*
X142433333Y-77821600D02*
X142357142Y-77859695D01*
X142357142Y-77859695D02*
X142128571Y-77859695D01*
X142128571Y-77859695D02*
X142052380Y-77821600D01*
X142052380Y-77821600D02*
X142014285Y-77783504D01*
X140985714Y-96283504D02*
X140947618Y-96321600D01*
X140947618Y-96321600D02*
X140833333Y-96359695D01*
X140833333Y-96359695D02*
X140757142Y-96359695D01*
X140757142Y-96359695D02*
X140642856Y-96321600D01*
X140642856Y-96321600D02*
X140566666Y-96245409D01*
X140566666Y-96245409D02*
X140528571Y-96169219D01*
X140528571Y-96169219D02*
X140490475Y-96016838D01*
X140490475Y-96016838D02*
X140490475Y-95902552D01*
X140490475Y-95902552D02*
X140528571Y-95750171D01*
X140528571Y-95750171D02*
X140566666Y-95673980D01*
X140566666Y-95673980D02*
X140642856Y-95597790D01*
X140642856Y-95597790D02*
X140757142Y-95559695D01*
X140757142Y-95559695D02*
X140833333Y-95559695D01*
X140833333Y-95559695D02*
X140947618Y-95597790D01*
X140947618Y-95597790D02*
X140985714Y-95635885D01*
X141747618Y-96359695D02*
X141290475Y-96359695D01*
X141519047Y-96359695D02*
X141519047Y-95559695D01*
X141519047Y-95559695D02*
X141442856Y-95673980D01*
X141442856Y-95673980D02*
X141366666Y-95750171D01*
X141366666Y-95750171D02*
X141290475Y-95788266D01*
X142014285Y-95559695D02*
X142509523Y-95559695D01*
X142509523Y-95559695D02*
X142242857Y-95864457D01*
X142242857Y-95864457D02*
X142357142Y-95864457D01*
X142357142Y-95864457D02*
X142433333Y-95902552D01*
X142433333Y-95902552D02*
X142471428Y-95940647D01*
X142471428Y-95940647D02*
X142509523Y-96016838D01*
X142509523Y-96016838D02*
X142509523Y-96207314D01*
X142509523Y-96207314D02*
X142471428Y-96283504D01*
X142471428Y-96283504D02*
X142433333Y-96321600D01*
X142433333Y-96321600D02*
X142357142Y-96359695D01*
X142357142Y-96359695D02*
X142128571Y-96359695D01*
X142128571Y-96359695D02*
X142052380Y-96321600D01*
X142052380Y-96321600D02*
X142014285Y-96283504D01*
X98735714Y-93533504D02*
X98697618Y-93571600D01*
X98697618Y-93571600D02*
X98583333Y-93609695D01*
X98583333Y-93609695D02*
X98507142Y-93609695D01*
X98507142Y-93609695D02*
X98392856Y-93571600D01*
X98392856Y-93571600D02*
X98316666Y-93495409D01*
X98316666Y-93495409D02*
X98278571Y-93419219D01*
X98278571Y-93419219D02*
X98240475Y-93266838D01*
X98240475Y-93266838D02*
X98240475Y-93152552D01*
X98240475Y-93152552D02*
X98278571Y-93000171D01*
X98278571Y-93000171D02*
X98316666Y-92923980D01*
X98316666Y-92923980D02*
X98392856Y-92847790D01*
X98392856Y-92847790D02*
X98507142Y-92809695D01*
X98507142Y-92809695D02*
X98583333Y-92809695D01*
X98583333Y-92809695D02*
X98697618Y-92847790D01*
X98697618Y-92847790D02*
X98735714Y-92885885D01*
X99040475Y-92885885D02*
X99078571Y-92847790D01*
X99078571Y-92847790D02*
X99154761Y-92809695D01*
X99154761Y-92809695D02*
X99345237Y-92809695D01*
X99345237Y-92809695D02*
X99421428Y-92847790D01*
X99421428Y-92847790D02*
X99459523Y-92885885D01*
X99459523Y-92885885D02*
X99497618Y-92962076D01*
X99497618Y-92962076D02*
X99497618Y-93038266D01*
X99497618Y-93038266D02*
X99459523Y-93152552D01*
X99459523Y-93152552D02*
X99002380Y-93609695D01*
X99002380Y-93609695D02*
X99497618Y-93609695D01*
X100183333Y-93076361D02*
X100183333Y-93609695D01*
X99992857Y-92771600D02*
X99802380Y-93343028D01*
X99802380Y-93343028D02*
X100297619Y-93343028D01*
X93619048Y-64978742D02*
X93619048Y-65359695D01*
X93352381Y-64559695D02*
X93619048Y-64978742D01*
X93619048Y-64978742D02*
X93885714Y-64559695D01*
X94571428Y-65359695D02*
X94114285Y-65359695D01*
X94342857Y-65359695D02*
X94342857Y-64559695D01*
X94342857Y-64559695D02*
X94266666Y-64673980D01*
X94266666Y-64673980D02*
X94190476Y-64750171D01*
X94190476Y-64750171D02*
X94114285Y-64788266D01*
X112898214Y-96359695D02*
X112631547Y-95978742D01*
X112441071Y-96359695D02*
X112441071Y-95559695D01*
X112441071Y-95559695D02*
X112745833Y-95559695D01*
X112745833Y-95559695D02*
X112822023Y-95597790D01*
X112822023Y-95597790D02*
X112860118Y-95635885D01*
X112860118Y-95635885D02*
X112898214Y-95712076D01*
X112898214Y-95712076D02*
X112898214Y-95826361D01*
X112898214Y-95826361D02*
X112860118Y-95902552D01*
X112860118Y-95902552D02*
X112822023Y-95940647D01*
X112822023Y-95940647D02*
X112745833Y-95978742D01*
X112745833Y-95978742D02*
X112441071Y-95978742D01*
X113202975Y-95635885D02*
X113241071Y-95597790D01*
X113241071Y-95597790D02*
X113317261Y-95559695D01*
X113317261Y-95559695D02*
X113507737Y-95559695D01*
X113507737Y-95559695D02*
X113583928Y-95597790D01*
X113583928Y-95597790D02*
X113622023Y-95635885D01*
X113622023Y-95635885D02*
X113660118Y-95712076D01*
X113660118Y-95712076D02*
X113660118Y-95788266D01*
X113660118Y-95788266D02*
X113622023Y-95902552D01*
X113622023Y-95902552D02*
X113164880Y-96359695D01*
X113164880Y-96359695D02*
X113660118Y-96359695D01*
X114345833Y-95826361D02*
X114345833Y-96359695D01*
X114155357Y-95521600D02*
X113964880Y-96093028D01*
X113964880Y-96093028D02*
X114460119Y-96093028D01*
X150509695Y-48014285D02*
X150128742Y-48280952D01*
X150509695Y-48471428D02*
X149709695Y-48471428D01*
X149709695Y-48471428D02*
X149709695Y-48166666D01*
X149709695Y-48166666D02*
X149747790Y-48090476D01*
X149747790Y-48090476D02*
X149785885Y-48052381D01*
X149785885Y-48052381D02*
X149862076Y-48014285D01*
X149862076Y-48014285D02*
X149976361Y-48014285D01*
X149976361Y-48014285D02*
X150052552Y-48052381D01*
X150052552Y-48052381D02*
X150090647Y-48090476D01*
X150090647Y-48090476D02*
X150128742Y-48166666D01*
X150128742Y-48166666D02*
X150128742Y-48471428D01*
X149709695Y-47747619D02*
X149709695Y-47252381D01*
X149709695Y-47252381D02*
X150014457Y-47519047D01*
X150014457Y-47519047D02*
X150014457Y-47404762D01*
X150014457Y-47404762D02*
X150052552Y-47328571D01*
X150052552Y-47328571D02*
X150090647Y-47290476D01*
X150090647Y-47290476D02*
X150166838Y-47252381D01*
X150166838Y-47252381D02*
X150357314Y-47252381D01*
X150357314Y-47252381D02*
X150433504Y-47290476D01*
X150433504Y-47290476D02*
X150471600Y-47328571D01*
X150471600Y-47328571D02*
X150509695Y-47404762D01*
X150509695Y-47404762D02*
X150509695Y-47633333D01*
X150509695Y-47633333D02*
X150471600Y-47709524D01*
X150471600Y-47709524D02*
X150433504Y-47747619D01*
X150052552Y-46795238D02*
X150014457Y-46871428D01*
X150014457Y-46871428D02*
X149976361Y-46909523D01*
X149976361Y-46909523D02*
X149900171Y-46947619D01*
X149900171Y-46947619D02*
X149862076Y-46947619D01*
X149862076Y-46947619D02*
X149785885Y-46909523D01*
X149785885Y-46909523D02*
X149747790Y-46871428D01*
X149747790Y-46871428D02*
X149709695Y-46795238D01*
X149709695Y-46795238D02*
X149709695Y-46642857D01*
X149709695Y-46642857D02*
X149747790Y-46566666D01*
X149747790Y-46566666D02*
X149785885Y-46528571D01*
X149785885Y-46528571D02*
X149862076Y-46490476D01*
X149862076Y-46490476D02*
X149900171Y-46490476D01*
X149900171Y-46490476D02*
X149976361Y-46528571D01*
X149976361Y-46528571D02*
X150014457Y-46566666D01*
X150014457Y-46566666D02*
X150052552Y-46642857D01*
X150052552Y-46642857D02*
X150052552Y-46795238D01*
X150052552Y-46795238D02*
X150090647Y-46871428D01*
X150090647Y-46871428D02*
X150128742Y-46909523D01*
X150128742Y-46909523D02*
X150204933Y-46947619D01*
X150204933Y-46947619D02*
X150357314Y-46947619D01*
X150357314Y-46947619D02*
X150433504Y-46909523D01*
X150433504Y-46909523D02*
X150471600Y-46871428D01*
X150471600Y-46871428D02*
X150509695Y-46795238D01*
X150509695Y-46795238D02*
X150509695Y-46642857D01*
X150509695Y-46642857D02*
X150471600Y-46566666D01*
X150471600Y-46566666D02*
X150433504Y-46528571D01*
X150433504Y-46528571D02*
X150357314Y-46490476D01*
X150357314Y-46490476D02*
X150204933Y-46490476D01*
X150204933Y-46490476D02*
X150128742Y-46528571D01*
X150128742Y-46528571D02*
X150090647Y-46566666D01*
X150090647Y-46566666D02*
X150052552Y-46642857D01*
X109398214Y-96283504D02*
X109360118Y-96321600D01*
X109360118Y-96321600D02*
X109245833Y-96359695D01*
X109245833Y-96359695D02*
X109169642Y-96359695D01*
X109169642Y-96359695D02*
X109055356Y-96321600D01*
X109055356Y-96321600D02*
X108979166Y-96245409D01*
X108979166Y-96245409D02*
X108941071Y-96169219D01*
X108941071Y-96169219D02*
X108902975Y-96016838D01*
X108902975Y-96016838D02*
X108902975Y-95902552D01*
X108902975Y-95902552D02*
X108941071Y-95750171D01*
X108941071Y-95750171D02*
X108979166Y-95673980D01*
X108979166Y-95673980D02*
X109055356Y-95597790D01*
X109055356Y-95597790D02*
X109169642Y-95559695D01*
X109169642Y-95559695D02*
X109245833Y-95559695D01*
X109245833Y-95559695D02*
X109360118Y-95597790D01*
X109360118Y-95597790D02*
X109398214Y-95635885D01*
X109702975Y-95635885D02*
X109741071Y-95597790D01*
X109741071Y-95597790D02*
X109817261Y-95559695D01*
X109817261Y-95559695D02*
X110007737Y-95559695D01*
X110007737Y-95559695D02*
X110083928Y-95597790D01*
X110083928Y-95597790D02*
X110122023Y-95635885D01*
X110122023Y-95635885D02*
X110160118Y-95712076D01*
X110160118Y-95712076D02*
X110160118Y-95788266D01*
X110160118Y-95788266D02*
X110122023Y-95902552D01*
X110122023Y-95902552D02*
X109664880Y-96359695D01*
X109664880Y-96359695D02*
X110160118Y-96359695D01*
X110464880Y-95635885D02*
X110502976Y-95597790D01*
X110502976Y-95597790D02*
X110579166Y-95559695D01*
X110579166Y-95559695D02*
X110769642Y-95559695D01*
X110769642Y-95559695D02*
X110845833Y-95597790D01*
X110845833Y-95597790D02*
X110883928Y-95635885D01*
X110883928Y-95635885D02*
X110922023Y-95712076D01*
X110922023Y-95712076D02*
X110922023Y-95788266D01*
X110922023Y-95788266D02*
X110883928Y-95902552D01*
X110883928Y-95902552D02*
X110426785Y-96359695D01*
X110426785Y-96359695D02*
X110922023Y-96359695D01*
X145485714Y-50013504D02*
X145447618Y-50051600D01*
X145447618Y-50051600D02*
X145333333Y-50089695D01*
X145333333Y-50089695D02*
X145257142Y-50089695D01*
X145257142Y-50089695D02*
X145142856Y-50051600D01*
X145142856Y-50051600D02*
X145066666Y-49975409D01*
X145066666Y-49975409D02*
X145028571Y-49899219D01*
X145028571Y-49899219D02*
X144990475Y-49746838D01*
X144990475Y-49746838D02*
X144990475Y-49632552D01*
X144990475Y-49632552D02*
X145028571Y-49480171D01*
X145028571Y-49480171D02*
X145066666Y-49403980D01*
X145066666Y-49403980D02*
X145142856Y-49327790D01*
X145142856Y-49327790D02*
X145257142Y-49289695D01*
X145257142Y-49289695D02*
X145333333Y-49289695D01*
X145333333Y-49289695D02*
X145447618Y-49327790D01*
X145447618Y-49327790D02*
X145485714Y-49365885D01*
X145752380Y-49289695D02*
X146247618Y-49289695D01*
X146247618Y-49289695D02*
X145980952Y-49594457D01*
X145980952Y-49594457D02*
X146095237Y-49594457D01*
X146095237Y-49594457D02*
X146171428Y-49632552D01*
X146171428Y-49632552D02*
X146209523Y-49670647D01*
X146209523Y-49670647D02*
X146247618Y-49746838D01*
X146247618Y-49746838D02*
X146247618Y-49937314D01*
X146247618Y-49937314D02*
X146209523Y-50013504D01*
X146209523Y-50013504D02*
X146171428Y-50051600D01*
X146171428Y-50051600D02*
X146095237Y-50089695D01*
X146095237Y-50089695D02*
X145866666Y-50089695D01*
X145866666Y-50089695D02*
X145790475Y-50051600D01*
X145790475Y-50051600D02*
X145752380Y-50013504D01*
X146704761Y-49632552D02*
X146628571Y-49594457D01*
X146628571Y-49594457D02*
X146590476Y-49556361D01*
X146590476Y-49556361D02*
X146552380Y-49480171D01*
X146552380Y-49480171D02*
X146552380Y-49442076D01*
X146552380Y-49442076D02*
X146590476Y-49365885D01*
X146590476Y-49365885D02*
X146628571Y-49327790D01*
X146628571Y-49327790D02*
X146704761Y-49289695D01*
X146704761Y-49289695D02*
X146857142Y-49289695D01*
X146857142Y-49289695D02*
X146933333Y-49327790D01*
X146933333Y-49327790D02*
X146971428Y-49365885D01*
X146971428Y-49365885D02*
X147009523Y-49442076D01*
X147009523Y-49442076D02*
X147009523Y-49480171D01*
X147009523Y-49480171D02*
X146971428Y-49556361D01*
X146971428Y-49556361D02*
X146933333Y-49594457D01*
X146933333Y-49594457D02*
X146857142Y-49632552D01*
X146857142Y-49632552D02*
X146704761Y-49632552D01*
X146704761Y-49632552D02*
X146628571Y-49670647D01*
X146628571Y-49670647D02*
X146590476Y-49708742D01*
X146590476Y-49708742D02*
X146552380Y-49784933D01*
X146552380Y-49784933D02*
X146552380Y-49937314D01*
X146552380Y-49937314D02*
X146590476Y-50013504D01*
X146590476Y-50013504D02*
X146628571Y-50051600D01*
X146628571Y-50051600D02*
X146704761Y-50089695D01*
X146704761Y-50089695D02*
X146857142Y-50089695D01*
X146857142Y-50089695D02*
X146933333Y-50051600D01*
X146933333Y-50051600D02*
X146971428Y-50013504D01*
X146971428Y-50013504D02*
X147009523Y-49937314D01*
X147009523Y-49937314D02*
X147009523Y-49784933D01*
X147009523Y-49784933D02*
X146971428Y-49708742D01*
X146971428Y-49708742D02*
X146933333Y-49670647D01*
X146933333Y-49670647D02*
X146857142Y-49632552D01*
X102440647Y-91666666D02*
X102440647Y-91933332D01*
X102859695Y-91933332D02*
X102059695Y-91933332D01*
X102059695Y-91933332D02*
X102059695Y-91552380D01*
X102440647Y-90980952D02*
X102478742Y-90866666D01*
X102478742Y-90866666D02*
X102516838Y-90828571D01*
X102516838Y-90828571D02*
X102593028Y-90790475D01*
X102593028Y-90790475D02*
X102707314Y-90790475D01*
X102707314Y-90790475D02*
X102783504Y-90828571D01*
X102783504Y-90828571D02*
X102821600Y-90866666D01*
X102821600Y-90866666D02*
X102859695Y-90942856D01*
X102859695Y-90942856D02*
X102859695Y-91247618D01*
X102859695Y-91247618D02*
X102059695Y-91247618D01*
X102059695Y-91247618D02*
X102059695Y-90980952D01*
X102059695Y-90980952D02*
X102097790Y-90904761D01*
X102097790Y-90904761D02*
X102135885Y-90866666D01*
X102135885Y-90866666D02*
X102212076Y-90828571D01*
X102212076Y-90828571D02*
X102288266Y-90828571D01*
X102288266Y-90828571D02*
X102364457Y-90866666D01*
X102364457Y-90866666D02*
X102402552Y-90904761D01*
X102402552Y-90904761D02*
X102440647Y-90980952D01*
X102440647Y-90980952D02*
X102440647Y-91247618D01*
X102059695Y-90523809D02*
X102059695Y-90028571D01*
X102059695Y-90028571D02*
X102364457Y-90295237D01*
X102364457Y-90295237D02*
X102364457Y-90180952D01*
X102364457Y-90180952D02*
X102402552Y-90104761D01*
X102402552Y-90104761D02*
X102440647Y-90066666D01*
X102440647Y-90066666D02*
X102516838Y-90028571D01*
X102516838Y-90028571D02*
X102707314Y-90028571D01*
X102707314Y-90028571D02*
X102783504Y-90066666D01*
X102783504Y-90066666D02*
X102821600Y-90104761D01*
X102821600Y-90104761D02*
X102859695Y-90180952D01*
X102859695Y-90180952D02*
X102859695Y-90409523D01*
X102859695Y-90409523D02*
X102821600Y-90485714D01*
X102821600Y-90485714D02*
X102783504Y-90523809D01*
X97533504Y-64264285D02*
X97571600Y-64302381D01*
X97571600Y-64302381D02*
X97609695Y-64416666D01*
X97609695Y-64416666D02*
X97609695Y-64492857D01*
X97609695Y-64492857D02*
X97571600Y-64607143D01*
X97571600Y-64607143D02*
X97495409Y-64683333D01*
X97495409Y-64683333D02*
X97419219Y-64721428D01*
X97419219Y-64721428D02*
X97266838Y-64759524D01*
X97266838Y-64759524D02*
X97152552Y-64759524D01*
X97152552Y-64759524D02*
X97000171Y-64721428D01*
X97000171Y-64721428D02*
X96923980Y-64683333D01*
X96923980Y-64683333D02*
X96847790Y-64607143D01*
X96847790Y-64607143D02*
X96809695Y-64492857D01*
X96809695Y-64492857D02*
X96809695Y-64416666D01*
X96809695Y-64416666D02*
X96847790Y-64302381D01*
X96847790Y-64302381D02*
X96885885Y-64264285D01*
X96809695Y-63997619D02*
X96809695Y-63502381D01*
X96809695Y-63502381D02*
X97114457Y-63769047D01*
X97114457Y-63769047D02*
X97114457Y-63654762D01*
X97114457Y-63654762D02*
X97152552Y-63578571D01*
X97152552Y-63578571D02*
X97190647Y-63540476D01*
X97190647Y-63540476D02*
X97266838Y-63502381D01*
X97266838Y-63502381D02*
X97457314Y-63502381D01*
X97457314Y-63502381D02*
X97533504Y-63540476D01*
X97533504Y-63540476D02*
X97571600Y-63578571D01*
X97571600Y-63578571D02*
X97609695Y-63654762D01*
X97609695Y-63654762D02*
X97609695Y-63883333D01*
X97609695Y-63883333D02*
X97571600Y-63959524D01*
X97571600Y-63959524D02*
X97533504Y-63997619D01*
X97609695Y-63121428D02*
X97609695Y-62969047D01*
X97609695Y-62969047D02*
X97571600Y-62892857D01*
X97571600Y-62892857D02*
X97533504Y-62854761D01*
X97533504Y-62854761D02*
X97419219Y-62778571D01*
X97419219Y-62778571D02*
X97266838Y-62740476D01*
X97266838Y-62740476D02*
X96962076Y-62740476D01*
X96962076Y-62740476D02*
X96885885Y-62778571D01*
X96885885Y-62778571D02*
X96847790Y-62816666D01*
X96847790Y-62816666D02*
X96809695Y-62892857D01*
X96809695Y-62892857D02*
X96809695Y-63045238D01*
X96809695Y-63045238D02*
X96847790Y-63121428D01*
X96847790Y-63121428D02*
X96885885Y-63159523D01*
X96885885Y-63159523D02*
X96962076Y-63197619D01*
X96962076Y-63197619D02*
X97152552Y-63197619D01*
X97152552Y-63197619D02*
X97228742Y-63159523D01*
X97228742Y-63159523D02*
X97266838Y-63121428D01*
X97266838Y-63121428D02*
X97304933Y-63045238D01*
X97304933Y-63045238D02*
X97304933Y-62892857D01*
X97304933Y-62892857D02*
X97266838Y-62816666D01*
X97266838Y-62816666D02*
X97228742Y-62778571D01*
X97228742Y-62778571D02*
X97152552Y-62740476D01*
X107735714Y-81609695D02*
X107469047Y-81228742D01*
X107278571Y-81609695D02*
X107278571Y-80809695D01*
X107278571Y-80809695D02*
X107583333Y-80809695D01*
X107583333Y-80809695D02*
X107659523Y-80847790D01*
X107659523Y-80847790D02*
X107697618Y-80885885D01*
X107697618Y-80885885D02*
X107735714Y-80962076D01*
X107735714Y-80962076D02*
X107735714Y-81076361D01*
X107735714Y-81076361D02*
X107697618Y-81152552D01*
X107697618Y-81152552D02*
X107659523Y-81190647D01*
X107659523Y-81190647D02*
X107583333Y-81228742D01*
X107583333Y-81228742D02*
X107278571Y-81228742D01*
X108040475Y-80885885D02*
X108078571Y-80847790D01*
X108078571Y-80847790D02*
X108154761Y-80809695D01*
X108154761Y-80809695D02*
X108345237Y-80809695D01*
X108345237Y-80809695D02*
X108421428Y-80847790D01*
X108421428Y-80847790D02*
X108459523Y-80885885D01*
X108459523Y-80885885D02*
X108497618Y-80962076D01*
X108497618Y-80962076D02*
X108497618Y-81038266D01*
X108497618Y-81038266D02*
X108459523Y-81152552D01*
X108459523Y-81152552D02*
X108002380Y-81609695D01*
X108002380Y-81609695D02*
X108497618Y-81609695D01*
X109259523Y-81609695D02*
X108802380Y-81609695D01*
X109030952Y-81609695D02*
X109030952Y-80809695D01*
X109030952Y-80809695D02*
X108954761Y-80923980D01*
X108954761Y-80923980D02*
X108878571Y-81000171D01*
X108878571Y-81000171D02*
X108802380Y-81038266D01*
X124009524Y-71709695D02*
X124009524Y-72357314D01*
X124009524Y-72357314D02*
X124047619Y-72433504D01*
X124047619Y-72433504D02*
X124085714Y-72471600D01*
X124085714Y-72471600D02*
X124161905Y-72509695D01*
X124161905Y-72509695D02*
X124314286Y-72509695D01*
X124314286Y-72509695D02*
X124390476Y-72471600D01*
X124390476Y-72471600D02*
X124428571Y-72433504D01*
X124428571Y-72433504D02*
X124466667Y-72357314D01*
X124466667Y-72357314D02*
X124466667Y-71709695D01*
X125266666Y-72509695D02*
X124809523Y-72509695D01*
X125038095Y-72509695D02*
X125038095Y-71709695D01*
X125038095Y-71709695D02*
X124961904Y-71823980D01*
X124961904Y-71823980D02*
X124885714Y-71900171D01*
X124885714Y-71900171D02*
X124809523Y-71938266D01*
X125533333Y-71709695D02*
X126028571Y-71709695D01*
X126028571Y-71709695D02*
X125761905Y-72014457D01*
X125761905Y-72014457D02*
X125876190Y-72014457D01*
X125876190Y-72014457D02*
X125952381Y-72052552D01*
X125952381Y-72052552D02*
X125990476Y-72090647D01*
X125990476Y-72090647D02*
X126028571Y-72166838D01*
X126028571Y-72166838D02*
X126028571Y-72357314D01*
X126028571Y-72357314D02*
X125990476Y-72433504D01*
X125990476Y-72433504D02*
X125952381Y-72471600D01*
X125952381Y-72471600D02*
X125876190Y-72509695D01*
X125876190Y-72509695D02*
X125647619Y-72509695D01*
X125647619Y-72509695D02*
X125571428Y-72471600D01*
X125571428Y-72471600D02*
X125533333Y-72433504D01*
X128235714Y-89783504D02*
X128197618Y-89821600D01*
X128197618Y-89821600D02*
X128083333Y-89859695D01*
X128083333Y-89859695D02*
X128007142Y-89859695D01*
X128007142Y-89859695D02*
X127892856Y-89821600D01*
X127892856Y-89821600D02*
X127816666Y-89745409D01*
X127816666Y-89745409D02*
X127778571Y-89669219D01*
X127778571Y-89669219D02*
X127740475Y-89516838D01*
X127740475Y-89516838D02*
X127740475Y-89402552D01*
X127740475Y-89402552D02*
X127778571Y-89250171D01*
X127778571Y-89250171D02*
X127816666Y-89173980D01*
X127816666Y-89173980D02*
X127892856Y-89097790D01*
X127892856Y-89097790D02*
X128007142Y-89059695D01*
X128007142Y-89059695D02*
X128083333Y-89059695D01*
X128083333Y-89059695D02*
X128197618Y-89097790D01*
X128197618Y-89097790D02*
X128235714Y-89135885D01*
X128997618Y-89859695D02*
X128540475Y-89859695D01*
X128769047Y-89859695D02*
X128769047Y-89059695D01*
X128769047Y-89059695D02*
X128692856Y-89173980D01*
X128692856Y-89173980D02*
X128616666Y-89250171D01*
X128616666Y-89250171D02*
X128540475Y-89288266D01*
X129721428Y-89059695D02*
X129340476Y-89059695D01*
X129340476Y-89059695D02*
X129302380Y-89440647D01*
X129302380Y-89440647D02*
X129340476Y-89402552D01*
X129340476Y-89402552D02*
X129416666Y-89364457D01*
X129416666Y-89364457D02*
X129607142Y-89364457D01*
X129607142Y-89364457D02*
X129683333Y-89402552D01*
X129683333Y-89402552D02*
X129721428Y-89440647D01*
X129721428Y-89440647D02*
X129759523Y-89516838D01*
X129759523Y-89516838D02*
X129759523Y-89707314D01*
X129759523Y-89707314D02*
X129721428Y-89783504D01*
X129721428Y-89783504D02*
X129683333Y-89821600D01*
X129683333Y-89821600D02*
X129607142Y-89859695D01*
X129607142Y-89859695D02*
X129416666Y-89859695D01*
X129416666Y-89859695D02*
X129340476Y-89821600D01*
X129340476Y-89821600D02*
X129302380Y-89783504D01*
X102985714Y-81609695D02*
X102719047Y-81228742D01*
X102528571Y-81609695D02*
X102528571Y-80809695D01*
X102528571Y-80809695D02*
X102833333Y-80809695D01*
X102833333Y-80809695D02*
X102909523Y-80847790D01*
X102909523Y-80847790D02*
X102947618Y-80885885D01*
X102947618Y-80885885D02*
X102985714Y-80962076D01*
X102985714Y-80962076D02*
X102985714Y-81076361D01*
X102985714Y-81076361D02*
X102947618Y-81152552D01*
X102947618Y-81152552D02*
X102909523Y-81190647D01*
X102909523Y-81190647D02*
X102833333Y-81228742D01*
X102833333Y-81228742D02*
X102528571Y-81228742D01*
X103290475Y-80885885D02*
X103328571Y-80847790D01*
X103328571Y-80847790D02*
X103404761Y-80809695D01*
X103404761Y-80809695D02*
X103595237Y-80809695D01*
X103595237Y-80809695D02*
X103671428Y-80847790D01*
X103671428Y-80847790D02*
X103709523Y-80885885D01*
X103709523Y-80885885D02*
X103747618Y-80962076D01*
X103747618Y-80962076D02*
X103747618Y-81038266D01*
X103747618Y-81038266D02*
X103709523Y-81152552D01*
X103709523Y-81152552D02*
X103252380Y-81609695D01*
X103252380Y-81609695D02*
X103747618Y-81609695D01*
X104242857Y-80809695D02*
X104319047Y-80809695D01*
X104319047Y-80809695D02*
X104395238Y-80847790D01*
X104395238Y-80847790D02*
X104433333Y-80885885D01*
X104433333Y-80885885D02*
X104471428Y-80962076D01*
X104471428Y-80962076D02*
X104509523Y-81114457D01*
X104509523Y-81114457D02*
X104509523Y-81304933D01*
X104509523Y-81304933D02*
X104471428Y-81457314D01*
X104471428Y-81457314D02*
X104433333Y-81533504D01*
X104433333Y-81533504D02*
X104395238Y-81571600D01*
X104395238Y-81571600D02*
X104319047Y-81609695D01*
X104319047Y-81609695D02*
X104242857Y-81609695D01*
X104242857Y-81609695D02*
X104166666Y-81571600D01*
X104166666Y-81571600D02*
X104128571Y-81533504D01*
X104128571Y-81533504D02*
X104090476Y-81457314D01*
X104090476Y-81457314D02*
X104052380Y-81304933D01*
X104052380Y-81304933D02*
X104052380Y-81114457D01*
X104052380Y-81114457D02*
X104090476Y-80962076D01*
X104090476Y-80962076D02*
X104128571Y-80885885D01*
X104128571Y-80885885D02*
X104166666Y-80847790D01*
X104166666Y-80847790D02*
X104242857Y-80809695D01*
X90759524Y-93309695D02*
X90759524Y-93957314D01*
X90759524Y-93957314D02*
X90797619Y-94033504D01*
X90797619Y-94033504D02*
X90835714Y-94071600D01*
X90835714Y-94071600D02*
X90911905Y-94109695D01*
X90911905Y-94109695D02*
X91064286Y-94109695D01*
X91064286Y-94109695D02*
X91140476Y-94071600D01*
X91140476Y-94071600D02*
X91178571Y-94033504D01*
X91178571Y-94033504D02*
X91216667Y-93957314D01*
X91216667Y-93957314D02*
X91216667Y-93309695D01*
X92016666Y-94109695D02*
X91559523Y-94109695D01*
X91788095Y-94109695D02*
X91788095Y-93309695D01*
X91788095Y-93309695D02*
X91711904Y-93423980D01*
X91711904Y-93423980D02*
X91635714Y-93500171D01*
X91635714Y-93500171D02*
X91559523Y-93538266D01*
X92321428Y-93385885D02*
X92359524Y-93347790D01*
X92359524Y-93347790D02*
X92435714Y-93309695D01*
X92435714Y-93309695D02*
X92626190Y-93309695D01*
X92626190Y-93309695D02*
X92702381Y-93347790D01*
X92702381Y-93347790D02*
X92740476Y-93385885D01*
X92740476Y-93385885D02*
X92778571Y-93462076D01*
X92778571Y-93462076D02*
X92778571Y-93538266D01*
X92778571Y-93538266D02*
X92740476Y-93652552D01*
X92740476Y-93652552D02*
X92283333Y-94109695D01*
X92283333Y-94109695D02*
X92778571Y-94109695D01*
X146583333Y-84990647D02*
X146316667Y-84990647D01*
X146316667Y-85409695D02*
X146316667Y-84609695D01*
X146316667Y-84609695D02*
X146697619Y-84609695D01*
X147269047Y-84990647D02*
X147383333Y-85028742D01*
X147383333Y-85028742D02*
X147421428Y-85066838D01*
X147421428Y-85066838D02*
X147459524Y-85143028D01*
X147459524Y-85143028D02*
X147459524Y-85257314D01*
X147459524Y-85257314D02*
X147421428Y-85333504D01*
X147421428Y-85333504D02*
X147383333Y-85371600D01*
X147383333Y-85371600D02*
X147307143Y-85409695D01*
X147307143Y-85409695D02*
X147002381Y-85409695D01*
X147002381Y-85409695D02*
X147002381Y-84609695D01*
X147002381Y-84609695D02*
X147269047Y-84609695D01*
X147269047Y-84609695D02*
X147345238Y-84647790D01*
X147345238Y-84647790D02*
X147383333Y-84685885D01*
X147383333Y-84685885D02*
X147421428Y-84762076D01*
X147421428Y-84762076D02*
X147421428Y-84838266D01*
X147421428Y-84838266D02*
X147383333Y-84914457D01*
X147383333Y-84914457D02*
X147345238Y-84952552D01*
X147345238Y-84952552D02*
X147269047Y-84990647D01*
X147269047Y-84990647D02*
X147002381Y-84990647D01*
X148183333Y-84609695D02*
X147802381Y-84609695D01*
X147802381Y-84609695D02*
X147764285Y-84990647D01*
X147764285Y-84990647D02*
X147802381Y-84952552D01*
X147802381Y-84952552D02*
X147878571Y-84914457D01*
X147878571Y-84914457D02*
X148069047Y-84914457D01*
X148069047Y-84914457D02*
X148145238Y-84952552D01*
X148145238Y-84952552D02*
X148183333Y-84990647D01*
X148183333Y-84990647D02*
X148221428Y-85066838D01*
X148221428Y-85066838D02*
X148221428Y-85257314D01*
X148221428Y-85257314D02*
X148183333Y-85333504D01*
X148183333Y-85333504D02*
X148145238Y-85371600D01*
X148145238Y-85371600D02*
X148069047Y-85409695D01*
X148069047Y-85409695D02*
X147878571Y-85409695D01*
X147878571Y-85409695D02*
X147802381Y-85371600D01*
X147802381Y-85371600D02*
X147764285Y-85333504D01*
X121235714Y-94359695D02*
X120969047Y-93978742D01*
X120778571Y-94359695D02*
X120778571Y-93559695D01*
X120778571Y-93559695D02*
X121083333Y-93559695D01*
X121083333Y-93559695D02*
X121159523Y-93597790D01*
X121159523Y-93597790D02*
X121197618Y-93635885D01*
X121197618Y-93635885D02*
X121235714Y-93712076D01*
X121235714Y-93712076D02*
X121235714Y-93826361D01*
X121235714Y-93826361D02*
X121197618Y-93902552D01*
X121197618Y-93902552D02*
X121159523Y-93940647D01*
X121159523Y-93940647D02*
X121083333Y-93978742D01*
X121083333Y-93978742D02*
X120778571Y-93978742D01*
X121997618Y-94359695D02*
X121540475Y-94359695D01*
X121769047Y-94359695D02*
X121769047Y-93559695D01*
X121769047Y-93559695D02*
X121692856Y-93673980D01*
X121692856Y-93673980D02*
X121616666Y-93750171D01*
X121616666Y-93750171D02*
X121540475Y-93788266D01*
X122264285Y-93559695D02*
X122797619Y-93559695D01*
X122797619Y-93559695D02*
X122454761Y-94359695D01*
X144366667Y-90359695D02*
X144100000Y-89978742D01*
X143909524Y-90359695D02*
X143909524Y-89559695D01*
X143909524Y-89559695D02*
X144214286Y-89559695D01*
X144214286Y-89559695D02*
X144290476Y-89597790D01*
X144290476Y-89597790D02*
X144328571Y-89635885D01*
X144328571Y-89635885D02*
X144366667Y-89712076D01*
X144366667Y-89712076D02*
X144366667Y-89826361D01*
X144366667Y-89826361D02*
X144328571Y-89902552D01*
X144328571Y-89902552D02*
X144290476Y-89940647D01*
X144290476Y-89940647D02*
X144214286Y-89978742D01*
X144214286Y-89978742D02*
X143909524Y-89978742D01*
X144633333Y-89559695D02*
X145128571Y-89559695D01*
X145128571Y-89559695D02*
X144861905Y-89864457D01*
X144861905Y-89864457D02*
X144976190Y-89864457D01*
X144976190Y-89864457D02*
X145052381Y-89902552D01*
X145052381Y-89902552D02*
X145090476Y-89940647D01*
X145090476Y-89940647D02*
X145128571Y-90016838D01*
X145128571Y-90016838D02*
X145128571Y-90207314D01*
X145128571Y-90207314D02*
X145090476Y-90283504D01*
X145090476Y-90283504D02*
X145052381Y-90321600D01*
X145052381Y-90321600D02*
X144976190Y-90359695D01*
X144976190Y-90359695D02*
X144747619Y-90359695D01*
X144747619Y-90359695D02*
X144671428Y-90321600D01*
X144671428Y-90321600D02*
X144633333Y-90283504D01*
X151235714Y-80033504D02*
X151197618Y-80071600D01*
X151197618Y-80071600D02*
X151083333Y-80109695D01*
X151083333Y-80109695D02*
X151007142Y-80109695D01*
X151007142Y-80109695D02*
X150892856Y-80071600D01*
X150892856Y-80071600D02*
X150816666Y-79995409D01*
X150816666Y-79995409D02*
X150778571Y-79919219D01*
X150778571Y-79919219D02*
X150740475Y-79766838D01*
X150740475Y-79766838D02*
X150740475Y-79652552D01*
X150740475Y-79652552D02*
X150778571Y-79500171D01*
X150778571Y-79500171D02*
X150816666Y-79423980D01*
X150816666Y-79423980D02*
X150892856Y-79347790D01*
X150892856Y-79347790D02*
X151007142Y-79309695D01*
X151007142Y-79309695D02*
X151083333Y-79309695D01*
X151083333Y-79309695D02*
X151197618Y-79347790D01*
X151197618Y-79347790D02*
X151235714Y-79385885D01*
X151502380Y-79309695D02*
X151997618Y-79309695D01*
X151997618Y-79309695D02*
X151730952Y-79614457D01*
X151730952Y-79614457D02*
X151845237Y-79614457D01*
X151845237Y-79614457D02*
X151921428Y-79652552D01*
X151921428Y-79652552D02*
X151959523Y-79690647D01*
X151959523Y-79690647D02*
X151997618Y-79766838D01*
X151997618Y-79766838D02*
X151997618Y-79957314D01*
X151997618Y-79957314D02*
X151959523Y-80033504D01*
X151959523Y-80033504D02*
X151921428Y-80071600D01*
X151921428Y-80071600D02*
X151845237Y-80109695D01*
X151845237Y-80109695D02*
X151616666Y-80109695D01*
X151616666Y-80109695D02*
X151540475Y-80071600D01*
X151540475Y-80071600D02*
X151502380Y-80033504D01*
X152264285Y-79309695D02*
X152797619Y-79309695D01*
X152797619Y-79309695D02*
X152454761Y-80109695D01*
X116235714Y-65859695D02*
X115969047Y-65478742D01*
X115778571Y-65859695D02*
X115778571Y-65059695D01*
X115778571Y-65059695D02*
X116083333Y-65059695D01*
X116083333Y-65059695D02*
X116159523Y-65097790D01*
X116159523Y-65097790D02*
X116197618Y-65135885D01*
X116197618Y-65135885D02*
X116235714Y-65212076D01*
X116235714Y-65212076D02*
X116235714Y-65326361D01*
X116235714Y-65326361D02*
X116197618Y-65402552D01*
X116197618Y-65402552D02*
X116159523Y-65440647D01*
X116159523Y-65440647D02*
X116083333Y-65478742D01*
X116083333Y-65478742D02*
X115778571Y-65478742D01*
X116502380Y-65059695D02*
X116997618Y-65059695D01*
X116997618Y-65059695D02*
X116730952Y-65364457D01*
X116730952Y-65364457D02*
X116845237Y-65364457D01*
X116845237Y-65364457D02*
X116921428Y-65402552D01*
X116921428Y-65402552D02*
X116959523Y-65440647D01*
X116959523Y-65440647D02*
X116997618Y-65516838D01*
X116997618Y-65516838D02*
X116997618Y-65707314D01*
X116997618Y-65707314D02*
X116959523Y-65783504D01*
X116959523Y-65783504D02*
X116921428Y-65821600D01*
X116921428Y-65821600D02*
X116845237Y-65859695D01*
X116845237Y-65859695D02*
X116616666Y-65859695D01*
X116616666Y-65859695D02*
X116540475Y-65821600D01*
X116540475Y-65821600D02*
X116502380Y-65783504D01*
X117492857Y-65059695D02*
X117569047Y-65059695D01*
X117569047Y-65059695D02*
X117645238Y-65097790D01*
X117645238Y-65097790D02*
X117683333Y-65135885D01*
X117683333Y-65135885D02*
X117721428Y-65212076D01*
X117721428Y-65212076D02*
X117759523Y-65364457D01*
X117759523Y-65364457D02*
X117759523Y-65554933D01*
X117759523Y-65554933D02*
X117721428Y-65707314D01*
X117721428Y-65707314D02*
X117683333Y-65783504D01*
X117683333Y-65783504D02*
X117645238Y-65821600D01*
X117645238Y-65821600D02*
X117569047Y-65859695D01*
X117569047Y-65859695D02*
X117492857Y-65859695D01*
X117492857Y-65859695D02*
X117416666Y-65821600D01*
X117416666Y-65821600D02*
X117378571Y-65783504D01*
X117378571Y-65783504D02*
X117340476Y-65707314D01*
X117340476Y-65707314D02*
X117302380Y-65554933D01*
X117302380Y-65554933D02*
X117302380Y-65364457D01*
X117302380Y-65364457D02*
X117340476Y-65212076D01*
X117340476Y-65212076D02*
X117378571Y-65135885D01*
X117378571Y-65135885D02*
X117416666Y-65097790D01*
X117416666Y-65097790D02*
X117492857Y-65059695D01*
X148528571Y-116859695D02*
X148528571Y-116059695D01*
X148528571Y-116059695D02*
X148719047Y-116059695D01*
X148719047Y-116059695D02*
X148833333Y-116097790D01*
X148833333Y-116097790D02*
X148909523Y-116173980D01*
X148909523Y-116173980D02*
X148947618Y-116250171D01*
X148947618Y-116250171D02*
X148985714Y-116402552D01*
X148985714Y-116402552D02*
X148985714Y-116516838D01*
X148985714Y-116516838D02*
X148947618Y-116669219D01*
X148947618Y-116669219D02*
X148909523Y-116745409D01*
X148909523Y-116745409D02*
X148833333Y-116821600D01*
X148833333Y-116821600D02*
X148719047Y-116859695D01*
X148719047Y-116859695D02*
X148528571Y-116859695D01*
X149747618Y-116859695D02*
X149290475Y-116859695D01*
X149519047Y-116859695D02*
X149519047Y-116059695D01*
X149519047Y-116059695D02*
X149442856Y-116173980D01*
X149442856Y-116173980D02*
X149366666Y-116250171D01*
X149366666Y-116250171D02*
X149290475Y-116288266D01*
X150509523Y-116859695D02*
X150052380Y-116859695D01*
X150280952Y-116859695D02*
X150280952Y-116059695D01*
X150280952Y-116059695D02*
X150204761Y-116173980D01*
X150204761Y-116173980D02*
X150128571Y-116250171D01*
X150128571Y-116250171D02*
X150052380Y-116288266D01*
X142859695Y-68514285D02*
X142478742Y-68780952D01*
X142859695Y-68971428D02*
X142059695Y-68971428D01*
X142059695Y-68971428D02*
X142059695Y-68666666D01*
X142059695Y-68666666D02*
X142097790Y-68590476D01*
X142097790Y-68590476D02*
X142135885Y-68552381D01*
X142135885Y-68552381D02*
X142212076Y-68514285D01*
X142212076Y-68514285D02*
X142326361Y-68514285D01*
X142326361Y-68514285D02*
X142402552Y-68552381D01*
X142402552Y-68552381D02*
X142440647Y-68590476D01*
X142440647Y-68590476D02*
X142478742Y-68666666D01*
X142478742Y-68666666D02*
X142478742Y-68971428D01*
X142059695Y-68247619D02*
X142059695Y-67752381D01*
X142059695Y-67752381D02*
X142364457Y-68019047D01*
X142364457Y-68019047D02*
X142364457Y-67904762D01*
X142364457Y-67904762D02*
X142402552Y-67828571D01*
X142402552Y-67828571D02*
X142440647Y-67790476D01*
X142440647Y-67790476D02*
X142516838Y-67752381D01*
X142516838Y-67752381D02*
X142707314Y-67752381D01*
X142707314Y-67752381D02*
X142783504Y-67790476D01*
X142783504Y-67790476D02*
X142821600Y-67828571D01*
X142821600Y-67828571D02*
X142859695Y-67904762D01*
X142859695Y-67904762D02*
X142859695Y-68133333D01*
X142859695Y-68133333D02*
X142821600Y-68209524D01*
X142821600Y-68209524D02*
X142783504Y-68247619D01*
X142059695Y-67028571D02*
X142059695Y-67409523D01*
X142059695Y-67409523D02*
X142440647Y-67447619D01*
X142440647Y-67447619D02*
X142402552Y-67409523D01*
X142402552Y-67409523D02*
X142364457Y-67333333D01*
X142364457Y-67333333D02*
X142364457Y-67142857D01*
X142364457Y-67142857D02*
X142402552Y-67066666D01*
X142402552Y-67066666D02*
X142440647Y-67028571D01*
X142440647Y-67028571D02*
X142516838Y-66990476D01*
X142516838Y-66990476D02*
X142707314Y-66990476D01*
X142707314Y-66990476D02*
X142783504Y-67028571D01*
X142783504Y-67028571D02*
X142821600Y-67066666D01*
X142821600Y-67066666D02*
X142859695Y-67142857D01*
X142859695Y-67142857D02*
X142859695Y-67333333D01*
X142859695Y-67333333D02*
X142821600Y-67409523D01*
X142821600Y-67409523D02*
X142783504Y-67447619D01*
X82366667Y-128133504D02*
X82328571Y-128171600D01*
X82328571Y-128171600D02*
X82214286Y-128209695D01*
X82214286Y-128209695D02*
X82138095Y-128209695D01*
X82138095Y-128209695D02*
X82023809Y-128171600D01*
X82023809Y-128171600D02*
X81947619Y-128095409D01*
X81947619Y-128095409D02*
X81909524Y-128019219D01*
X81909524Y-128019219D02*
X81871428Y-127866838D01*
X81871428Y-127866838D02*
X81871428Y-127752552D01*
X81871428Y-127752552D02*
X81909524Y-127600171D01*
X81909524Y-127600171D02*
X81947619Y-127523980D01*
X81947619Y-127523980D02*
X82023809Y-127447790D01*
X82023809Y-127447790D02*
X82138095Y-127409695D01*
X82138095Y-127409695D02*
X82214286Y-127409695D01*
X82214286Y-127409695D02*
X82328571Y-127447790D01*
X82328571Y-127447790D02*
X82366667Y-127485885D01*
X83090476Y-127409695D02*
X82709524Y-127409695D01*
X82709524Y-127409695D02*
X82671428Y-127790647D01*
X82671428Y-127790647D02*
X82709524Y-127752552D01*
X82709524Y-127752552D02*
X82785714Y-127714457D01*
X82785714Y-127714457D02*
X82976190Y-127714457D01*
X82976190Y-127714457D02*
X83052381Y-127752552D01*
X83052381Y-127752552D02*
X83090476Y-127790647D01*
X83090476Y-127790647D02*
X83128571Y-127866838D01*
X83128571Y-127866838D02*
X83128571Y-128057314D01*
X83128571Y-128057314D02*
X83090476Y-128133504D01*
X83090476Y-128133504D02*
X83052381Y-128171600D01*
X83052381Y-128171600D02*
X82976190Y-128209695D01*
X82976190Y-128209695D02*
X82785714Y-128209695D01*
X82785714Y-128209695D02*
X82709524Y-128171600D01*
X82709524Y-128171600D02*
X82671428Y-128133504D01*
X132890476Y-80559695D02*
X132890476Y-81207314D01*
X132890476Y-81207314D02*
X132928571Y-81283504D01*
X132928571Y-81283504D02*
X132966666Y-81321600D01*
X132966666Y-81321600D02*
X133042857Y-81359695D01*
X133042857Y-81359695D02*
X133195238Y-81359695D01*
X133195238Y-81359695D02*
X133271428Y-81321600D01*
X133271428Y-81321600D02*
X133309523Y-81283504D01*
X133309523Y-81283504D02*
X133347619Y-81207314D01*
X133347619Y-81207314D02*
X133347619Y-80559695D01*
X133652380Y-80559695D02*
X134147618Y-80559695D01*
X134147618Y-80559695D02*
X133880952Y-80864457D01*
X133880952Y-80864457D02*
X133995237Y-80864457D01*
X133995237Y-80864457D02*
X134071428Y-80902552D01*
X134071428Y-80902552D02*
X134109523Y-80940647D01*
X134109523Y-80940647D02*
X134147618Y-81016838D01*
X134147618Y-81016838D02*
X134147618Y-81207314D01*
X134147618Y-81207314D02*
X134109523Y-81283504D01*
X134109523Y-81283504D02*
X134071428Y-81321600D01*
X134071428Y-81321600D02*
X133995237Y-81359695D01*
X133995237Y-81359695D02*
X133766666Y-81359695D01*
X133766666Y-81359695D02*
X133690475Y-81321600D01*
X133690475Y-81321600D02*
X133652380Y-81283504D01*
X143985714Y-59283504D02*
X143947618Y-59321600D01*
X143947618Y-59321600D02*
X143833333Y-59359695D01*
X143833333Y-59359695D02*
X143757142Y-59359695D01*
X143757142Y-59359695D02*
X143642856Y-59321600D01*
X143642856Y-59321600D02*
X143566666Y-59245409D01*
X143566666Y-59245409D02*
X143528571Y-59169219D01*
X143528571Y-59169219D02*
X143490475Y-59016838D01*
X143490475Y-59016838D02*
X143490475Y-58902552D01*
X143490475Y-58902552D02*
X143528571Y-58750171D01*
X143528571Y-58750171D02*
X143566666Y-58673980D01*
X143566666Y-58673980D02*
X143642856Y-58597790D01*
X143642856Y-58597790D02*
X143757142Y-58559695D01*
X143757142Y-58559695D02*
X143833333Y-58559695D01*
X143833333Y-58559695D02*
X143947618Y-58597790D01*
X143947618Y-58597790D02*
X143985714Y-58635885D01*
X144252380Y-58559695D02*
X144747618Y-58559695D01*
X144747618Y-58559695D02*
X144480952Y-58864457D01*
X144480952Y-58864457D02*
X144595237Y-58864457D01*
X144595237Y-58864457D02*
X144671428Y-58902552D01*
X144671428Y-58902552D02*
X144709523Y-58940647D01*
X144709523Y-58940647D02*
X144747618Y-59016838D01*
X144747618Y-59016838D02*
X144747618Y-59207314D01*
X144747618Y-59207314D02*
X144709523Y-59283504D01*
X144709523Y-59283504D02*
X144671428Y-59321600D01*
X144671428Y-59321600D02*
X144595237Y-59359695D01*
X144595237Y-59359695D02*
X144366666Y-59359695D01*
X144366666Y-59359695D02*
X144290475Y-59321600D01*
X144290475Y-59321600D02*
X144252380Y-59283504D01*
X145433333Y-58826361D02*
X145433333Y-59359695D01*
X145242857Y-58521600D02*
X145052380Y-59093028D01*
X145052380Y-59093028D02*
X145547619Y-59093028D01*
X145985714Y-110359695D02*
X145719047Y-109978742D01*
X145528571Y-110359695D02*
X145528571Y-109559695D01*
X145528571Y-109559695D02*
X145833333Y-109559695D01*
X145833333Y-109559695D02*
X145909523Y-109597790D01*
X145909523Y-109597790D02*
X145947618Y-109635885D01*
X145947618Y-109635885D02*
X145985714Y-109712076D01*
X145985714Y-109712076D02*
X145985714Y-109826361D01*
X145985714Y-109826361D02*
X145947618Y-109902552D01*
X145947618Y-109902552D02*
X145909523Y-109940647D01*
X145909523Y-109940647D02*
X145833333Y-109978742D01*
X145833333Y-109978742D02*
X145528571Y-109978742D01*
X146290475Y-109635885D02*
X146328571Y-109597790D01*
X146328571Y-109597790D02*
X146404761Y-109559695D01*
X146404761Y-109559695D02*
X146595237Y-109559695D01*
X146595237Y-109559695D02*
X146671428Y-109597790D01*
X146671428Y-109597790D02*
X146709523Y-109635885D01*
X146709523Y-109635885D02*
X146747618Y-109712076D01*
X146747618Y-109712076D02*
X146747618Y-109788266D01*
X146747618Y-109788266D02*
X146709523Y-109902552D01*
X146709523Y-109902552D02*
X146252380Y-110359695D01*
X146252380Y-110359695D02*
X146747618Y-110359695D01*
X147052380Y-109635885D02*
X147090476Y-109597790D01*
X147090476Y-109597790D02*
X147166666Y-109559695D01*
X147166666Y-109559695D02*
X147357142Y-109559695D01*
X147357142Y-109559695D02*
X147433333Y-109597790D01*
X147433333Y-109597790D02*
X147471428Y-109635885D01*
X147471428Y-109635885D02*
X147509523Y-109712076D01*
X147509523Y-109712076D02*
X147509523Y-109788266D01*
X147509523Y-109788266D02*
X147471428Y-109902552D01*
X147471428Y-109902552D02*
X147014285Y-110359695D01*
X147014285Y-110359695D02*
X147509523Y-110359695D01*
X109485714Y-103783504D02*
X109447618Y-103821600D01*
X109447618Y-103821600D02*
X109333333Y-103859695D01*
X109333333Y-103859695D02*
X109257142Y-103859695D01*
X109257142Y-103859695D02*
X109142856Y-103821600D01*
X109142856Y-103821600D02*
X109066666Y-103745409D01*
X109066666Y-103745409D02*
X109028571Y-103669219D01*
X109028571Y-103669219D02*
X108990475Y-103516838D01*
X108990475Y-103516838D02*
X108990475Y-103402552D01*
X108990475Y-103402552D02*
X109028571Y-103250171D01*
X109028571Y-103250171D02*
X109066666Y-103173980D01*
X109066666Y-103173980D02*
X109142856Y-103097790D01*
X109142856Y-103097790D02*
X109257142Y-103059695D01*
X109257142Y-103059695D02*
X109333333Y-103059695D01*
X109333333Y-103059695D02*
X109447618Y-103097790D01*
X109447618Y-103097790D02*
X109485714Y-103135885D01*
X109790475Y-103135885D02*
X109828571Y-103097790D01*
X109828571Y-103097790D02*
X109904761Y-103059695D01*
X109904761Y-103059695D02*
X110095237Y-103059695D01*
X110095237Y-103059695D02*
X110171428Y-103097790D01*
X110171428Y-103097790D02*
X110209523Y-103135885D01*
X110209523Y-103135885D02*
X110247618Y-103212076D01*
X110247618Y-103212076D02*
X110247618Y-103288266D01*
X110247618Y-103288266D02*
X110209523Y-103402552D01*
X110209523Y-103402552D02*
X109752380Y-103859695D01*
X109752380Y-103859695D02*
X110247618Y-103859695D01*
X110514285Y-103059695D02*
X111009523Y-103059695D01*
X111009523Y-103059695D02*
X110742857Y-103364457D01*
X110742857Y-103364457D02*
X110857142Y-103364457D01*
X110857142Y-103364457D02*
X110933333Y-103402552D01*
X110933333Y-103402552D02*
X110971428Y-103440647D01*
X110971428Y-103440647D02*
X111009523Y-103516838D01*
X111009523Y-103516838D02*
X111009523Y-103707314D01*
X111009523Y-103707314D02*
X110971428Y-103783504D01*
X110971428Y-103783504D02*
X110933333Y-103821600D01*
X110933333Y-103821600D02*
X110857142Y-103859695D01*
X110857142Y-103859695D02*
X110628571Y-103859695D01*
X110628571Y-103859695D02*
X110552380Y-103821600D01*
X110552380Y-103821600D02*
X110514285Y-103783504D01*
X121083333Y-74190647D02*
X120816667Y-74190647D01*
X120816667Y-74609695D02*
X120816667Y-73809695D01*
X120816667Y-73809695D02*
X121197619Y-73809695D01*
X121769047Y-74190647D02*
X121883333Y-74228742D01*
X121883333Y-74228742D02*
X121921428Y-74266838D01*
X121921428Y-74266838D02*
X121959524Y-74343028D01*
X121959524Y-74343028D02*
X121959524Y-74457314D01*
X121959524Y-74457314D02*
X121921428Y-74533504D01*
X121921428Y-74533504D02*
X121883333Y-74571600D01*
X121883333Y-74571600D02*
X121807143Y-74609695D01*
X121807143Y-74609695D02*
X121502381Y-74609695D01*
X121502381Y-74609695D02*
X121502381Y-73809695D01*
X121502381Y-73809695D02*
X121769047Y-73809695D01*
X121769047Y-73809695D02*
X121845238Y-73847790D01*
X121845238Y-73847790D02*
X121883333Y-73885885D01*
X121883333Y-73885885D02*
X121921428Y-73962076D01*
X121921428Y-73962076D02*
X121921428Y-74038266D01*
X121921428Y-74038266D02*
X121883333Y-74114457D01*
X121883333Y-74114457D02*
X121845238Y-74152552D01*
X121845238Y-74152552D02*
X121769047Y-74190647D01*
X121769047Y-74190647D02*
X121502381Y-74190647D01*
X122645238Y-74076361D02*
X122645238Y-74609695D01*
X122454762Y-73771600D02*
X122264285Y-74343028D01*
X122264285Y-74343028D02*
X122759524Y-74343028D01*
X143985714Y-64963504D02*
X143947618Y-65001600D01*
X143947618Y-65001600D02*
X143833333Y-65039695D01*
X143833333Y-65039695D02*
X143757142Y-65039695D01*
X143757142Y-65039695D02*
X143642856Y-65001600D01*
X143642856Y-65001600D02*
X143566666Y-64925409D01*
X143566666Y-64925409D02*
X143528571Y-64849219D01*
X143528571Y-64849219D02*
X143490475Y-64696838D01*
X143490475Y-64696838D02*
X143490475Y-64582552D01*
X143490475Y-64582552D02*
X143528571Y-64430171D01*
X143528571Y-64430171D02*
X143566666Y-64353980D01*
X143566666Y-64353980D02*
X143642856Y-64277790D01*
X143642856Y-64277790D02*
X143757142Y-64239695D01*
X143757142Y-64239695D02*
X143833333Y-64239695D01*
X143833333Y-64239695D02*
X143947618Y-64277790D01*
X143947618Y-64277790D02*
X143985714Y-64315885D01*
X144252380Y-64239695D02*
X144747618Y-64239695D01*
X144747618Y-64239695D02*
X144480952Y-64544457D01*
X144480952Y-64544457D02*
X144595237Y-64544457D01*
X144595237Y-64544457D02*
X144671428Y-64582552D01*
X144671428Y-64582552D02*
X144709523Y-64620647D01*
X144709523Y-64620647D02*
X144747618Y-64696838D01*
X144747618Y-64696838D02*
X144747618Y-64887314D01*
X144747618Y-64887314D02*
X144709523Y-64963504D01*
X144709523Y-64963504D02*
X144671428Y-65001600D01*
X144671428Y-65001600D02*
X144595237Y-65039695D01*
X144595237Y-65039695D02*
X144366666Y-65039695D01*
X144366666Y-65039695D02*
X144290475Y-65001600D01*
X144290475Y-65001600D02*
X144252380Y-64963504D01*
X145471428Y-64239695D02*
X145090476Y-64239695D01*
X145090476Y-64239695D02*
X145052380Y-64620647D01*
X145052380Y-64620647D02*
X145090476Y-64582552D01*
X145090476Y-64582552D02*
X145166666Y-64544457D01*
X145166666Y-64544457D02*
X145357142Y-64544457D01*
X145357142Y-64544457D02*
X145433333Y-64582552D01*
X145433333Y-64582552D02*
X145471428Y-64620647D01*
X145471428Y-64620647D02*
X145509523Y-64696838D01*
X145509523Y-64696838D02*
X145509523Y-64887314D01*
X145509523Y-64887314D02*
X145471428Y-64963504D01*
X145471428Y-64963504D02*
X145433333Y-65001600D01*
X145433333Y-65001600D02*
X145357142Y-65039695D01*
X145357142Y-65039695D02*
X145166666Y-65039695D01*
X145166666Y-65039695D02*
X145090476Y-65001600D01*
X145090476Y-65001600D02*
X145052380Y-64963504D01*
X148159524Y-123609695D02*
X148159524Y-122809695D01*
X148159524Y-122809695D02*
X148350000Y-122809695D01*
X148350000Y-122809695D02*
X148464286Y-122847790D01*
X148464286Y-122847790D02*
X148540476Y-122923980D01*
X148540476Y-122923980D02*
X148578571Y-123000171D01*
X148578571Y-123000171D02*
X148616667Y-123152552D01*
X148616667Y-123152552D02*
X148616667Y-123266838D01*
X148616667Y-123266838D02*
X148578571Y-123419219D01*
X148578571Y-123419219D02*
X148540476Y-123495409D01*
X148540476Y-123495409D02*
X148464286Y-123571600D01*
X148464286Y-123571600D02*
X148350000Y-123609695D01*
X148350000Y-123609695D02*
X148159524Y-123609695D01*
X148883333Y-122809695D02*
X149378571Y-122809695D01*
X149378571Y-122809695D02*
X149111905Y-123114457D01*
X149111905Y-123114457D02*
X149226190Y-123114457D01*
X149226190Y-123114457D02*
X149302381Y-123152552D01*
X149302381Y-123152552D02*
X149340476Y-123190647D01*
X149340476Y-123190647D02*
X149378571Y-123266838D01*
X149378571Y-123266838D02*
X149378571Y-123457314D01*
X149378571Y-123457314D02*
X149340476Y-123533504D01*
X149340476Y-123533504D02*
X149302381Y-123571600D01*
X149302381Y-123571600D02*
X149226190Y-123609695D01*
X149226190Y-123609695D02*
X148997619Y-123609695D01*
X148997619Y-123609695D02*
X148921428Y-123571600D01*
X148921428Y-123571600D02*
X148883333Y-123533504D01*
X146485714Y-65609695D02*
X146219047Y-65228742D01*
X146028571Y-65609695D02*
X146028571Y-64809695D01*
X146028571Y-64809695D02*
X146333333Y-64809695D01*
X146333333Y-64809695D02*
X146409523Y-64847790D01*
X146409523Y-64847790D02*
X146447618Y-64885885D01*
X146447618Y-64885885D02*
X146485714Y-64962076D01*
X146485714Y-64962076D02*
X146485714Y-65076361D01*
X146485714Y-65076361D02*
X146447618Y-65152552D01*
X146447618Y-65152552D02*
X146409523Y-65190647D01*
X146409523Y-65190647D02*
X146333333Y-65228742D01*
X146333333Y-65228742D02*
X146028571Y-65228742D01*
X146752380Y-64809695D02*
X147247618Y-64809695D01*
X147247618Y-64809695D02*
X146980952Y-65114457D01*
X146980952Y-65114457D02*
X147095237Y-65114457D01*
X147095237Y-65114457D02*
X147171428Y-65152552D01*
X147171428Y-65152552D02*
X147209523Y-65190647D01*
X147209523Y-65190647D02*
X147247618Y-65266838D01*
X147247618Y-65266838D02*
X147247618Y-65457314D01*
X147247618Y-65457314D02*
X147209523Y-65533504D01*
X147209523Y-65533504D02*
X147171428Y-65571600D01*
X147171428Y-65571600D02*
X147095237Y-65609695D01*
X147095237Y-65609695D02*
X146866666Y-65609695D01*
X146866666Y-65609695D02*
X146790475Y-65571600D01*
X146790475Y-65571600D02*
X146752380Y-65533504D01*
X147933333Y-65076361D02*
X147933333Y-65609695D01*
X147742857Y-64771600D02*
X147552380Y-65343028D01*
X147552380Y-65343028D02*
X148047619Y-65343028D01*
X124235714Y-99109695D02*
X123969047Y-98728742D01*
X123778571Y-99109695D02*
X123778571Y-98309695D01*
X123778571Y-98309695D02*
X124083333Y-98309695D01*
X124083333Y-98309695D02*
X124159523Y-98347790D01*
X124159523Y-98347790D02*
X124197618Y-98385885D01*
X124197618Y-98385885D02*
X124235714Y-98462076D01*
X124235714Y-98462076D02*
X124235714Y-98576361D01*
X124235714Y-98576361D02*
X124197618Y-98652552D01*
X124197618Y-98652552D02*
X124159523Y-98690647D01*
X124159523Y-98690647D02*
X124083333Y-98728742D01*
X124083333Y-98728742D02*
X123778571Y-98728742D01*
X124540475Y-98385885D02*
X124578571Y-98347790D01*
X124578571Y-98347790D02*
X124654761Y-98309695D01*
X124654761Y-98309695D02*
X124845237Y-98309695D01*
X124845237Y-98309695D02*
X124921428Y-98347790D01*
X124921428Y-98347790D02*
X124959523Y-98385885D01*
X124959523Y-98385885D02*
X124997618Y-98462076D01*
X124997618Y-98462076D02*
X124997618Y-98538266D01*
X124997618Y-98538266D02*
X124959523Y-98652552D01*
X124959523Y-98652552D02*
X124502380Y-99109695D01*
X124502380Y-99109695D02*
X124997618Y-99109695D01*
X125721428Y-98309695D02*
X125340476Y-98309695D01*
X125340476Y-98309695D02*
X125302380Y-98690647D01*
X125302380Y-98690647D02*
X125340476Y-98652552D01*
X125340476Y-98652552D02*
X125416666Y-98614457D01*
X125416666Y-98614457D02*
X125607142Y-98614457D01*
X125607142Y-98614457D02*
X125683333Y-98652552D01*
X125683333Y-98652552D02*
X125721428Y-98690647D01*
X125721428Y-98690647D02*
X125759523Y-98766838D01*
X125759523Y-98766838D02*
X125759523Y-98957314D01*
X125759523Y-98957314D02*
X125721428Y-99033504D01*
X125721428Y-99033504D02*
X125683333Y-99071600D01*
X125683333Y-99071600D02*
X125607142Y-99109695D01*
X125607142Y-99109695D02*
X125416666Y-99109695D01*
X125416666Y-99109695D02*
X125340476Y-99071600D01*
X125340476Y-99071600D02*
X125302380Y-99033504D01*
X128485714Y-94033504D02*
X128447618Y-94071600D01*
X128447618Y-94071600D02*
X128333333Y-94109695D01*
X128333333Y-94109695D02*
X128257142Y-94109695D01*
X128257142Y-94109695D02*
X128142856Y-94071600D01*
X128142856Y-94071600D02*
X128066666Y-93995409D01*
X128066666Y-93995409D02*
X128028571Y-93919219D01*
X128028571Y-93919219D02*
X127990475Y-93766838D01*
X127990475Y-93766838D02*
X127990475Y-93652552D01*
X127990475Y-93652552D02*
X128028571Y-93500171D01*
X128028571Y-93500171D02*
X128066666Y-93423980D01*
X128066666Y-93423980D02*
X128142856Y-93347790D01*
X128142856Y-93347790D02*
X128257142Y-93309695D01*
X128257142Y-93309695D02*
X128333333Y-93309695D01*
X128333333Y-93309695D02*
X128447618Y-93347790D01*
X128447618Y-93347790D02*
X128485714Y-93385885D01*
X129247618Y-94109695D02*
X128790475Y-94109695D01*
X129019047Y-94109695D02*
X129019047Y-93309695D01*
X129019047Y-93309695D02*
X128942856Y-93423980D01*
X128942856Y-93423980D02*
X128866666Y-93500171D01*
X128866666Y-93500171D02*
X128790475Y-93538266D01*
X129933333Y-93309695D02*
X129780952Y-93309695D01*
X129780952Y-93309695D02*
X129704761Y-93347790D01*
X129704761Y-93347790D02*
X129666666Y-93385885D01*
X129666666Y-93385885D02*
X129590476Y-93500171D01*
X129590476Y-93500171D02*
X129552380Y-93652552D01*
X129552380Y-93652552D02*
X129552380Y-93957314D01*
X129552380Y-93957314D02*
X129590476Y-94033504D01*
X129590476Y-94033504D02*
X129628571Y-94071600D01*
X129628571Y-94071600D02*
X129704761Y-94109695D01*
X129704761Y-94109695D02*
X129857142Y-94109695D01*
X129857142Y-94109695D02*
X129933333Y-94071600D01*
X129933333Y-94071600D02*
X129971428Y-94033504D01*
X129971428Y-94033504D02*
X130009523Y-93957314D01*
X130009523Y-93957314D02*
X130009523Y-93766838D01*
X130009523Y-93766838D02*
X129971428Y-93690647D01*
X129971428Y-93690647D02*
X129933333Y-93652552D01*
X129933333Y-93652552D02*
X129857142Y-93614457D01*
X129857142Y-93614457D02*
X129704761Y-93614457D01*
X129704761Y-93614457D02*
X129628571Y-93652552D01*
X129628571Y-93652552D02*
X129590476Y-93690647D01*
X129590476Y-93690647D02*
X129552380Y-93766838D01*
X90890476Y-119309695D02*
X90890476Y-119957314D01*
X90890476Y-119957314D02*
X90928571Y-120033504D01*
X90928571Y-120033504D02*
X90966666Y-120071600D01*
X90966666Y-120071600D02*
X91042857Y-120109695D01*
X91042857Y-120109695D02*
X91195238Y-120109695D01*
X91195238Y-120109695D02*
X91271428Y-120071600D01*
X91271428Y-120071600D02*
X91309523Y-120033504D01*
X91309523Y-120033504D02*
X91347619Y-119957314D01*
X91347619Y-119957314D02*
X91347619Y-119309695D01*
X91690475Y-119385885D02*
X91728571Y-119347790D01*
X91728571Y-119347790D02*
X91804761Y-119309695D01*
X91804761Y-119309695D02*
X91995237Y-119309695D01*
X91995237Y-119309695D02*
X92071428Y-119347790D01*
X92071428Y-119347790D02*
X92109523Y-119385885D01*
X92109523Y-119385885D02*
X92147618Y-119462076D01*
X92147618Y-119462076D02*
X92147618Y-119538266D01*
X92147618Y-119538266D02*
X92109523Y-119652552D01*
X92109523Y-119652552D02*
X91652380Y-120109695D01*
X91652380Y-120109695D02*
X92147618Y-120109695D01*
X122116667Y-81609695D02*
X121850000Y-81228742D01*
X121659524Y-81609695D02*
X121659524Y-80809695D01*
X121659524Y-80809695D02*
X121964286Y-80809695D01*
X121964286Y-80809695D02*
X122040476Y-80847790D01*
X122040476Y-80847790D02*
X122078571Y-80885885D01*
X122078571Y-80885885D02*
X122116667Y-80962076D01*
X122116667Y-80962076D02*
X122116667Y-81076361D01*
X122116667Y-81076361D02*
X122078571Y-81152552D01*
X122078571Y-81152552D02*
X122040476Y-81190647D01*
X122040476Y-81190647D02*
X121964286Y-81228742D01*
X121964286Y-81228742D02*
X121659524Y-81228742D01*
X122802381Y-80809695D02*
X122650000Y-80809695D01*
X122650000Y-80809695D02*
X122573809Y-80847790D01*
X122573809Y-80847790D02*
X122535714Y-80885885D01*
X122535714Y-80885885D02*
X122459524Y-81000171D01*
X122459524Y-81000171D02*
X122421428Y-81152552D01*
X122421428Y-81152552D02*
X122421428Y-81457314D01*
X122421428Y-81457314D02*
X122459524Y-81533504D01*
X122459524Y-81533504D02*
X122497619Y-81571600D01*
X122497619Y-81571600D02*
X122573809Y-81609695D01*
X122573809Y-81609695D02*
X122726190Y-81609695D01*
X122726190Y-81609695D02*
X122802381Y-81571600D01*
X122802381Y-81571600D02*
X122840476Y-81533504D01*
X122840476Y-81533504D02*
X122878571Y-81457314D01*
X122878571Y-81457314D02*
X122878571Y-81266838D01*
X122878571Y-81266838D02*
X122840476Y-81190647D01*
X122840476Y-81190647D02*
X122802381Y-81152552D01*
X122802381Y-81152552D02*
X122726190Y-81114457D01*
X122726190Y-81114457D02*
X122573809Y-81114457D01*
X122573809Y-81114457D02*
X122497619Y-81152552D01*
X122497619Y-81152552D02*
X122459524Y-81190647D01*
X122459524Y-81190647D02*
X122421428Y-81266838D01*
X122116667Y-85859695D02*
X121850000Y-85478742D01*
X121659524Y-85859695D02*
X121659524Y-85059695D01*
X121659524Y-85059695D02*
X121964286Y-85059695D01*
X121964286Y-85059695D02*
X122040476Y-85097790D01*
X122040476Y-85097790D02*
X122078571Y-85135885D01*
X122078571Y-85135885D02*
X122116667Y-85212076D01*
X122116667Y-85212076D02*
X122116667Y-85326361D01*
X122116667Y-85326361D02*
X122078571Y-85402552D01*
X122078571Y-85402552D02*
X122040476Y-85440647D01*
X122040476Y-85440647D02*
X121964286Y-85478742D01*
X121964286Y-85478742D02*
X121659524Y-85478742D01*
X122383333Y-85059695D02*
X122916667Y-85059695D01*
X122916667Y-85059695D02*
X122573809Y-85859695D01*
X128235714Y-81283504D02*
X128197618Y-81321600D01*
X128197618Y-81321600D02*
X128083333Y-81359695D01*
X128083333Y-81359695D02*
X128007142Y-81359695D01*
X128007142Y-81359695D02*
X127892856Y-81321600D01*
X127892856Y-81321600D02*
X127816666Y-81245409D01*
X127816666Y-81245409D02*
X127778571Y-81169219D01*
X127778571Y-81169219D02*
X127740475Y-81016838D01*
X127740475Y-81016838D02*
X127740475Y-80902552D01*
X127740475Y-80902552D02*
X127778571Y-80750171D01*
X127778571Y-80750171D02*
X127816666Y-80673980D01*
X127816666Y-80673980D02*
X127892856Y-80597790D01*
X127892856Y-80597790D02*
X128007142Y-80559695D01*
X128007142Y-80559695D02*
X128083333Y-80559695D01*
X128083333Y-80559695D02*
X128197618Y-80597790D01*
X128197618Y-80597790D02*
X128235714Y-80635885D01*
X128997618Y-81359695D02*
X128540475Y-81359695D01*
X128769047Y-81359695D02*
X128769047Y-80559695D01*
X128769047Y-80559695D02*
X128692856Y-80673980D01*
X128692856Y-80673980D02*
X128616666Y-80750171D01*
X128616666Y-80750171D02*
X128540475Y-80788266D01*
X129759523Y-81359695D02*
X129302380Y-81359695D01*
X129530952Y-81359695D02*
X129530952Y-80559695D01*
X129530952Y-80559695D02*
X129454761Y-80673980D01*
X129454761Y-80673980D02*
X129378571Y-80750171D01*
X129378571Y-80750171D02*
X129302380Y-80788266D01*
X94783504Y-61014285D02*
X94821600Y-61052381D01*
X94821600Y-61052381D02*
X94859695Y-61166666D01*
X94859695Y-61166666D02*
X94859695Y-61242857D01*
X94859695Y-61242857D02*
X94821600Y-61357143D01*
X94821600Y-61357143D02*
X94745409Y-61433333D01*
X94745409Y-61433333D02*
X94669219Y-61471428D01*
X94669219Y-61471428D02*
X94516838Y-61509524D01*
X94516838Y-61509524D02*
X94402552Y-61509524D01*
X94402552Y-61509524D02*
X94250171Y-61471428D01*
X94250171Y-61471428D02*
X94173980Y-61433333D01*
X94173980Y-61433333D02*
X94097790Y-61357143D01*
X94097790Y-61357143D02*
X94059695Y-61242857D01*
X94059695Y-61242857D02*
X94059695Y-61166666D01*
X94059695Y-61166666D02*
X94097790Y-61052381D01*
X94097790Y-61052381D02*
X94135885Y-61014285D01*
X94859695Y-60252381D02*
X94859695Y-60709524D01*
X94859695Y-60480952D02*
X94059695Y-60480952D01*
X94059695Y-60480952D02*
X94173980Y-60557143D01*
X94173980Y-60557143D02*
X94250171Y-60633333D01*
X94250171Y-60633333D02*
X94288266Y-60709524D01*
X94859695Y-59871428D02*
X94859695Y-59719047D01*
X94859695Y-59719047D02*
X94821600Y-59642857D01*
X94821600Y-59642857D02*
X94783504Y-59604761D01*
X94783504Y-59604761D02*
X94669219Y-59528571D01*
X94669219Y-59528571D02*
X94516838Y-59490476D01*
X94516838Y-59490476D02*
X94212076Y-59490476D01*
X94212076Y-59490476D02*
X94135885Y-59528571D01*
X94135885Y-59528571D02*
X94097790Y-59566666D01*
X94097790Y-59566666D02*
X94059695Y-59642857D01*
X94059695Y-59642857D02*
X94059695Y-59795238D01*
X94059695Y-59795238D02*
X94097790Y-59871428D01*
X94097790Y-59871428D02*
X94135885Y-59909523D01*
X94135885Y-59909523D02*
X94212076Y-59947619D01*
X94212076Y-59947619D02*
X94402552Y-59947619D01*
X94402552Y-59947619D02*
X94478742Y-59909523D01*
X94478742Y-59909523D02*
X94516838Y-59871428D01*
X94516838Y-59871428D02*
X94554933Y-59795238D01*
X94554933Y-59795238D02*
X94554933Y-59642857D01*
X94554933Y-59642857D02*
X94516838Y-59566666D01*
X94516838Y-59566666D02*
X94478742Y-59528571D01*
X94478742Y-59528571D02*
X94402552Y-59490476D01*
X85116667Y-130533504D02*
X85078571Y-130571600D01*
X85078571Y-130571600D02*
X84964286Y-130609695D01*
X84964286Y-130609695D02*
X84888095Y-130609695D01*
X84888095Y-130609695D02*
X84773809Y-130571600D01*
X84773809Y-130571600D02*
X84697619Y-130495409D01*
X84697619Y-130495409D02*
X84659524Y-130419219D01*
X84659524Y-130419219D02*
X84621428Y-130266838D01*
X84621428Y-130266838D02*
X84621428Y-130152552D01*
X84621428Y-130152552D02*
X84659524Y-130000171D01*
X84659524Y-130000171D02*
X84697619Y-129923980D01*
X84697619Y-129923980D02*
X84773809Y-129847790D01*
X84773809Y-129847790D02*
X84888095Y-129809695D01*
X84888095Y-129809695D02*
X84964286Y-129809695D01*
X84964286Y-129809695D02*
X85078571Y-129847790D01*
X85078571Y-129847790D02*
X85116667Y-129885885D01*
X85802381Y-129809695D02*
X85650000Y-129809695D01*
X85650000Y-129809695D02*
X85573809Y-129847790D01*
X85573809Y-129847790D02*
X85535714Y-129885885D01*
X85535714Y-129885885D02*
X85459524Y-130000171D01*
X85459524Y-130000171D02*
X85421428Y-130152552D01*
X85421428Y-130152552D02*
X85421428Y-130457314D01*
X85421428Y-130457314D02*
X85459524Y-130533504D01*
X85459524Y-130533504D02*
X85497619Y-130571600D01*
X85497619Y-130571600D02*
X85573809Y-130609695D01*
X85573809Y-130609695D02*
X85726190Y-130609695D01*
X85726190Y-130609695D02*
X85802381Y-130571600D01*
X85802381Y-130571600D02*
X85840476Y-130533504D01*
X85840476Y-130533504D02*
X85878571Y-130457314D01*
X85878571Y-130457314D02*
X85878571Y-130266838D01*
X85878571Y-130266838D02*
X85840476Y-130190647D01*
X85840476Y-130190647D02*
X85802381Y-130152552D01*
X85802381Y-130152552D02*
X85726190Y-130114457D01*
X85726190Y-130114457D02*
X85573809Y-130114457D01*
X85573809Y-130114457D02*
X85497619Y-130152552D01*
X85497619Y-130152552D02*
X85459524Y-130190647D01*
X85459524Y-130190647D02*
X85421428Y-130266838D01*
X147224405Y-88022219D02*
X147224405Y-87022219D01*
X147224405Y-87022219D02*
X147462500Y-87022219D01*
X147462500Y-87022219D02*
X147605357Y-87069838D01*
X147605357Y-87069838D02*
X147700595Y-87165076D01*
X147700595Y-87165076D02*
X147748214Y-87260314D01*
X147748214Y-87260314D02*
X147795833Y-87450790D01*
X147795833Y-87450790D02*
X147795833Y-87593647D01*
X147795833Y-87593647D02*
X147748214Y-87784123D01*
X147748214Y-87784123D02*
X147700595Y-87879361D01*
X147700595Y-87879361D02*
X147605357Y-87974600D01*
X147605357Y-87974600D02*
X147462500Y-88022219D01*
X147462500Y-88022219D02*
X147224405Y-88022219D01*
X148652976Y-87355552D02*
X148652976Y-88022219D01*
X148414881Y-86974600D02*
X148176786Y-87688885D01*
X148176786Y-87688885D02*
X148795833Y-87688885D01*
X147616667Y-130359695D02*
X147350000Y-129978742D01*
X147159524Y-130359695D02*
X147159524Y-129559695D01*
X147159524Y-129559695D02*
X147464286Y-129559695D01*
X147464286Y-129559695D02*
X147540476Y-129597790D01*
X147540476Y-129597790D02*
X147578571Y-129635885D01*
X147578571Y-129635885D02*
X147616667Y-129712076D01*
X147616667Y-129712076D02*
X147616667Y-129826361D01*
X147616667Y-129826361D02*
X147578571Y-129902552D01*
X147578571Y-129902552D02*
X147540476Y-129940647D01*
X147540476Y-129940647D02*
X147464286Y-129978742D01*
X147464286Y-129978742D02*
X147159524Y-129978742D01*
X148378571Y-130359695D02*
X147921428Y-130359695D01*
X148150000Y-130359695D02*
X148150000Y-129559695D01*
X148150000Y-129559695D02*
X148073809Y-129673980D01*
X148073809Y-129673980D02*
X147997619Y-129750171D01*
X147997619Y-129750171D02*
X147921428Y-129788266D01*
X115283504Y-71514285D02*
X115321600Y-71552381D01*
X115321600Y-71552381D02*
X115359695Y-71666666D01*
X115359695Y-71666666D02*
X115359695Y-71742857D01*
X115359695Y-71742857D02*
X115321600Y-71857143D01*
X115321600Y-71857143D02*
X115245409Y-71933333D01*
X115245409Y-71933333D02*
X115169219Y-71971428D01*
X115169219Y-71971428D02*
X115016838Y-72009524D01*
X115016838Y-72009524D02*
X114902552Y-72009524D01*
X114902552Y-72009524D02*
X114750171Y-71971428D01*
X114750171Y-71971428D02*
X114673980Y-71933333D01*
X114673980Y-71933333D02*
X114597790Y-71857143D01*
X114597790Y-71857143D02*
X114559695Y-71742857D01*
X114559695Y-71742857D02*
X114559695Y-71666666D01*
X114559695Y-71666666D02*
X114597790Y-71552381D01*
X114597790Y-71552381D02*
X114635885Y-71514285D01*
X115359695Y-70752381D02*
X115359695Y-71209524D01*
X115359695Y-70980952D02*
X114559695Y-70980952D01*
X114559695Y-70980952D02*
X114673980Y-71057143D01*
X114673980Y-71057143D02*
X114750171Y-71133333D01*
X114750171Y-71133333D02*
X114788266Y-71209524D01*
X114559695Y-70485714D02*
X114559695Y-69952380D01*
X114559695Y-69952380D02*
X115359695Y-70295238D01*
X116235714Y-67609695D02*
X115969047Y-67228742D01*
X115778571Y-67609695D02*
X115778571Y-66809695D01*
X115778571Y-66809695D02*
X116083333Y-66809695D01*
X116083333Y-66809695D02*
X116159523Y-66847790D01*
X116159523Y-66847790D02*
X116197618Y-66885885D01*
X116197618Y-66885885D02*
X116235714Y-66962076D01*
X116235714Y-66962076D02*
X116235714Y-67076361D01*
X116235714Y-67076361D02*
X116197618Y-67152552D01*
X116197618Y-67152552D02*
X116159523Y-67190647D01*
X116159523Y-67190647D02*
X116083333Y-67228742D01*
X116083333Y-67228742D02*
X115778571Y-67228742D01*
X116502380Y-66809695D02*
X116997618Y-66809695D01*
X116997618Y-66809695D02*
X116730952Y-67114457D01*
X116730952Y-67114457D02*
X116845237Y-67114457D01*
X116845237Y-67114457D02*
X116921428Y-67152552D01*
X116921428Y-67152552D02*
X116959523Y-67190647D01*
X116959523Y-67190647D02*
X116997618Y-67266838D01*
X116997618Y-67266838D02*
X116997618Y-67457314D01*
X116997618Y-67457314D02*
X116959523Y-67533504D01*
X116959523Y-67533504D02*
X116921428Y-67571600D01*
X116921428Y-67571600D02*
X116845237Y-67609695D01*
X116845237Y-67609695D02*
X116616666Y-67609695D01*
X116616666Y-67609695D02*
X116540475Y-67571600D01*
X116540475Y-67571600D02*
X116502380Y-67533504D01*
X117759523Y-67609695D02*
X117302380Y-67609695D01*
X117530952Y-67609695D02*
X117530952Y-66809695D01*
X117530952Y-66809695D02*
X117454761Y-66923980D01*
X117454761Y-66923980D02*
X117378571Y-67000171D01*
X117378571Y-67000171D02*
X117302380Y-67038266D01*
X140909524Y-104609695D02*
X140909524Y-103809695D01*
X140909524Y-103809695D02*
X141100000Y-103809695D01*
X141100000Y-103809695D02*
X141214286Y-103847790D01*
X141214286Y-103847790D02*
X141290476Y-103923980D01*
X141290476Y-103923980D02*
X141328571Y-104000171D01*
X141328571Y-104000171D02*
X141366667Y-104152552D01*
X141366667Y-104152552D02*
X141366667Y-104266838D01*
X141366667Y-104266838D02*
X141328571Y-104419219D01*
X141328571Y-104419219D02*
X141290476Y-104495409D01*
X141290476Y-104495409D02*
X141214286Y-104571600D01*
X141214286Y-104571600D02*
X141100000Y-104609695D01*
X141100000Y-104609695D02*
X140909524Y-104609695D01*
X141823809Y-104152552D02*
X141747619Y-104114457D01*
X141747619Y-104114457D02*
X141709524Y-104076361D01*
X141709524Y-104076361D02*
X141671428Y-104000171D01*
X141671428Y-104000171D02*
X141671428Y-103962076D01*
X141671428Y-103962076D02*
X141709524Y-103885885D01*
X141709524Y-103885885D02*
X141747619Y-103847790D01*
X141747619Y-103847790D02*
X141823809Y-103809695D01*
X141823809Y-103809695D02*
X141976190Y-103809695D01*
X141976190Y-103809695D02*
X142052381Y-103847790D01*
X142052381Y-103847790D02*
X142090476Y-103885885D01*
X142090476Y-103885885D02*
X142128571Y-103962076D01*
X142128571Y-103962076D02*
X142128571Y-104000171D01*
X142128571Y-104000171D02*
X142090476Y-104076361D01*
X142090476Y-104076361D02*
X142052381Y-104114457D01*
X142052381Y-104114457D02*
X141976190Y-104152552D01*
X141976190Y-104152552D02*
X141823809Y-104152552D01*
X141823809Y-104152552D02*
X141747619Y-104190647D01*
X141747619Y-104190647D02*
X141709524Y-104228742D01*
X141709524Y-104228742D02*
X141671428Y-104304933D01*
X141671428Y-104304933D02*
X141671428Y-104457314D01*
X141671428Y-104457314D02*
X141709524Y-104533504D01*
X141709524Y-104533504D02*
X141747619Y-104571600D01*
X141747619Y-104571600D02*
X141823809Y-104609695D01*
X141823809Y-104609695D02*
X141976190Y-104609695D01*
X141976190Y-104609695D02*
X142052381Y-104571600D01*
X142052381Y-104571600D02*
X142090476Y-104533504D01*
X142090476Y-104533504D02*
X142128571Y-104457314D01*
X142128571Y-104457314D02*
X142128571Y-104304933D01*
X142128571Y-104304933D02*
X142090476Y-104228742D01*
X142090476Y-104228742D02*
X142052381Y-104190647D01*
X142052381Y-104190647D02*
X141976190Y-104152552D01*
X89985714Y-85033504D02*
X89947618Y-85071600D01*
X89947618Y-85071600D02*
X89833333Y-85109695D01*
X89833333Y-85109695D02*
X89757142Y-85109695D01*
X89757142Y-85109695D02*
X89642856Y-85071600D01*
X89642856Y-85071600D02*
X89566666Y-84995409D01*
X89566666Y-84995409D02*
X89528571Y-84919219D01*
X89528571Y-84919219D02*
X89490475Y-84766838D01*
X89490475Y-84766838D02*
X89490475Y-84652552D01*
X89490475Y-84652552D02*
X89528571Y-84500171D01*
X89528571Y-84500171D02*
X89566666Y-84423980D01*
X89566666Y-84423980D02*
X89642856Y-84347790D01*
X89642856Y-84347790D02*
X89757142Y-84309695D01*
X89757142Y-84309695D02*
X89833333Y-84309695D01*
X89833333Y-84309695D02*
X89947618Y-84347790D01*
X89947618Y-84347790D02*
X89985714Y-84385885D01*
X90290475Y-84385885D02*
X90328571Y-84347790D01*
X90328571Y-84347790D02*
X90404761Y-84309695D01*
X90404761Y-84309695D02*
X90595237Y-84309695D01*
X90595237Y-84309695D02*
X90671428Y-84347790D01*
X90671428Y-84347790D02*
X90709523Y-84385885D01*
X90709523Y-84385885D02*
X90747618Y-84462076D01*
X90747618Y-84462076D02*
X90747618Y-84538266D01*
X90747618Y-84538266D02*
X90709523Y-84652552D01*
X90709523Y-84652552D02*
X90252380Y-85109695D01*
X90252380Y-85109695D02*
X90747618Y-85109695D01*
X91014285Y-84309695D02*
X91547619Y-84309695D01*
X91547619Y-84309695D02*
X91204761Y-85109695D01*
X90485714Y-75033504D02*
X90447618Y-75071600D01*
X90447618Y-75071600D02*
X90333333Y-75109695D01*
X90333333Y-75109695D02*
X90257142Y-75109695D01*
X90257142Y-75109695D02*
X90142856Y-75071600D01*
X90142856Y-75071600D02*
X90066666Y-74995409D01*
X90066666Y-74995409D02*
X90028571Y-74919219D01*
X90028571Y-74919219D02*
X89990475Y-74766838D01*
X89990475Y-74766838D02*
X89990475Y-74652552D01*
X89990475Y-74652552D02*
X90028571Y-74500171D01*
X90028571Y-74500171D02*
X90066666Y-74423980D01*
X90066666Y-74423980D02*
X90142856Y-74347790D01*
X90142856Y-74347790D02*
X90257142Y-74309695D01*
X90257142Y-74309695D02*
X90333333Y-74309695D01*
X90333333Y-74309695D02*
X90447618Y-74347790D01*
X90447618Y-74347790D02*
X90485714Y-74385885D01*
X90790475Y-74385885D02*
X90828571Y-74347790D01*
X90828571Y-74347790D02*
X90904761Y-74309695D01*
X90904761Y-74309695D02*
X91095237Y-74309695D01*
X91095237Y-74309695D02*
X91171428Y-74347790D01*
X91171428Y-74347790D02*
X91209523Y-74385885D01*
X91209523Y-74385885D02*
X91247618Y-74462076D01*
X91247618Y-74462076D02*
X91247618Y-74538266D01*
X91247618Y-74538266D02*
X91209523Y-74652552D01*
X91209523Y-74652552D02*
X90752380Y-75109695D01*
X90752380Y-75109695D02*
X91247618Y-75109695D01*
X91742857Y-74309695D02*
X91819047Y-74309695D01*
X91819047Y-74309695D02*
X91895238Y-74347790D01*
X91895238Y-74347790D02*
X91933333Y-74385885D01*
X91933333Y-74385885D02*
X91971428Y-74462076D01*
X91971428Y-74462076D02*
X92009523Y-74614457D01*
X92009523Y-74614457D02*
X92009523Y-74804933D01*
X92009523Y-74804933D02*
X91971428Y-74957314D01*
X91971428Y-74957314D02*
X91933333Y-75033504D01*
X91933333Y-75033504D02*
X91895238Y-75071600D01*
X91895238Y-75071600D02*
X91819047Y-75109695D01*
X91819047Y-75109695D02*
X91742857Y-75109695D01*
X91742857Y-75109695D02*
X91666666Y-75071600D01*
X91666666Y-75071600D02*
X91628571Y-75033504D01*
X91628571Y-75033504D02*
X91590476Y-74957314D01*
X91590476Y-74957314D02*
X91552380Y-74804933D01*
X91552380Y-74804933D02*
X91552380Y-74614457D01*
X91552380Y-74614457D02*
X91590476Y-74462076D01*
X91590476Y-74462076D02*
X91628571Y-74385885D01*
X91628571Y-74385885D02*
X91666666Y-74347790D01*
X91666666Y-74347790D02*
X91742857Y-74309695D01*
X118890476Y-95559695D02*
X118890476Y-96207314D01*
X118890476Y-96207314D02*
X118928571Y-96283504D01*
X118928571Y-96283504D02*
X118966666Y-96321600D01*
X118966666Y-96321600D02*
X119042857Y-96359695D01*
X119042857Y-96359695D02*
X119195238Y-96359695D01*
X119195238Y-96359695D02*
X119271428Y-96321600D01*
X119271428Y-96321600D02*
X119309523Y-96283504D01*
X119309523Y-96283504D02*
X119347619Y-96207314D01*
X119347619Y-96207314D02*
X119347619Y-95559695D01*
X119766666Y-96359695D02*
X119919047Y-96359695D01*
X119919047Y-96359695D02*
X119995237Y-96321600D01*
X119995237Y-96321600D02*
X120033333Y-96283504D01*
X120033333Y-96283504D02*
X120109523Y-96169219D01*
X120109523Y-96169219D02*
X120147618Y-96016838D01*
X120147618Y-96016838D02*
X120147618Y-95712076D01*
X120147618Y-95712076D02*
X120109523Y-95635885D01*
X120109523Y-95635885D02*
X120071428Y-95597790D01*
X120071428Y-95597790D02*
X119995237Y-95559695D01*
X119995237Y-95559695D02*
X119842856Y-95559695D01*
X119842856Y-95559695D02*
X119766666Y-95597790D01*
X119766666Y-95597790D02*
X119728571Y-95635885D01*
X119728571Y-95635885D02*
X119690475Y-95712076D01*
X119690475Y-95712076D02*
X119690475Y-95902552D01*
X119690475Y-95902552D02*
X119728571Y-95978742D01*
X119728571Y-95978742D02*
X119766666Y-96016838D01*
X119766666Y-96016838D02*
X119842856Y-96054933D01*
X119842856Y-96054933D02*
X119995237Y-96054933D01*
X119995237Y-96054933D02*
X120071428Y-96016838D01*
X120071428Y-96016838D02*
X120109523Y-95978742D01*
X120109523Y-95978742D02*
X120147618Y-95902552D01*
X144366667Y-84859695D02*
X144100000Y-84478742D01*
X143909524Y-84859695D02*
X143909524Y-84059695D01*
X143909524Y-84059695D02*
X144214286Y-84059695D01*
X144214286Y-84059695D02*
X144290476Y-84097790D01*
X144290476Y-84097790D02*
X144328571Y-84135885D01*
X144328571Y-84135885D02*
X144366667Y-84212076D01*
X144366667Y-84212076D02*
X144366667Y-84326361D01*
X144366667Y-84326361D02*
X144328571Y-84402552D01*
X144328571Y-84402552D02*
X144290476Y-84440647D01*
X144290476Y-84440647D02*
X144214286Y-84478742D01*
X144214286Y-84478742D02*
X143909524Y-84478742D01*
X144671428Y-84135885D02*
X144709524Y-84097790D01*
X144709524Y-84097790D02*
X144785714Y-84059695D01*
X144785714Y-84059695D02*
X144976190Y-84059695D01*
X144976190Y-84059695D02*
X145052381Y-84097790D01*
X145052381Y-84097790D02*
X145090476Y-84135885D01*
X145090476Y-84135885D02*
X145128571Y-84212076D01*
X145128571Y-84212076D02*
X145128571Y-84288266D01*
X145128571Y-84288266D02*
X145090476Y-84402552D01*
X145090476Y-84402552D02*
X144633333Y-84859695D01*
X144633333Y-84859695D02*
X145128571Y-84859695D01*
X132890476Y-93309695D02*
X132890476Y-93957314D01*
X132890476Y-93957314D02*
X132928571Y-94033504D01*
X132928571Y-94033504D02*
X132966666Y-94071600D01*
X132966666Y-94071600D02*
X133042857Y-94109695D01*
X133042857Y-94109695D02*
X133195238Y-94109695D01*
X133195238Y-94109695D02*
X133271428Y-94071600D01*
X133271428Y-94071600D02*
X133309523Y-94033504D01*
X133309523Y-94033504D02*
X133347619Y-93957314D01*
X133347619Y-93957314D02*
X133347619Y-93309695D01*
X134071428Y-93309695D02*
X133919047Y-93309695D01*
X133919047Y-93309695D02*
X133842856Y-93347790D01*
X133842856Y-93347790D02*
X133804761Y-93385885D01*
X133804761Y-93385885D02*
X133728571Y-93500171D01*
X133728571Y-93500171D02*
X133690475Y-93652552D01*
X133690475Y-93652552D02*
X133690475Y-93957314D01*
X133690475Y-93957314D02*
X133728571Y-94033504D01*
X133728571Y-94033504D02*
X133766666Y-94071600D01*
X133766666Y-94071600D02*
X133842856Y-94109695D01*
X133842856Y-94109695D02*
X133995237Y-94109695D01*
X133995237Y-94109695D02*
X134071428Y-94071600D01*
X134071428Y-94071600D02*
X134109523Y-94033504D01*
X134109523Y-94033504D02*
X134147618Y-93957314D01*
X134147618Y-93957314D02*
X134147618Y-93766838D01*
X134147618Y-93766838D02*
X134109523Y-93690647D01*
X134109523Y-93690647D02*
X134071428Y-93652552D01*
X134071428Y-93652552D02*
X133995237Y-93614457D01*
X133995237Y-93614457D02*
X133842856Y-93614457D01*
X133842856Y-93614457D02*
X133766666Y-93652552D01*
X133766666Y-93652552D02*
X133728571Y-93690647D01*
X133728571Y-93690647D02*
X133690475Y-93766838D01*
X132890476Y-89079695D02*
X132890476Y-89727314D01*
X132890476Y-89727314D02*
X132928571Y-89803504D01*
X132928571Y-89803504D02*
X132966666Y-89841600D01*
X132966666Y-89841600D02*
X133042857Y-89879695D01*
X133042857Y-89879695D02*
X133195238Y-89879695D01*
X133195238Y-89879695D02*
X133271428Y-89841600D01*
X133271428Y-89841600D02*
X133309523Y-89803504D01*
X133309523Y-89803504D02*
X133347619Y-89727314D01*
X133347619Y-89727314D02*
X133347619Y-89079695D01*
X134109523Y-89079695D02*
X133728571Y-89079695D01*
X133728571Y-89079695D02*
X133690475Y-89460647D01*
X133690475Y-89460647D02*
X133728571Y-89422552D01*
X133728571Y-89422552D02*
X133804761Y-89384457D01*
X133804761Y-89384457D02*
X133995237Y-89384457D01*
X133995237Y-89384457D02*
X134071428Y-89422552D01*
X134071428Y-89422552D02*
X134109523Y-89460647D01*
X134109523Y-89460647D02*
X134147618Y-89536838D01*
X134147618Y-89536838D02*
X134147618Y-89727314D01*
X134147618Y-89727314D02*
X134109523Y-89803504D01*
X134109523Y-89803504D02*
X134071428Y-89841600D01*
X134071428Y-89841600D02*
X133995237Y-89879695D01*
X133995237Y-89879695D02*
X133804761Y-89879695D01*
X133804761Y-89879695D02*
X133728571Y-89841600D01*
X133728571Y-89841600D02*
X133690475Y-89803504D01*
X148659524Y-108859695D02*
X148659524Y-108059695D01*
X148659524Y-108059695D02*
X148850000Y-108059695D01*
X148850000Y-108059695D02*
X148964286Y-108097790D01*
X148964286Y-108097790D02*
X149040476Y-108173980D01*
X149040476Y-108173980D02*
X149078571Y-108250171D01*
X149078571Y-108250171D02*
X149116667Y-108402552D01*
X149116667Y-108402552D02*
X149116667Y-108516838D01*
X149116667Y-108516838D02*
X149078571Y-108669219D01*
X149078571Y-108669219D02*
X149040476Y-108745409D01*
X149040476Y-108745409D02*
X148964286Y-108821600D01*
X148964286Y-108821600D02*
X148850000Y-108859695D01*
X148850000Y-108859695D02*
X148659524Y-108859695D01*
X149497619Y-108859695D02*
X149650000Y-108859695D01*
X149650000Y-108859695D02*
X149726190Y-108821600D01*
X149726190Y-108821600D02*
X149764286Y-108783504D01*
X149764286Y-108783504D02*
X149840476Y-108669219D01*
X149840476Y-108669219D02*
X149878571Y-108516838D01*
X149878571Y-108516838D02*
X149878571Y-108212076D01*
X149878571Y-108212076D02*
X149840476Y-108135885D01*
X149840476Y-108135885D02*
X149802381Y-108097790D01*
X149802381Y-108097790D02*
X149726190Y-108059695D01*
X149726190Y-108059695D02*
X149573809Y-108059695D01*
X149573809Y-108059695D02*
X149497619Y-108097790D01*
X149497619Y-108097790D02*
X149459524Y-108135885D01*
X149459524Y-108135885D02*
X149421428Y-108212076D01*
X149421428Y-108212076D02*
X149421428Y-108402552D01*
X149421428Y-108402552D02*
X149459524Y-108478742D01*
X149459524Y-108478742D02*
X149497619Y-108516838D01*
X149497619Y-108516838D02*
X149573809Y-108554933D01*
X149573809Y-108554933D02*
X149726190Y-108554933D01*
X149726190Y-108554933D02*
X149802381Y-108516838D01*
X149802381Y-108516838D02*
X149840476Y-108478742D01*
X149840476Y-108478742D02*
X149878571Y-108402552D01*
X111833333Y-76690647D02*
X111566667Y-76690647D01*
X111566667Y-77109695D02*
X111566667Y-76309695D01*
X111566667Y-76309695D02*
X111947619Y-76309695D01*
X112519047Y-76690647D02*
X112633333Y-76728742D01*
X112633333Y-76728742D02*
X112671428Y-76766838D01*
X112671428Y-76766838D02*
X112709524Y-76843028D01*
X112709524Y-76843028D02*
X112709524Y-76957314D01*
X112709524Y-76957314D02*
X112671428Y-77033504D01*
X112671428Y-77033504D02*
X112633333Y-77071600D01*
X112633333Y-77071600D02*
X112557143Y-77109695D01*
X112557143Y-77109695D02*
X112252381Y-77109695D01*
X112252381Y-77109695D02*
X112252381Y-76309695D01*
X112252381Y-76309695D02*
X112519047Y-76309695D01*
X112519047Y-76309695D02*
X112595238Y-76347790D01*
X112595238Y-76347790D02*
X112633333Y-76385885D01*
X112633333Y-76385885D02*
X112671428Y-76462076D01*
X112671428Y-76462076D02*
X112671428Y-76538266D01*
X112671428Y-76538266D02*
X112633333Y-76614457D01*
X112633333Y-76614457D02*
X112595238Y-76652552D01*
X112595238Y-76652552D02*
X112519047Y-76690647D01*
X112519047Y-76690647D02*
X112252381Y-76690647D01*
X113014285Y-76385885D02*
X113052381Y-76347790D01*
X113052381Y-76347790D02*
X113128571Y-76309695D01*
X113128571Y-76309695D02*
X113319047Y-76309695D01*
X113319047Y-76309695D02*
X113395238Y-76347790D01*
X113395238Y-76347790D02*
X113433333Y-76385885D01*
X113433333Y-76385885D02*
X113471428Y-76462076D01*
X113471428Y-76462076D02*
X113471428Y-76538266D01*
X113471428Y-76538266D02*
X113433333Y-76652552D01*
X113433333Y-76652552D02*
X112976190Y-77109695D01*
X112976190Y-77109695D02*
X113471428Y-77109695D01*
X143985714Y-94609695D02*
X143719047Y-94228742D01*
X143528571Y-94609695D02*
X143528571Y-93809695D01*
X143528571Y-93809695D02*
X143833333Y-93809695D01*
X143833333Y-93809695D02*
X143909523Y-93847790D01*
X143909523Y-93847790D02*
X143947618Y-93885885D01*
X143947618Y-93885885D02*
X143985714Y-93962076D01*
X143985714Y-93962076D02*
X143985714Y-94076361D01*
X143985714Y-94076361D02*
X143947618Y-94152552D01*
X143947618Y-94152552D02*
X143909523Y-94190647D01*
X143909523Y-94190647D02*
X143833333Y-94228742D01*
X143833333Y-94228742D02*
X143528571Y-94228742D01*
X144747618Y-94609695D02*
X144290475Y-94609695D01*
X144519047Y-94609695D02*
X144519047Y-93809695D01*
X144519047Y-93809695D02*
X144442856Y-93923980D01*
X144442856Y-93923980D02*
X144366666Y-94000171D01*
X144366666Y-94000171D02*
X144290475Y-94038266D01*
X145242857Y-93809695D02*
X145319047Y-93809695D01*
X145319047Y-93809695D02*
X145395238Y-93847790D01*
X145395238Y-93847790D02*
X145433333Y-93885885D01*
X145433333Y-93885885D02*
X145471428Y-93962076D01*
X145471428Y-93962076D02*
X145509523Y-94114457D01*
X145509523Y-94114457D02*
X145509523Y-94304933D01*
X145509523Y-94304933D02*
X145471428Y-94457314D01*
X145471428Y-94457314D02*
X145433333Y-94533504D01*
X145433333Y-94533504D02*
X145395238Y-94571600D01*
X145395238Y-94571600D02*
X145319047Y-94609695D01*
X145319047Y-94609695D02*
X145242857Y-94609695D01*
X145242857Y-94609695D02*
X145166666Y-94571600D01*
X145166666Y-94571600D02*
X145128571Y-94533504D01*
X145128571Y-94533504D02*
X145090476Y-94457314D01*
X145090476Y-94457314D02*
X145052380Y-94304933D01*
X145052380Y-94304933D02*
X145052380Y-94114457D01*
X145052380Y-94114457D02*
X145090476Y-93962076D01*
X145090476Y-93962076D02*
X145128571Y-93885885D01*
X145128571Y-93885885D02*
X145166666Y-93847790D01*
X145166666Y-93847790D02*
X145242857Y-93809695D01*
X147761905Y-92272219D02*
X147761905Y-91272219D01*
X147761905Y-91272219D02*
X148000000Y-91272219D01*
X148000000Y-91272219D02*
X148142857Y-91319838D01*
X148142857Y-91319838D02*
X148238095Y-91415076D01*
X148238095Y-91415076D02*
X148285714Y-91510314D01*
X148285714Y-91510314D02*
X148333333Y-91700790D01*
X148333333Y-91700790D02*
X148333333Y-91843647D01*
X148333333Y-91843647D02*
X148285714Y-92034123D01*
X148285714Y-92034123D02*
X148238095Y-92129361D01*
X148238095Y-92129361D02*
X148142857Y-92224600D01*
X148142857Y-92224600D02*
X148000000Y-92272219D01*
X148000000Y-92272219D02*
X147761905Y-92272219D01*
X149238095Y-91272219D02*
X148761905Y-91272219D01*
X148761905Y-91272219D02*
X148714286Y-91748409D01*
X148714286Y-91748409D02*
X148761905Y-91700790D01*
X148761905Y-91700790D02*
X148857143Y-91653171D01*
X148857143Y-91653171D02*
X149095238Y-91653171D01*
X149095238Y-91653171D02*
X149190476Y-91700790D01*
X149190476Y-91700790D02*
X149238095Y-91748409D01*
X149238095Y-91748409D02*
X149285714Y-91843647D01*
X149285714Y-91843647D02*
X149285714Y-92081742D01*
X149285714Y-92081742D02*
X149238095Y-92176980D01*
X149238095Y-92176980D02*
X149190476Y-92224600D01*
X149190476Y-92224600D02*
X149095238Y-92272219D01*
X149095238Y-92272219D02*
X148857143Y-92272219D01*
X148857143Y-92272219D02*
X148761905Y-92224600D01*
X148761905Y-92224600D02*
X148714286Y-92176980D01*
X111302976Y-100309695D02*
X111302976Y-100957314D01*
X111302976Y-100957314D02*
X111341071Y-101033504D01*
X111341071Y-101033504D02*
X111379166Y-101071600D01*
X111379166Y-101071600D02*
X111455357Y-101109695D01*
X111455357Y-101109695D02*
X111607738Y-101109695D01*
X111607738Y-101109695D02*
X111683928Y-101071600D01*
X111683928Y-101071600D02*
X111722023Y-101033504D01*
X111722023Y-101033504D02*
X111760119Y-100957314D01*
X111760119Y-100957314D02*
X111760119Y-100309695D01*
X112255356Y-100652552D02*
X112179166Y-100614457D01*
X112179166Y-100614457D02*
X112141071Y-100576361D01*
X112141071Y-100576361D02*
X112102975Y-100500171D01*
X112102975Y-100500171D02*
X112102975Y-100462076D01*
X112102975Y-100462076D02*
X112141071Y-100385885D01*
X112141071Y-100385885D02*
X112179166Y-100347790D01*
X112179166Y-100347790D02*
X112255356Y-100309695D01*
X112255356Y-100309695D02*
X112407737Y-100309695D01*
X112407737Y-100309695D02*
X112483928Y-100347790D01*
X112483928Y-100347790D02*
X112522023Y-100385885D01*
X112522023Y-100385885D02*
X112560118Y-100462076D01*
X112560118Y-100462076D02*
X112560118Y-100500171D01*
X112560118Y-100500171D02*
X112522023Y-100576361D01*
X112522023Y-100576361D02*
X112483928Y-100614457D01*
X112483928Y-100614457D02*
X112407737Y-100652552D01*
X112407737Y-100652552D02*
X112255356Y-100652552D01*
X112255356Y-100652552D02*
X112179166Y-100690647D01*
X112179166Y-100690647D02*
X112141071Y-100728742D01*
X112141071Y-100728742D02*
X112102975Y-100804933D01*
X112102975Y-100804933D02*
X112102975Y-100957314D01*
X112102975Y-100957314D02*
X112141071Y-101033504D01*
X112141071Y-101033504D02*
X112179166Y-101071600D01*
X112179166Y-101071600D02*
X112255356Y-101109695D01*
X112255356Y-101109695D02*
X112407737Y-101109695D01*
X112407737Y-101109695D02*
X112483928Y-101071600D01*
X112483928Y-101071600D02*
X112522023Y-101033504D01*
X112522023Y-101033504D02*
X112560118Y-100957314D01*
X112560118Y-100957314D02*
X112560118Y-100804933D01*
X112560118Y-100804933D02*
X112522023Y-100728742D01*
X112522023Y-100728742D02*
X112483928Y-100690647D01*
X112483928Y-100690647D02*
X112407737Y-100652552D01*
X129485714Y-64033504D02*
X129447618Y-64071600D01*
X129447618Y-64071600D02*
X129333333Y-64109695D01*
X129333333Y-64109695D02*
X129257142Y-64109695D01*
X129257142Y-64109695D02*
X129142856Y-64071600D01*
X129142856Y-64071600D02*
X129066666Y-63995409D01*
X129066666Y-63995409D02*
X129028571Y-63919219D01*
X129028571Y-63919219D02*
X128990475Y-63766838D01*
X128990475Y-63766838D02*
X128990475Y-63652552D01*
X128990475Y-63652552D02*
X129028571Y-63500171D01*
X129028571Y-63500171D02*
X129066666Y-63423980D01*
X129066666Y-63423980D02*
X129142856Y-63347790D01*
X129142856Y-63347790D02*
X129257142Y-63309695D01*
X129257142Y-63309695D02*
X129333333Y-63309695D01*
X129333333Y-63309695D02*
X129447618Y-63347790D01*
X129447618Y-63347790D02*
X129485714Y-63385885D01*
X129752380Y-63309695D02*
X130247618Y-63309695D01*
X130247618Y-63309695D02*
X129980952Y-63614457D01*
X129980952Y-63614457D02*
X130095237Y-63614457D01*
X130095237Y-63614457D02*
X130171428Y-63652552D01*
X130171428Y-63652552D02*
X130209523Y-63690647D01*
X130209523Y-63690647D02*
X130247618Y-63766838D01*
X130247618Y-63766838D02*
X130247618Y-63957314D01*
X130247618Y-63957314D02*
X130209523Y-64033504D01*
X130209523Y-64033504D02*
X130171428Y-64071600D01*
X130171428Y-64071600D02*
X130095237Y-64109695D01*
X130095237Y-64109695D02*
X129866666Y-64109695D01*
X129866666Y-64109695D02*
X129790475Y-64071600D01*
X129790475Y-64071600D02*
X129752380Y-64033504D01*
X131009523Y-64109695D02*
X130552380Y-64109695D01*
X130780952Y-64109695D02*
X130780952Y-63309695D01*
X130780952Y-63309695D02*
X130704761Y-63423980D01*
X130704761Y-63423980D02*
X130628571Y-63500171D01*
X130628571Y-63500171D02*
X130552380Y-63538266D01*
X89735714Y-62959695D02*
X89469047Y-62578742D01*
X89278571Y-62959695D02*
X89278571Y-62159695D01*
X89278571Y-62159695D02*
X89583333Y-62159695D01*
X89583333Y-62159695D02*
X89659523Y-62197790D01*
X89659523Y-62197790D02*
X89697618Y-62235885D01*
X89697618Y-62235885D02*
X89735714Y-62312076D01*
X89735714Y-62312076D02*
X89735714Y-62426361D01*
X89735714Y-62426361D02*
X89697618Y-62502552D01*
X89697618Y-62502552D02*
X89659523Y-62540647D01*
X89659523Y-62540647D02*
X89583333Y-62578742D01*
X89583333Y-62578742D02*
X89278571Y-62578742D01*
X90421428Y-62426361D02*
X90421428Y-62959695D01*
X90230952Y-62121600D02*
X90040475Y-62693028D01*
X90040475Y-62693028D02*
X90535714Y-62693028D01*
X91259523Y-62959695D02*
X90802380Y-62959695D01*
X91030952Y-62959695D02*
X91030952Y-62159695D01*
X91030952Y-62159695D02*
X90954761Y-62273980D01*
X90954761Y-62273980D02*
X90878571Y-62350171D01*
X90878571Y-62350171D02*
X90802380Y-62388266D01*
X145985714Y-114109695D02*
X145719047Y-113728742D01*
X145528571Y-114109695D02*
X145528571Y-113309695D01*
X145528571Y-113309695D02*
X145833333Y-113309695D01*
X145833333Y-113309695D02*
X145909523Y-113347790D01*
X145909523Y-113347790D02*
X145947618Y-113385885D01*
X145947618Y-113385885D02*
X145985714Y-113462076D01*
X145985714Y-113462076D02*
X145985714Y-113576361D01*
X145985714Y-113576361D02*
X145947618Y-113652552D01*
X145947618Y-113652552D02*
X145909523Y-113690647D01*
X145909523Y-113690647D02*
X145833333Y-113728742D01*
X145833333Y-113728742D02*
X145528571Y-113728742D01*
X146290475Y-113385885D02*
X146328571Y-113347790D01*
X146328571Y-113347790D02*
X146404761Y-113309695D01*
X146404761Y-113309695D02*
X146595237Y-113309695D01*
X146595237Y-113309695D02*
X146671428Y-113347790D01*
X146671428Y-113347790D02*
X146709523Y-113385885D01*
X146709523Y-113385885D02*
X146747618Y-113462076D01*
X146747618Y-113462076D02*
X146747618Y-113538266D01*
X146747618Y-113538266D02*
X146709523Y-113652552D01*
X146709523Y-113652552D02*
X146252380Y-114109695D01*
X146252380Y-114109695D02*
X146747618Y-114109695D01*
X147433333Y-113309695D02*
X147280952Y-113309695D01*
X147280952Y-113309695D02*
X147204761Y-113347790D01*
X147204761Y-113347790D02*
X147166666Y-113385885D01*
X147166666Y-113385885D02*
X147090476Y-113500171D01*
X147090476Y-113500171D02*
X147052380Y-113652552D01*
X147052380Y-113652552D02*
X147052380Y-113957314D01*
X147052380Y-113957314D02*
X147090476Y-114033504D01*
X147090476Y-114033504D02*
X147128571Y-114071600D01*
X147128571Y-114071600D02*
X147204761Y-114109695D01*
X147204761Y-114109695D02*
X147357142Y-114109695D01*
X147357142Y-114109695D02*
X147433333Y-114071600D01*
X147433333Y-114071600D02*
X147471428Y-114033504D01*
X147471428Y-114033504D02*
X147509523Y-113957314D01*
X147509523Y-113957314D02*
X147509523Y-113766838D01*
X147509523Y-113766838D02*
X147471428Y-113690647D01*
X147471428Y-113690647D02*
X147433333Y-113652552D01*
X147433333Y-113652552D02*
X147357142Y-113614457D01*
X147357142Y-113614457D02*
X147204761Y-113614457D01*
X147204761Y-113614457D02*
X147128571Y-113652552D01*
X147128571Y-113652552D02*
X147090476Y-113690647D01*
X147090476Y-113690647D02*
X147052380Y-113766838D01*
X118509524Y-103059695D02*
X118509524Y-103707314D01*
X118509524Y-103707314D02*
X118547619Y-103783504D01*
X118547619Y-103783504D02*
X118585714Y-103821600D01*
X118585714Y-103821600D02*
X118661905Y-103859695D01*
X118661905Y-103859695D02*
X118814286Y-103859695D01*
X118814286Y-103859695D02*
X118890476Y-103821600D01*
X118890476Y-103821600D02*
X118928571Y-103783504D01*
X118928571Y-103783504D02*
X118966667Y-103707314D01*
X118966667Y-103707314D02*
X118966667Y-103059695D01*
X119766666Y-103859695D02*
X119309523Y-103859695D01*
X119538095Y-103859695D02*
X119538095Y-103059695D01*
X119538095Y-103059695D02*
X119461904Y-103173980D01*
X119461904Y-103173980D02*
X119385714Y-103250171D01*
X119385714Y-103250171D02*
X119309523Y-103288266D01*
X120528571Y-103859695D02*
X120071428Y-103859695D01*
X120300000Y-103859695D02*
X120300000Y-103059695D01*
X120300000Y-103059695D02*
X120223809Y-103173980D01*
X120223809Y-103173980D02*
X120147619Y-103250171D01*
X120147619Y-103250171D02*
X120071428Y-103288266D01*
X150485714Y-68859695D02*
X150219047Y-68478742D01*
X150028571Y-68859695D02*
X150028571Y-68059695D01*
X150028571Y-68059695D02*
X150333333Y-68059695D01*
X150333333Y-68059695D02*
X150409523Y-68097790D01*
X150409523Y-68097790D02*
X150447618Y-68135885D01*
X150447618Y-68135885D02*
X150485714Y-68212076D01*
X150485714Y-68212076D02*
X150485714Y-68326361D01*
X150485714Y-68326361D02*
X150447618Y-68402552D01*
X150447618Y-68402552D02*
X150409523Y-68440647D01*
X150409523Y-68440647D02*
X150333333Y-68478742D01*
X150333333Y-68478742D02*
X150028571Y-68478742D01*
X150752380Y-68059695D02*
X151247618Y-68059695D01*
X151247618Y-68059695D02*
X150980952Y-68364457D01*
X150980952Y-68364457D02*
X151095237Y-68364457D01*
X151095237Y-68364457D02*
X151171428Y-68402552D01*
X151171428Y-68402552D02*
X151209523Y-68440647D01*
X151209523Y-68440647D02*
X151247618Y-68516838D01*
X151247618Y-68516838D02*
X151247618Y-68707314D01*
X151247618Y-68707314D02*
X151209523Y-68783504D01*
X151209523Y-68783504D02*
X151171428Y-68821600D01*
X151171428Y-68821600D02*
X151095237Y-68859695D01*
X151095237Y-68859695D02*
X150866666Y-68859695D01*
X150866666Y-68859695D02*
X150790475Y-68821600D01*
X150790475Y-68821600D02*
X150752380Y-68783504D01*
X151552380Y-68135885D02*
X151590476Y-68097790D01*
X151590476Y-68097790D02*
X151666666Y-68059695D01*
X151666666Y-68059695D02*
X151857142Y-68059695D01*
X151857142Y-68059695D02*
X151933333Y-68097790D01*
X151933333Y-68097790D02*
X151971428Y-68135885D01*
X151971428Y-68135885D02*
X152009523Y-68212076D01*
X152009523Y-68212076D02*
X152009523Y-68288266D01*
X152009523Y-68288266D02*
X151971428Y-68402552D01*
X151971428Y-68402552D02*
X151514285Y-68859695D01*
X151514285Y-68859695D02*
X152009523Y-68859695D01*
X144073214Y-101609695D02*
X143806547Y-101228742D01*
X143616071Y-101609695D02*
X143616071Y-100809695D01*
X143616071Y-100809695D02*
X143920833Y-100809695D01*
X143920833Y-100809695D02*
X143997023Y-100847790D01*
X143997023Y-100847790D02*
X144035118Y-100885885D01*
X144035118Y-100885885D02*
X144073214Y-100962076D01*
X144073214Y-100962076D02*
X144073214Y-101076361D01*
X144073214Y-101076361D02*
X144035118Y-101152552D01*
X144035118Y-101152552D02*
X143997023Y-101190647D01*
X143997023Y-101190647D02*
X143920833Y-101228742D01*
X143920833Y-101228742D02*
X143616071Y-101228742D01*
X144835118Y-101609695D02*
X144377975Y-101609695D01*
X144606547Y-101609695D02*
X144606547Y-100809695D01*
X144606547Y-100809695D02*
X144530356Y-100923980D01*
X144530356Y-100923980D02*
X144454166Y-101000171D01*
X144454166Y-101000171D02*
X144377975Y-101038266D01*
X145597023Y-101609695D02*
X145139880Y-101609695D01*
X145368452Y-101609695D02*
X145368452Y-100809695D01*
X145368452Y-100809695D02*
X145292261Y-100923980D01*
X145292261Y-100923980D02*
X145216071Y-101000171D01*
X145216071Y-101000171D02*
X145139880Y-101038266D01*
X121235714Y-72533504D02*
X121197618Y-72571600D01*
X121197618Y-72571600D02*
X121083333Y-72609695D01*
X121083333Y-72609695D02*
X121007142Y-72609695D01*
X121007142Y-72609695D02*
X120892856Y-72571600D01*
X120892856Y-72571600D02*
X120816666Y-72495409D01*
X120816666Y-72495409D02*
X120778571Y-72419219D01*
X120778571Y-72419219D02*
X120740475Y-72266838D01*
X120740475Y-72266838D02*
X120740475Y-72152552D01*
X120740475Y-72152552D02*
X120778571Y-72000171D01*
X120778571Y-72000171D02*
X120816666Y-71923980D01*
X120816666Y-71923980D02*
X120892856Y-71847790D01*
X120892856Y-71847790D02*
X121007142Y-71809695D01*
X121007142Y-71809695D02*
X121083333Y-71809695D01*
X121083333Y-71809695D02*
X121197618Y-71847790D01*
X121197618Y-71847790D02*
X121235714Y-71885885D01*
X121540475Y-71885885D02*
X121578571Y-71847790D01*
X121578571Y-71847790D02*
X121654761Y-71809695D01*
X121654761Y-71809695D02*
X121845237Y-71809695D01*
X121845237Y-71809695D02*
X121921428Y-71847790D01*
X121921428Y-71847790D02*
X121959523Y-71885885D01*
X121959523Y-71885885D02*
X121997618Y-71962076D01*
X121997618Y-71962076D02*
X121997618Y-72038266D01*
X121997618Y-72038266D02*
X121959523Y-72152552D01*
X121959523Y-72152552D02*
X121502380Y-72609695D01*
X121502380Y-72609695D02*
X121997618Y-72609695D01*
X122454761Y-72152552D02*
X122378571Y-72114457D01*
X122378571Y-72114457D02*
X122340476Y-72076361D01*
X122340476Y-72076361D02*
X122302380Y-72000171D01*
X122302380Y-72000171D02*
X122302380Y-71962076D01*
X122302380Y-71962076D02*
X122340476Y-71885885D01*
X122340476Y-71885885D02*
X122378571Y-71847790D01*
X122378571Y-71847790D02*
X122454761Y-71809695D01*
X122454761Y-71809695D02*
X122607142Y-71809695D01*
X122607142Y-71809695D02*
X122683333Y-71847790D01*
X122683333Y-71847790D02*
X122721428Y-71885885D01*
X122721428Y-71885885D02*
X122759523Y-71962076D01*
X122759523Y-71962076D02*
X122759523Y-72000171D01*
X122759523Y-72000171D02*
X122721428Y-72076361D01*
X122721428Y-72076361D02*
X122683333Y-72114457D01*
X122683333Y-72114457D02*
X122607142Y-72152552D01*
X122607142Y-72152552D02*
X122454761Y-72152552D01*
X122454761Y-72152552D02*
X122378571Y-72190647D01*
X122378571Y-72190647D02*
X122340476Y-72228742D01*
X122340476Y-72228742D02*
X122302380Y-72304933D01*
X122302380Y-72304933D02*
X122302380Y-72457314D01*
X122302380Y-72457314D02*
X122340476Y-72533504D01*
X122340476Y-72533504D02*
X122378571Y-72571600D01*
X122378571Y-72571600D02*
X122454761Y-72609695D01*
X122454761Y-72609695D02*
X122607142Y-72609695D01*
X122607142Y-72609695D02*
X122683333Y-72571600D01*
X122683333Y-72571600D02*
X122721428Y-72533504D01*
X122721428Y-72533504D02*
X122759523Y-72457314D01*
X122759523Y-72457314D02*
X122759523Y-72304933D01*
X122759523Y-72304933D02*
X122721428Y-72228742D01*
X122721428Y-72228742D02*
X122683333Y-72190647D01*
X122683333Y-72190647D02*
X122607142Y-72152552D01*
X96235714Y-93533504D02*
X96197618Y-93571600D01*
X96197618Y-93571600D02*
X96083333Y-93609695D01*
X96083333Y-93609695D02*
X96007142Y-93609695D01*
X96007142Y-93609695D02*
X95892856Y-93571600D01*
X95892856Y-93571600D02*
X95816666Y-93495409D01*
X95816666Y-93495409D02*
X95778571Y-93419219D01*
X95778571Y-93419219D02*
X95740475Y-93266838D01*
X95740475Y-93266838D02*
X95740475Y-93152552D01*
X95740475Y-93152552D02*
X95778571Y-93000171D01*
X95778571Y-93000171D02*
X95816666Y-92923980D01*
X95816666Y-92923980D02*
X95892856Y-92847790D01*
X95892856Y-92847790D02*
X96007142Y-92809695D01*
X96007142Y-92809695D02*
X96083333Y-92809695D01*
X96083333Y-92809695D02*
X96197618Y-92847790D01*
X96197618Y-92847790D02*
X96235714Y-92885885D01*
X96540475Y-92885885D02*
X96578571Y-92847790D01*
X96578571Y-92847790D02*
X96654761Y-92809695D01*
X96654761Y-92809695D02*
X96845237Y-92809695D01*
X96845237Y-92809695D02*
X96921428Y-92847790D01*
X96921428Y-92847790D02*
X96959523Y-92885885D01*
X96959523Y-92885885D02*
X96997618Y-92962076D01*
X96997618Y-92962076D02*
X96997618Y-93038266D01*
X96997618Y-93038266D02*
X96959523Y-93152552D01*
X96959523Y-93152552D02*
X96502380Y-93609695D01*
X96502380Y-93609695D02*
X96997618Y-93609695D01*
X97721428Y-92809695D02*
X97340476Y-92809695D01*
X97340476Y-92809695D02*
X97302380Y-93190647D01*
X97302380Y-93190647D02*
X97340476Y-93152552D01*
X97340476Y-93152552D02*
X97416666Y-93114457D01*
X97416666Y-93114457D02*
X97607142Y-93114457D01*
X97607142Y-93114457D02*
X97683333Y-93152552D01*
X97683333Y-93152552D02*
X97721428Y-93190647D01*
X97721428Y-93190647D02*
X97759523Y-93266838D01*
X97759523Y-93266838D02*
X97759523Y-93457314D01*
X97759523Y-93457314D02*
X97721428Y-93533504D01*
X97721428Y-93533504D02*
X97683333Y-93571600D01*
X97683333Y-93571600D02*
X97607142Y-93609695D01*
X97607142Y-93609695D02*
X97416666Y-93609695D01*
X97416666Y-93609695D02*
X97340476Y-93571600D01*
X97340476Y-93571600D02*
X97302380Y-93533504D01*
X128235714Y-85533504D02*
X128197618Y-85571600D01*
X128197618Y-85571600D02*
X128083333Y-85609695D01*
X128083333Y-85609695D02*
X128007142Y-85609695D01*
X128007142Y-85609695D02*
X127892856Y-85571600D01*
X127892856Y-85571600D02*
X127816666Y-85495409D01*
X127816666Y-85495409D02*
X127778571Y-85419219D01*
X127778571Y-85419219D02*
X127740475Y-85266838D01*
X127740475Y-85266838D02*
X127740475Y-85152552D01*
X127740475Y-85152552D02*
X127778571Y-85000171D01*
X127778571Y-85000171D02*
X127816666Y-84923980D01*
X127816666Y-84923980D02*
X127892856Y-84847790D01*
X127892856Y-84847790D02*
X128007142Y-84809695D01*
X128007142Y-84809695D02*
X128083333Y-84809695D01*
X128083333Y-84809695D02*
X128197618Y-84847790D01*
X128197618Y-84847790D02*
X128235714Y-84885885D01*
X128997618Y-85609695D02*
X128540475Y-85609695D01*
X128769047Y-85609695D02*
X128769047Y-84809695D01*
X128769047Y-84809695D02*
X128692856Y-84923980D01*
X128692856Y-84923980D02*
X128616666Y-85000171D01*
X128616666Y-85000171D02*
X128540475Y-85038266D01*
X129302380Y-84885885D02*
X129340476Y-84847790D01*
X129340476Y-84847790D02*
X129416666Y-84809695D01*
X129416666Y-84809695D02*
X129607142Y-84809695D01*
X129607142Y-84809695D02*
X129683333Y-84847790D01*
X129683333Y-84847790D02*
X129721428Y-84885885D01*
X129721428Y-84885885D02*
X129759523Y-84962076D01*
X129759523Y-84962076D02*
X129759523Y-85038266D01*
X129759523Y-85038266D02*
X129721428Y-85152552D01*
X129721428Y-85152552D02*
X129264285Y-85609695D01*
X129264285Y-85609695D02*
X129759523Y-85609695D01*
X93869048Y-80478742D02*
X93869048Y-80859695D01*
X93602381Y-80059695D02*
X93869048Y-80478742D01*
X93869048Y-80478742D02*
X94135714Y-80059695D01*
X94364285Y-80135885D02*
X94402381Y-80097790D01*
X94402381Y-80097790D02*
X94478571Y-80059695D01*
X94478571Y-80059695D02*
X94669047Y-80059695D01*
X94669047Y-80059695D02*
X94745238Y-80097790D01*
X94745238Y-80097790D02*
X94783333Y-80135885D01*
X94783333Y-80135885D02*
X94821428Y-80212076D01*
X94821428Y-80212076D02*
X94821428Y-80288266D01*
X94821428Y-80288266D02*
X94783333Y-80402552D01*
X94783333Y-80402552D02*
X94326190Y-80859695D01*
X94326190Y-80859695D02*
X94821428Y-80859695D01*
X124235714Y-106609695D02*
X123969047Y-106228742D01*
X123778571Y-106609695D02*
X123778571Y-105809695D01*
X123778571Y-105809695D02*
X124083333Y-105809695D01*
X124083333Y-105809695D02*
X124159523Y-105847790D01*
X124159523Y-105847790D02*
X124197618Y-105885885D01*
X124197618Y-105885885D02*
X124235714Y-105962076D01*
X124235714Y-105962076D02*
X124235714Y-106076361D01*
X124235714Y-106076361D02*
X124197618Y-106152552D01*
X124197618Y-106152552D02*
X124159523Y-106190647D01*
X124159523Y-106190647D02*
X124083333Y-106228742D01*
X124083333Y-106228742D02*
X123778571Y-106228742D01*
X124540475Y-105885885D02*
X124578571Y-105847790D01*
X124578571Y-105847790D02*
X124654761Y-105809695D01*
X124654761Y-105809695D02*
X124845237Y-105809695D01*
X124845237Y-105809695D02*
X124921428Y-105847790D01*
X124921428Y-105847790D02*
X124959523Y-105885885D01*
X124959523Y-105885885D02*
X124997618Y-105962076D01*
X124997618Y-105962076D02*
X124997618Y-106038266D01*
X124997618Y-106038266D02*
X124959523Y-106152552D01*
X124959523Y-106152552D02*
X124502380Y-106609695D01*
X124502380Y-106609695D02*
X124997618Y-106609695D01*
X125378571Y-106609695D02*
X125530952Y-106609695D01*
X125530952Y-106609695D02*
X125607142Y-106571600D01*
X125607142Y-106571600D02*
X125645238Y-106533504D01*
X125645238Y-106533504D02*
X125721428Y-106419219D01*
X125721428Y-106419219D02*
X125759523Y-106266838D01*
X125759523Y-106266838D02*
X125759523Y-105962076D01*
X125759523Y-105962076D02*
X125721428Y-105885885D01*
X125721428Y-105885885D02*
X125683333Y-105847790D01*
X125683333Y-105847790D02*
X125607142Y-105809695D01*
X125607142Y-105809695D02*
X125454761Y-105809695D01*
X125454761Y-105809695D02*
X125378571Y-105847790D01*
X125378571Y-105847790D02*
X125340476Y-105885885D01*
X125340476Y-105885885D02*
X125302380Y-105962076D01*
X125302380Y-105962076D02*
X125302380Y-106152552D01*
X125302380Y-106152552D02*
X125340476Y-106228742D01*
X125340476Y-106228742D02*
X125378571Y-106266838D01*
X125378571Y-106266838D02*
X125454761Y-106304933D01*
X125454761Y-106304933D02*
X125607142Y-106304933D01*
X125607142Y-106304933D02*
X125683333Y-106266838D01*
X125683333Y-106266838D02*
X125721428Y-106228742D01*
X125721428Y-106228742D02*
X125759523Y-106152552D01*
X140259524Y-45539695D02*
X140259524Y-46187314D01*
X140259524Y-46187314D02*
X140297619Y-46263504D01*
X140297619Y-46263504D02*
X140335714Y-46301600D01*
X140335714Y-46301600D02*
X140411905Y-46339695D01*
X140411905Y-46339695D02*
X140564286Y-46339695D01*
X140564286Y-46339695D02*
X140640476Y-46301600D01*
X140640476Y-46301600D02*
X140678571Y-46263504D01*
X140678571Y-46263504D02*
X140716667Y-46187314D01*
X140716667Y-46187314D02*
X140716667Y-45539695D01*
X141516666Y-46339695D02*
X141059523Y-46339695D01*
X141288095Y-46339695D02*
X141288095Y-45539695D01*
X141288095Y-45539695D02*
X141211904Y-45653980D01*
X141211904Y-45653980D02*
X141135714Y-45730171D01*
X141135714Y-45730171D02*
X141059523Y-45768266D01*
X142240476Y-45539695D02*
X141859524Y-45539695D01*
X141859524Y-45539695D02*
X141821428Y-45920647D01*
X141821428Y-45920647D02*
X141859524Y-45882552D01*
X141859524Y-45882552D02*
X141935714Y-45844457D01*
X141935714Y-45844457D02*
X142126190Y-45844457D01*
X142126190Y-45844457D02*
X142202381Y-45882552D01*
X142202381Y-45882552D02*
X142240476Y-45920647D01*
X142240476Y-45920647D02*
X142278571Y-45996838D01*
X142278571Y-45996838D02*
X142278571Y-46187314D01*
X142278571Y-46187314D02*
X142240476Y-46263504D01*
X142240476Y-46263504D02*
X142202381Y-46301600D01*
X142202381Y-46301600D02*
X142126190Y-46339695D01*
X142126190Y-46339695D02*
X141935714Y-46339695D01*
X141935714Y-46339695D02*
X141859524Y-46301600D01*
X141859524Y-46301600D02*
X141821428Y-46263504D01*
X132735714Y-68283504D02*
X132697618Y-68321600D01*
X132697618Y-68321600D02*
X132583333Y-68359695D01*
X132583333Y-68359695D02*
X132507142Y-68359695D01*
X132507142Y-68359695D02*
X132392856Y-68321600D01*
X132392856Y-68321600D02*
X132316666Y-68245409D01*
X132316666Y-68245409D02*
X132278571Y-68169219D01*
X132278571Y-68169219D02*
X132240475Y-68016838D01*
X132240475Y-68016838D02*
X132240475Y-67902552D01*
X132240475Y-67902552D02*
X132278571Y-67750171D01*
X132278571Y-67750171D02*
X132316666Y-67673980D01*
X132316666Y-67673980D02*
X132392856Y-67597790D01*
X132392856Y-67597790D02*
X132507142Y-67559695D01*
X132507142Y-67559695D02*
X132583333Y-67559695D01*
X132583333Y-67559695D02*
X132697618Y-67597790D01*
X132697618Y-67597790D02*
X132735714Y-67635885D01*
X133002380Y-67559695D02*
X133497618Y-67559695D01*
X133497618Y-67559695D02*
X133230952Y-67864457D01*
X133230952Y-67864457D02*
X133345237Y-67864457D01*
X133345237Y-67864457D02*
X133421428Y-67902552D01*
X133421428Y-67902552D02*
X133459523Y-67940647D01*
X133459523Y-67940647D02*
X133497618Y-68016838D01*
X133497618Y-68016838D02*
X133497618Y-68207314D01*
X133497618Y-68207314D02*
X133459523Y-68283504D01*
X133459523Y-68283504D02*
X133421428Y-68321600D01*
X133421428Y-68321600D02*
X133345237Y-68359695D01*
X133345237Y-68359695D02*
X133116666Y-68359695D01*
X133116666Y-68359695D02*
X133040475Y-68321600D01*
X133040475Y-68321600D02*
X133002380Y-68283504D01*
X133802380Y-67635885D02*
X133840476Y-67597790D01*
X133840476Y-67597790D02*
X133916666Y-67559695D01*
X133916666Y-67559695D02*
X134107142Y-67559695D01*
X134107142Y-67559695D02*
X134183333Y-67597790D01*
X134183333Y-67597790D02*
X134221428Y-67635885D01*
X134221428Y-67635885D02*
X134259523Y-67712076D01*
X134259523Y-67712076D02*
X134259523Y-67788266D01*
X134259523Y-67788266D02*
X134221428Y-67902552D01*
X134221428Y-67902552D02*
X133764285Y-68359695D01*
X133764285Y-68359695D02*
X134259523Y-68359695D01*
X143454136Y-83533504D02*
X143416040Y-83571600D01*
X143416040Y-83571600D02*
X143301755Y-83609695D01*
X143301755Y-83609695D02*
X143225564Y-83609695D01*
X143225564Y-83609695D02*
X143111278Y-83571600D01*
X143111278Y-83571600D02*
X143035088Y-83495409D01*
X143035088Y-83495409D02*
X142996993Y-83419219D01*
X142996993Y-83419219D02*
X142958897Y-83266838D01*
X142958897Y-83266838D02*
X142958897Y-83152552D01*
X142958897Y-83152552D02*
X142996993Y-83000171D01*
X142996993Y-83000171D02*
X143035088Y-82923980D01*
X143035088Y-82923980D02*
X143111278Y-82847790D01*
X143111278Y-82847790D02*
X143225564Y-82809695D01*
X143225564Y-82809695D02*
X143301755Y-82809695D01*
X143301755Y-82809695D02*
X143416040Y-82847790D01*
X143416040Y-82847790D02*
X143454136Y-82885885D01*
X143835088Y-83609695D02*
X143987469Y-83609695D01*
X143987469Y-83609695D02*
X144063659Y-83571600D01*
X144063659Y-83571600D02*
X144101755Y-83533504D01*
X144101755Y-83533504D02*
X144177945Y-83419219D01*
X144177945Y-83419219D02*
X144216040Y-83266838D01*
X144216040Y-83266838D02*
X144216040Y-82962076D01*
X144216040Y-82962076D02*
X144177945Y-82885885D01*
X144177945Y-82885885D02*
X144139850Y-82847790D01*
X144139850Y-82847790D02*
X144063659Y-82809695D01*
X144063659Y-82809695D02*
X143911278Y-82809695D01*
X143911278Y-82809695D02*
X143835088Y-82847790D01*
X143835088Y-82847790D02*
X143796993Y-82885885D01*
X143796993Y-82885885D02*
X143758897Y-82962076D01*
X143758897Y-82962076D02*
X143758897Y-83152552D01*
X143758897Y-83152552D02*
X143796993Y-83228742D01*
X143796993Y-83228742D02*
X143835088Y-83266838D01*
X143835088Y-83266838D02*
X143911278Y-83304933D01*
X143911278Y-83304933D02*
X144063659Y-83304933D01*
X144063659Y-83304933D02*
X144139850Y-83266838D01*
X144139850Y-83266838D02*
X144177945Y-83228742D01*
X144177945Y-83228742D02*
X144216040Y-83152552D01*
X115235714Y-69533504D02*
X115197618Y-69571600D01*
X115197618Y-69571600D02*
X115083333Y-69609695D01*
X115083333Y-69609695D02*
X115007142Y-69609695D01*
X115007142Y-69609695D02*
X114892856Y-69571600D01*
X114892856Y-69571600D02*
X114816666Y-69495409D01*
X114816666Y-69495409D02*
X114778571Y-69419219D01*
X114778571Y-69419219D02*
X114740475Y-69266838D01*
X114740475Y-69266838D02*
X114740475Y-69152552D01*
X114740475Y-69152552D02*
X114778571Y-69000171D01*
X114778571Y-69000171D02*
X114816666Y-68923980D01*
X114816666Y-68923980D02*
X114892856Y-68847790D01*
X114892856Y-68847790D02*
X115007142Y-68809695D01*
X115007142Y-68809695D02*
X115083333Y-68809695D01*
X115083333Y-68809695D02*
X115197618Y-68847790D01*
X115197618Y-68847790D02*
X115235714Y-68885885D01*
X115540475Y-68885885D02*
X115578571Y-68847790D01*
X115578571Y-68847790D02*
X115654761Y-68809695D01*
X115654761Y-68809695D02*
X115845237Y-68809695D01*
X115845237Y-68809695D02*
X115921428Y-68847790D01*
X115921428Y-68847790D02*
X115959523Y-68885885D01*
X115959523Y-68885885D02*
X115997618Y-68962076D01*
X115997618Y-68962076D02*
X115997618Y-69038266D01*
X115997618Y-69038266D02*
X115959523Y-69152552D01*
X115959523Y-69152552D02*
X115502380Y-69609695D01*
X115502380Y-69609695D02*
X115997618Y-69609695D01*
X116378571Y-69609695D02*
X116530952Y-69609695D01*
X116530952Y-69609695D02*
X116607142Y-69571600D01*
X116607142Y-69571600D02*
X116645238Y-69533504D01*
X116645238Y-69533504D02*
X116721428Y-69419219D01*
X116721428Y-69419219D02*
X116759523Y-69266838D01*
X116759523Y-69266838D02*
X116759523Y-68962076D01*
X116759523Y-68962076D02*
X116721428Y-68885885D01*
X116721428Y-68885885D02*
X116683333Y-68847790D01*
X116683333Y-68847790D02*
X116607142Y-68809695D01*
X116607142Y-68809695D02*
X116454761Y-68809695D01*
X116454761Y-68809695D02*
X116378571Y-68847790D01*
X116378571Y-68847790D02*
X116340476Y-68885885D01*
X116340476Y-68885885D02*
X116302380Y-68962076D01*
X116302380Y-68962076D02*
X116302380Y-69152552D01*
X116302380Y-69152552D02*
X116340476Y-69228742D01*
X116340476Y-69228742D02*
X116378571Y-69266838D01*
X116378571Y-69266838D02*
X116454761Y-69304933D01*
X116454761Y-69304933D02*
X116607142Y-69304933D01*
X116607142Y-69304933D02*
X116683333Y-69266838D01*
X116683333Y-69266838D02*
X116721428Y-69228742D01*
X116721428Y-69228742D02*
X116759523Y-69152552D01*
X104390476Y-58559695D02*
X104390476Y-59207314D01*
X104390476Y-59207314D02*
X104428571Y-59283504D01*
X104428571Y-59283504D02*
X104466666Y-59321600D01*
X104466666Y-59321600D02*
X104542857Y-59359695D01*
X104542857Y-59359695D02*
X104695238Y-59359695D01*
X104695238Y-59359695D02*
X104771428Y-59321600D01*
X104771428Y-59321600D02*
X104809523Y-59283504D01*
X104809523Y-59283504D02*
X104847619Y-59207314D01*
X104847619Y-59207314D02*
X104847619Y-58559695D01*
X105152380Y-58559695D02*
X105685714Y-58559695D01*
X105685714Y-58559695D02*
X105342856Y-59359695D01*
X121235714Y-90359695D02*
X120969047Y-89978742D01*
X120778571Y-90359695D02*
X120778571Y-89559695D01*
X120778571Y-89559695D02*
X121083333Y-89559695D01*
X121083333Y-89559695D02*
X121159523Y-89597790D01*
X121159523Y-89597790D02*
X121197618Y-89635885D01*
X121197618Y-89635885D02*
X121235714Y-89712076D01*
X121235714Y-89712076D02*
X121235714Y-89826361D01*
X121235714Y-89826361D02*
X121197618Y-89902552D01*
X121197618Y-89902552D02*
X121159523Y-89940647D01*
X121159523Y-89940647D02*
X121083333Y-89978742D01*
X121083333Y-89978742D02*
X120778571Y-89978742D01*
X121997618Y-90359695D02*
X121540475Y-90359695D01*
X121769047Y-90359695D02*
X121769047Y-89559695D01*
X121769047Y-89559695D02*
X121692856Y-89673980D01*
X121692856Y-89673980D02*
X121616666Y-89750171D01*
X121616666Y-89750171D02*
X121540475Y-89788266D01*
X122683333Y-89559695D02*
X122530952Y-89559695D01*
X122530952Y-89559695D02*
X122454761Y-89597790D01*
X122454761Y-89597790D02*
X122416666Y-89635885D01*
X122416666Y-89635885D02*
X122340476Y-89750171D01*
X122340476Y-89750171D02*
X122302380Y-89902552D01*
X122302380Y-89902552D02*
X122302380Y-90207314D01*
X122302380Y-90207314D02*
X122340476Y-90283504D01*
X122340476Y-90283504D02*
X122378571Y-90321600D01*
X122378571Y-90321600D02*
X122454761Y-90359695D01*
X122454761Y-90359695D02*
X122607142Y-90359695D01*
X122607142Y-90359695D02*
X122683333Y-90321600D01*
X122683333Y-90321600D02*
X122721428Y-90283504D01*
X122721428Y-90283504D02*
X122759523Y-90207314D01*
X122759523Y-90207314D02*
X122759523Y-90016838D01*
X122759523Y-90016838D02*
X122721428Y-89940647D01*
X122721428Y-89940647D02*
X122683333Y-89902552D01*
X122683333Y-89902552D02*
X122607142Y-89864457D01*
X122607142Y-89864457D02*
X122454761Y-89864457D01*
X122454761Y-89864457D02*
X122378571Y-89902552D01*
X122378571Y-89902552D02*
X122340476Y-89940647D01*
X122340476Y-89940647D02*
X122302380Y-90016838D01*
X138485714Y-96359695D02*
X138219047Y-95978742D01*
X138028571Y-96359695D02*
X138028571Y-95559695D01*
X138028571Y-95559695D02*
X138333333Y-95559695D01*
X138333333Y-95559695D02*
X138409523Y-95597790D01*
X138409523Y-95597790D02*
X138447618Y-95635885D01*
X138447618Y-95635885D02*
X138485714Y-95712076D01*
X138485714Y-95712076D02*
X138485714Y-95826361D01*
X138485714Y-95826361D02*
X138447618Y-95902552D01*
X138447618Y-95902552D02*
X138409523Y-95940647D01*
X138409523Y-95940647D02*
X138333333Y-95978742D01*
X138333333Y-95978742D02*
X138028571Y-95978742D01*
X139247618Y-96359695D02*
X138790475Y-96359695D01*
X139019047Y-96359695D02*
X139019047Y-95559695D01*
X139019047Y-95559695D02*
X138942856Y-95673980D01*
X138942856Y-95673980D02*
X138866666Y-95750171D01*
X138866666Y-95750171D02*
X138790475Y-95788266D01*
X139552380Y-95635885D02*
X139590476Y-95597790D01*
X139590476Y-95597790D02*
X139666666Y-95559695D01*
X139666666Y-95559695D02*
X139857142Y-95559695D01*
X139857142Y-95559695D02*
X139933333Y-95597790D01*
X139933333Y-95597790D02*
X139971428Y-95635885D01*
X139971428Y-95635885D02*
X140009523Y-95712076D01*
X140009523Y-95712076D02*
X140009523Y-95788266D01*
X140009523Y-95788266D02*
X139971428Y-95902552D01*
X139971428Y-95902552D02*
X139514285Y-96359695D01*
X139514285Y-96359695D02*
X140009523Y-96359695D01*
X141235714Y-101283504D02*
X141197618Y-101321600D01*
X141197618Y-101321600D02*
X141083333Y-101359695D01*
X141083333Y-101359695D02*
X141007142Y-101359695D01*
X141007142Y-101359695D02*
X140892856Y-101321600D01*
X140892856Y-101321600D02*
X140816666Y-101245409D01*
X140816666Y-101245409D02*
X140778571Y-101169219D01*
X140778571Y-101169219D02*
X140740475Y-101016838D01*
X140740475Y-101016838D02*
X140740475Y-100902552D01*
X140740475Y-100902552D02*
X140778571Y-100750171D01*
X140778571Y-100750171D02*
X140816666Y-100673980D01*
X140816666Y-100673980D02*
X140892856Y-100597790D01*
X140892856Y-100597790D02*
X141007142Y-100559695D01*
X141007142Y-100559695D02*
X141083333Y-100559695D01*
X141083333Y-100559695D02*
X141197618Y-100597790D01*
X141197618Y-100597790D02*
X141235714Y-100635885D01*
X141997618Y-101359695D02*
X141540475Y-101359695D01*
X141769047Y-101359695D02*
X141769047Y-100559695D01*
X141769047Y-100559695D02*
X141692856Y-100673980D01*
X141692856Y-100673980D02*
X141616666Y-100750171D01*
X141616666Y-100750171D02*
X141540475Y-100788266D01*
X142683333Y-100826361D02*
X142683333Y-101359695D01*
X142492857Y-100521600D02*
X142302380Y-101093028D01*
X142302380Y-101093028D02*
X142797619Y-101093028D01*
X90235714Y-69783504D02*
X90197618Y-69821600D01*
X90197618Y-69821600D02*
X90083333Y-69859695D01*
X90083333Y-69859695D02*
X90007142Y-69859695D01*
X90007142Y-69859695D02*
X89892856Y-69821600D01*
X89892856Y-69821600D02*
X89816666Y-69745409D01*
X89816666Y-69745409D02*
X89778571Y-69669219D01*
X89778571Y-69669219D02*
X89740475Y-69516838D01*
X89740475Y-69516838D02*
X89740475Y-69402552D01*
X89740475Y-69402552D02*
X89778571Y-69250171D01*
X89778571Y-69250171D02*
X89816666Y-69173980D01*
X89816666Y-69173980D02*
X89892856Y-69097790D01*
X89892856Y-69097790D02*
X90007142Y-69059695D01*
X90007142Y-69059695D02*
X90083333Y-69059695D01*
X90083333Y-69059695D02*
X90197618Y-69097790D01*
X90197618Y-69097790D02*
X90235714Y-69135885D01*
X90540475Y-69135885D02*
X90578571Y-69097790D01*
X90578571Y-69097790D02*
X90654761Y-69059695D01*
X90654761Y-69059695D02*
X90845237Y-69059695D01*
X90845237Y-69059695D02*
X90921428Y-69097790D01*
X90921428Y-69097790D02*
X90959523Y-69135885D01*
X90959523Y-69135885D02*
X90997618Y-69212076D01*
X90997618Y-69212076D02*
X90997618Y-69288266D01*
X90997618Y-69288266D02*
X90959523Y-69402552D01*
X90959523Y-69402552D02*
X90502380Y-69859695D01*
X90502380Y-69859695D02*
X90997618Y-69859695D01*
X91759523Y-69859695D02*
X91302380Y-69859695D01*
X91530952Y-69859695D02*
X91530952Y-69059695D01*
X91530952Y-69059695D02*
X91454761Y-69173980D01*
X91454761Y-69173980D02*
X91378571Y-69250171D01*
X91378571Y-69250171D02*
X91302380Y-69288266D01*
X138423809Y-110685885D02*
X138347619Y-110647790D01*
X138347619Y-110647790D02*
X138271428Y-110571600D01*
X138271428Y-110571600D02*
X138157142Y-110457314D01*
X138157142Y-110457314D02*
X138080952Y-110419219D01*
X138080952Y-110419219D02*
X138004761Y-110419219D01*
X138042857Y-110609695D02*
X137966666Y-110571600D01*
X137966666Y-110571600D02*
X137890476Y-110495409D01*
X137890476Y-110495409D02*
X137852380Y-110343028D01*
X137852380Y-110343028D02*
X137852380Y-110076361D01*
X137852380Y-110076361D02*
X137890476Y-109923980D01*
X137890476Y-109923980D02*
X137966666Y-109847790D01*
X137966666Y-109847790D02*
X138042857Y-109809695D01*
X138042857Y-109809695D02*
X138195238Y-109809695D01*
X138195238Y-109809695D02*
X138271428Y-109847790D01*
X138271428Y-109847790D02*
X138347619Y-109923980D01*
X138347619Y-109923980D02*
X138385714Y-110076361D01*
X138385714Y-110076361D02*
X138385714Y-110343028D01*
X138385714Y-110343028D02*
X138347619Y-110495409D01*
X138347619Y-110495409D02*
X138271428Y-110571600D01*
X138271428Y-110571600D02*
X138195238Y-110609695D01*
X138195238Y-110609695D02*
X138042857Y-110609695D01*
X138690475Y-109885885D02*
X138728571Y-109847790D01*
X138728571Y-109847790D02*
X138804761Y-109809695D01*
X138804761Y-109809695D02*
X138995237Y-109809695D01*
X138995237Y-109809695D02*
X139071428Y-109847790D01*
X139071428Y-109847790D02*
X139109523Y-109885885D01*
X139109523Y-109885885D02*
X139147618Y-109962076D01*
X139147618Y-109962076D02*
X139147618Y-110038266D01*
X139147618Y-110038266D02*
X139109523Y-110152552D01*
X139109523Y-110152552D02*
X138652380Y-110609695D01*
X138652380Y-110609695D02*
X139147618Y-110609695D01*
X149709695Y-73990475D02*
X150357314Y-73990475D01*
X150357314Y-73990475D02*
X150433504Y-73952380D01*
X150433504Y-73952380D02*
X150471600Y-73914285D01*
X150471600Y-73914285D02*
X150509695Y-73838094D01*
X150509695Y-73838094D02*
X150509695Y-73685713D01*
X150509695Y-73685713D02*
X150471600Y-73609523D01*
X150471600Y-73609523D02*
X150433504Y-73571428D01*
X150433504Y-73571428D02*
X150357314Y-73533332D01*
X150357314Y-73533332D02*
X149709695Y-73533332D01*
X150509695Y-72733333D02*
X150509695Y-73190476D01*
X150509695Y-72961904D02*
X149709695Y-72961904D01*
X149709695Y-72961904D02*
X149823980Y-73038095D01*
X149823980Y-73038095D02*
X149900171Y-73114285D01*
X149900171Y-73114285D02*
X149938266Y-73190476D01*
X149976361Y-72047618D02*
X150509695Y-72047618D01*
X149671600Y-72238094D02*
X150243028Y-72428571D01*
X150243028Y-72428571D02*
X150243028Y-71933332D01*
X111009524Y-110809695D02*
X111009524Y-111457314D01*
X111009524Y-111457314D02*
X111047619Y-111533504D01*
X111047619Y-111533504D02*
X111085714Y-111571600D01*
X111085714Y-111571600D02*
X111161905Y-111609695D01*
X111161905Y-111609695D02*
X111314286Y-111609695D01*
X111314286Y-111609695D02*
X111390476Y-111571600D01*
X111390476Y-111571600D02*
X111428571Y-111533504D01*
X111428571Y-111533504D02*
X111466667Y-111457314D01*
X111466667Y-111457314D02*
X111466667Y-110809695D01*
X112266666Y-111609695D02*
X111809523Y-111609695D01*
X112038095Y-111609695D02*
X112038095Y-110809695D01*
X112038095Y-110809695D02*
X111961904Y-110923980D01*
X111961904Y-110923980D02*
X111885714Y-111000171D01*
X111885714Y-111000171D02*
X111809523Y-111038266D01*
X112761905Y-110809695D02*
X112838095Y-110809695D01*
X112838095Y-110809695D02*
X112914286Y-110847790D01*
X112914286Y-110847790D02*
X112952381Y-110885885D01*
X112952381Y-110885885D02*
X112990476Y-110962076D01*
X112990476Y-110962076D02*
X113028571Y-111114457D01*
X113028571Y-111114457D02*
X113028571Y-111304933D01*
X113028571Y-111304933D02*
X112990476Y-111457314D01*
X112990476Y-111457314D02*
X112952381Y-111533504D01*
X112952381Y-111533504D02*
X112914286Y-111571600D01*
X112914286Y-111571600D02*
X112838095Y-111609695D01*
X112838095Y-111609695D02*
X112761905Y-111609695D01*
X112761905Y-111609695D02*
X112685714Y-111571600D01*
X112685714Y-111571600D02*
X112647619Y-111533504D01*
X112647619Y-111533504D02*
X112609524Y-111457314D01*
X112609524Y-111457314D02*
X112571428Y-111304933D01*
X112571428Y-111304933D02*
X112571428Y-111114457D01*
X112571428Y-111114457D02*
X112609524Y-110962076D01*
X112609524Y-110962076D02*
X112647619Y-110885885D01*
X112647619Y-110885885D02*
X112685714Y-110847790D01*
X112685714Y-110847790D02*
X112761905Y-110809695D01*
X129485714Y-72033504D02*
X129447618Y-72071600D01*
X129447618Y-72071600D02*
X129333333Y-72109695D01*
X129333333Y-72109695D02*
X129257142Y-72109695D01*
X129257142Y-72109695D02*
X129142856Y-72071600D01*
X129142856Y-72071600D02*
X129066666Y-71995409D01*
X129066666Y-71995409D02*
X129028571Y-71919219D01*
X129028571Y-71919219D02*
X128990475Y-71766838D01*
X128990475Y-71766838D02*
X128990475Y-71652552D01*
X128990475Y-71652552D02*
X129028571Y-71500171D01*
X129028571Y-71500171D02*
X129066666Y-71423980D01*
X129066666Y-71423980D02*
X129142856Y-71347790D01*
X129142856Y-71347790D02*
X129257142Y-71309695D01*
X129257142Y-71309695D02*
X129333333Y-71309695D01*
X129333333Y-71309695D02*
X129447618Y-71347790D01*
X129447618Y-71347790D02*
X129485714Y-71385885D01*
X129752380Y-71309695D02*
X130247618Y-71309695D01*
X130247618Y-71309695D02*
X129980952Y-71614457D01*
X129980952Y-71614457D02*
X130095237Y-71614457D01*
X130095237Y-71614457D02*
X130171428Y-71652552D01*
X130171428Y-71652552D02*
X130209523Y-71690647D01*
X130209523Y-71690647D02*
X130247618Y-71766838D01*
X130247618Y-71766838D02*
X130247618Y-71957314D01*
X130247618Y-71957314D02*
X130209523Y-72033504D01*
X130209523Y-72033504D02*
X130171428Y-72071600D01*
X130171428Y-72071600D02*
X130095237Y-72109695D01*
X130095237Y-72109695D02*
X129866666Y-72109695D01*
X129866666Y-72109695D02*
X129790475Y-72071600D01*
X129790475Y-72071600D02*
X129752380Y-72033504D01*
X130742857Y-71309695D02*
X130819047Y-71309695D01*
X130819047Y-71309695D02*
X130895238Y-71347790D01*
X130895238Y-71347790D02*
X130933333Y-71385885D01*
X130933333Y-71385885D02*
X130971428Y-71462076D01*
X130971428Y-71462076D02*
X131009523Y-71614457D01*
X131009523Y-71614457D02*
X131009523Y-71804933D01*
X131009523Y-71804933D02*
X130971428Y-71957314D01*
X130971428Y-71957314D02*
X130933333Y-72033504D01*
X130933333Y-72033504D02*
X130895238Y-72071600D01*
X130895238Y-72071600D02*
X130819047Y-72109695D01*
X130819047Y-72109695D02*
X130742857Y-72109695D01*
X130742857Y-72109695D02*
X130666666Y-72071600D01*
X130666666Y-72071600D02*
X130628571Y-72033504D01*
X130628571Y-72033504D02*
X130590476Y-71957314D01*
X130590476Y-71957314D02*
X130552380Y-71804933D01*
X130552380Y-71804933D02*
X130552380Y-71614457D01*
X130552380Y-71614457D02*
X130590476Y-71462076D01*
X130590476Y-71462076D02*
X130628571Y-71385885D01*
X130628571Y-71385885D02*
X130666666Y-71347790D01*
X130666666Y-71347790D02*
X130742857Y-71309695D01*
X139366667Y-83009695D02*
X139100000Y-82628742D01*
X138909524Y-83009695D02*
X138909524Y-82209695D01*
X138909524Y-82209695D02*
X139214286Y-82209695D01*
X139214286Y-82209695D02*
X139290476Y-82247790D01*
X139290476Y-82247790D02*
X139328571Y-82285885D01*
X139328571Y-82285885D02*
X139366667Y-82362076D01*
X139366667Y-82362076D02*
X139366667Y-82476361D01*
X139366667Y-82476361D02*
X139328571Y-82552552D01*
X139328571Y-82552552D02*
X139290476Y-82590647D01*
X139290476Y-82590647D02*
X139214286Y-82628742D01*
X139214286Y-82628742D02*
X138909524Y-82628742D01*
X140052381Y-82476361D02*
X140052381Y-83009695D01*
X139861905Y-82171600D02*
X139671428Y-82743028D01*
X139671428Y-82743028D02*
X140166667Y-82743028D01*
X93235714Y-57359695D02*
X92969047Y-56978742D01*
X92778571Y-57359695D02*
X92778571Y-56559695D01*
X92778571Y-56559695D02*
X93083333Y-56559695D01*
X93083333Y-56559695D02*
X93159523Y-56597790D01*
X93159523Y-56597790D02*
X93197618Y-56635885D01*
X93197618Y-56635885D02*
X93235714Y-56712076D01*
X93235714Y-56712076D02*
X93235714Y-56826361D01*
X93235714Y-56826361D02*
X93197618Y-56902552D01*
X93197618Y-56902552D02*
X93159523Y-56940647D01*
X93159523Y-56940647D02*
X93083333Y-56978742D01*
X93083333Y-56978742D02*
X92778571Y-56978742D01*
X93997618Y-57359695D02*
X93540475Y-57359695D01*
X93769047Y-57359695D02*
X93769047Y-56559695D01*
X93769047Y-56559695D02*
X93692856Y-56673980D01*
X93692856Y-56673980D02*
X93616666Y-56750171D01*
X93616666Y-56750171D02*
X93540475Y-56788266D01*
X94378571Y-57359695D02*
X94530952Y-57359695D01*
X94530952Y-57359695D02*
X94607142Y-57321600D01*
X94607142Y-57321600D02*
X94645238Y-57283504D01*
X94645238Y-57283504D02*
X94721428Y-57169219D01*
X94721428Y-57169219D02*
X94759523Y-57016838D01*
X94759523Y-57016838D02*
X94759523Y-56712076D01*
X94759523Y-56712076D02*
X94721428Y-56635885D01*
X94721428Y-56635885D02*
X94683333Y-56597790D01*
X94683333Y-56597790D02*
X94607142Y-56559695D01*
X94607142Y-56559695D02*
X94454761Y-56559695D01*
X94454761Y-56559695D02*
X94378571Y-56597790D01*
X94378571Y-56597790D02*
X94340476Y-56635885D01*
X94340476Y-56635885D02*
X94302380Y-56712076D01*
X94302380Y-56712076D02*
X94302380Y-56902552D01*
X94302380Y-56902552D02*
X94340476Y-56978742D01*
X94340476Y-56978742D02*
X94378571Y-57016838D01*
X94378571Y-57016838D02*
X94454761Y-57054933D01*
X94454761Y-57054933D02*
X94607142Y-57054933D01*
X94607142Y-57054933D02*
X94683333Y-57016838D01*
X94683333Y-57016838D02*
X94721428Y-56978742D01*
X94721428Y-56978742D02*
X94759523Y-56902552D01*
X139366667Y-87609695D02*
X139100000Y-87228742D01*
X138909524Y-87609695D02*
X138909524Y-86809695D01*
X138909524Y-86809695D02*
X139214286Y-86809695D01*
X139214286Y-86809695D02*
X139290476Y-86847790D01*
X139290476Y-86847790D02*
X139328571Y-86885885D01*
X139328571Y-86885885D02*
X139366667Y-86962076D01*
X139366667Y-86962076D02*
X139366667Y-87076361D01*
X139366667Y-87076361D02*
X139328571Y-87152552D01*
X139328571Y-87152552D02*
X139290476Y-87190647D01*
X139290476Y-87190647D02*
X139214286Y-87228742D01*
X139214286Y-87228742D02*
X138909524Y-87228742D01*
X140090476Y-86809695D02*
X139709524Y-86809695D01*
X139709524Y-86809695D02*
X139671428Y-87190647D01*
X139671428Y-87190647D02*
X139709524Y-87152552D01*
X139709524Y-87152552D02*
X139785714Y-87114457D01*
X139785714Y-87114457D02*
X139976190Y-87114457D01*
X139976190Y-87114457D02*
X140052381Y-87152552D01*
X140052381Y-87152552D02*
X140090476Y-87190647D01*
X140090476Y-87190647D02*
X140128571Y-87266838D01*
X140128571Y-87266838D02*
X140128571Y-87457314D01*
X140128571Y-87457314D02*
X140090476Y-87533504D01*
X140090476Y-87533504D02*
X140052381Y-87571600D01*
X140052381Y-87571600D02*
X139976190Y-87609695D01*
X139976190Y-87609695D02*
X139785714Y-87609695D01*
X139785714Y-87609695D02*
X139709524Y-87571600D01*
X139709524Y-87571600D02*
X139671428Y-87533504D01*
X132890476Y-84829695D02*
X132890476Y-85477314D01*
X132890476Y-85477314D02*
X132928571Y-85553504D01*
X132928571Y-85553504D02*
X132966666Y-85591600D01*
X132966666Y-85591600D02*
X133042857Y-85629695D01*
X133042857Y-85629695D02*
X133195238Y-85629695D01*
X133195238Y-85629695D02*
X133271428Y-85591600D01*
X133271428Y-85591600D02*
X133309523Y-85553504D01*
X133309523Y-85553504D02*
X133347619Y-85477314D01*
X133347619Y-85477314D02*
X133347619Y-84829695D01*
X134071428Y-85096361D02*
X134071428Y-85629695D01*
X133880952Y-84791600D02*
X133690475Y-85363028D01*
X133690475Y-85363028D02*
X134185714Y-85363028D01*
%TO.C,C40*%
D12*
X144488748Y-55755000D02*
X145011252Y-55755000D01*
X144488748Y-54285000D02*
X145011252Y-54285000D01*
%TO.C,U16*%
X146450000Y-53780000D02*
X146690000Y-54110000D01*
X146210000Y-54110000D01*
X146450000Y-53780000D01*
G36*
X146690000Y-54110000D02*
G01*
X146210000Y-54110000D01*
X146450000Y-53780000D01*
X146690000Y-54110000D01*
G37*
X145910000Y-53830000D02*
X144090000Y-53830000D01*
X145910000Y-53780000D02*
X145910000Y-53830000D01*
X145910000Y-50710000D02*
X145910000Y-50760000D01*
X144090000Y-53830000D02*
X144090000Y-53780000D01*
X144090000Y-52660000D02*
X144090000Y-51880000D01*
X144090000Y-50760000D02*
X144090000Y-50710000D01*
X144090000Y-50710000D02*
X145910000Y-50710000D01*
%TO.C,R37*%
X148265000Y-52727064D02*
X148265000Y-52272936D01*
X149735000Y-52727064D02*
X149735000Y-52272936D01*
%TO.C,R36*%
X147765000Y-43727064D02*
X147765000Y-43272936D01*
X149235000Y-43727064D02*
X149235000Y-43272936D01*
%TO.C,C33*%
X132988748Y-63015000D02*
X133511252Y-63015000D01*
X132988748Y-64485000D02*
X133511252Y-64485000D01*
%TO.C,R13*%
X138765000Y-98272936D02*
X138765000Y-98727064D01*
X140235000Y-98272936D02*
X140235000Y-98727064D01*
%TO.C,Q1*%
X129355000Y-96275000D02*
X129355000Y-96545000D01*
X129355000Y-103175000D02*
X129355000Y-102905000D01*
X135775000Y-96275000D02*
X129355000Y-96275000D01*
X135775000Y-103175000D02*
X129355000Y-103175000D01*
X127625000Y-96585000D02*
X127285000Y-96115000D01*
X127965000Y-96115000D01*
X127625000Y-96585000D01*
G36*
X127625000Y-96585000D02*
G01*
X127285000Y-96115000D01*
X127965000Y-96115000D01*
X127625000Y-96585000D01*
G37*
%TO.C,C26*%
X97515000Y-81988748D02*
X97515000Y-82511252D01*
X98985000Y-81988748D02*
X98985000Y-82511252D01*
%TO.C,J7*%
X141345000Y-82130000D02*
X141345000Y-80750000D01*
X142725000Y-82130000D02*
X141345000Y-82130000D01*
X143995000Y-79370000D02*
X146645000Y-79370000D01*
X143995000Y-82130000D02*
X143995000Y-79370000D01*
X143995000Y-82130000D02*
X146645000Y-82130000D01*
X146645000Y-82130000D02*
X146645000Y-79370000D01*
%TO.C,J2*%
D10*
X87826345Y-119900000D02*
G75*
G02*
X87626345Y-119900000I-100000J0D01*
G01*
X87626345Y-119900000D02*
G75*
G02*
X87826345Y-119900000I100000J0D01*
G01*
%TO.C,R28*%
D12*
X113272936Y-104265000D02*
X113727064Y-104265000D01*
X113272936Y-105735000D02*
X113727064Y-105735000D01*
%TO.C,C10*%
X141015000Y-89238748D02*
X141015000Y-89761252D01*
X142485000Y-89238748D02*
X142485000Y-89761252D01*
%TO.C,C36*%
X149011252Y-80765000D02*
X148488748Y-80765000D01*
X149011252Y-82235000D02*
X148488748Y-82235000D01*
%TO.C,D6*%
X147015000Y-97265000D02*
X147015000Y-98735000D01*
X147015000Y-98735000D02*
X149300000Y-98735000D01*
X149300000Y-97265000D02*
X147015000Y-97265000D01*
%TO.C,C8*%
X93250000Y-114500000D02*
X93250000Y-118500000D01*
X93250000Y-118500000D02*
X98000000Y-118500000D01*
X98000000Y-114500000D02*
X93250000Y-114500000D01*
%TO.C,C18*%
X112438748Y-72515000D02*
X112961252Y-72515000D01*
X112438748Y-73985000D02*
X112961252Y-73985000D01*
%TO.C,D10*%
X139850000Y-119260000D02*
X139850000Y-113750000D01*
X139850000Y-119260000D02*
X143150000Y-119260000D01*
X143150000Y-119260000D02*
X143150000Y-113750000D01*
%TO.C,D7*%
X147015000Y-101265000D02*
X147015000Y-102735000D01*
X147015000Y-102735000D02*
X149300000Y-102735000D01*
X149300000Y-101265000D02*
X147015000Y-101265000D01*
%TO.C,R18*%
X95765000Y-59522936D02*
X95765000Y-59977064D01*
X97235000Y-59522936D02*
X97235000Y-59977064D01*
%TO.C,C7*%
X95488748Y-118865000D02*
X96011252Y-118865000D01*
X95488748Y-120335000D02*
X96011252Y-120335000D01*
%TO.C,R39*%
X148515000Y-57792936D02*
X148515000Y-58247064D01*
X149985000Y-57792936D02*
X149985000Y-58247064D01*
%TO.C,R33*%
X144522936Y-77265000D02*
X144977064Y-77265000D01*
X144522936Y-78735000D02*
X144977064Y-78735000D01*
%TO.C,C13*%
X141015000Y-93238748D02*
X141015000Y-93761252D01*
X142485000Y-93238748D02*
X142485000Y-93761252D01*
%TO.C,C24*%
X98215000Y-91011252D02*
X98215000Y-90488748D01*
X99685000Y-91011252D02*
X99685000Y-90488748D01*
%TO.C,Y1*%
X92390000Y-66290000D02*
X92390000Y-79010000D01*
X92390000Y-79010000D02*
X97610000Y-79010000D01*
X97610000Y-79010000D02*
X97610000Y-66290000D01*
%TO.C,R24*%
X113185436Y-96765000D02*
X113639564Y-96765000D01*
X113185436Y-98235000D02*
X113639564Y-98235000D01*
%TO.C,R38*%
X149235000Y-47272936D02*
X149235000Y-47727064D01*
X147765000Y-47272936D02*
X147765000Y-47727064D01*
%TO.C,C22*%
X109651248Y-96765000D02*
X110173752Y-96765000D01*
X109651248Y-98235000D02*
X110173752Y-98235000D01*
%TO.C,C38*%
X144238748Y-47265000D02*
X144761252Y-47265000D01*
X144238748Y-48735000D02*
X144761252Y-48735000D01*
%TO.C,FB3*%
X100390000Y-90300378D02*
X100390000Y-91099622D01*
X101510000Y-90300378D02*
X101510000Y-91099622D01*
%TO.C,C39*%
X94765000Y-63761252D02*
X94765000Y-63238748D01*
X96235000Y-63761252D02*
X96235000Y-63238748D01*
%TO.C,R21*%
X108427064Y-78865000D02*
X107972936Y-78865000D01*
X108427064Y-80335000D02*
X107972936Y-80335000D01*
%TO.C,U13*%
X122940000Y-61190000D02*
X127060000Y-61190000D01*
X122940000Y-61245000D02*
X122940000Y-61190000D01*
X122940000Y-71310000D02*
X122940000Y-71255000D01*
X127060000Y-61190000D02*
X127060000Y-61245000D01*
X127060000Y-71255000D02*
X127060000Y-71310000D01*
X127060000Y-71310000D02*
X122940000Y-71310000D01*
X127600000Y-71260000D02*
X127840000Y-71590000D01*
X127360000Y-71590000D01*
X127600000Y-71260000D01*
G36*
X127840000Y-71590000D02*
G01*
X127360000Y-71590000D01*
X127600000Y-71260000D01*
X127840000Y-71590000D01*
G37*
%TO.C,C15*%
X125765000Y-90011252D02*
X125765000Y-89488748D01*
X127235000Y-90011252D02*
X127235000Y-89488748D01*
%TO.C,R20*%
X103172936Y-78865000D02*
X103627064Y-78865000D01*
X103172936Y-80335000D02*
X103627064Y-80335000D01*
%TO.C,U12*%
X90440000Y-87190000D02*
X90535000Y-87190000D01*
X90440000Y-91310000D02*
X90440000Y-87190000D01*
X90535000Y-91310000D02*
X90440000Y-91310000D01*
X95465000Y-87190000D02*
X95560000Y-87190000D01*
X95560000Y-87190000D02*
X95560000Y-91310000D01*
X95560000Y-91310000D02*
X95465000Y-91310000D01*
X95470000Y-86650000D02*
X95800000Y-86410000D01*
X95800000Y-86890000D01*
X95470000Y-86650000D01*
G36*
X95800000Y-86890000D02*
G01*
X95470000Y-86650000D01*
X95800000Y-86410000D01*
X95800000Y-86890000D01*
G37*
%TO.C,FB5*%
X147149622Y-82940000D02*
X146350378Y-82940000D01*
X147149622Y-84060000D02*
X146350378Y-84060000D01*
%TO.C,R17*%
X123265000Y-93772936D02*
X123265000Y-94227064D01*
X124735000Y-93772936D02*
X124735000Y-94227064D01*
%TO.C,R3*%
X144814564Y-90765000D02*
X144360436Y-90765000D01*
X144814564Y-92235000D02*
X144360436Y-92235000D01*
%TO.C,C37*%
X148488748Y-78515000D02*
X149011252Y-78515000D01*
X148488748Y-79985000D02*
X149011252Y-79985000D01*
%TO.C,R30*%
X119272936Y-65065000D02*
X119727064Y-65065000D01*
X119272936Y-66535000D02*
X119727064Y-66535000D01*
%TO.C,D11*%
X148515000Y-113015000D02*
X148515000Y-115300000D01*
X149985000Y-113015000D02*
X148515000Y-113015000D01*
X149985000Y-115300000D02*
X149985000Y-113015000D01*
%TO.C,R35*%
X143515000Y-67272936D02*
X143515000Y-67727064D01*
X144985000Y-67272936D02*
X144985000Y-67727064D01*
%TO.C,C5*%
X82750000Y-127010000D02*
X86970000Y-127010000D01*
X86970000Y-123990000D02*
X82750000Y-123990000D01*
X86970000Y-127010000D02*
X86970000Y-123990000D01*
%TO.C,U3*%
X131190000Y-79070000D02*
X135810000Y-79070000D01*
X131190000Y-81610000D02*
X131190000Y-80390000D01*
X135810000Y-80390000D02*
X135810000Y-81610000D01*
X135810000Y-82930000D02*
X131190000Y-82930000D01*
X136650000Y-81610000D02*
X136310000Y-81140000D01*
X136990000Y-81140000D01*
X136650000Y-81610000D01*
G36*
X136650000Y-81610000D02*
G01*
X136310000Y-81140000D01*
X136990000Y-81140000D01*
X136650000Y-81610000D01*
G37*
%TO.C,C34*%
X144761252Y-60015000D02*
X144238748Y-60015000D01*
X144761252Y-61485000D02*
X144238748Y-61485000D01*
%TO.C,R22*%
X146272936Y-110765000D02*
X146727064Y-110765000D01*
X146272936Y-112235000D02*
X146727064Y-112235000D01*
%TO.C,C23*%
X109738748Y-104265000D02*
X110261252Y-104265000D01*
X109738748Y-105735000D02*
X110261252Y-105735000D01*
%TO.C,FB4*%
X119149622Y-73590000D02*
X118350378Y-73590000D01*
X119149622Y-74710000D02*
X118350378Y-74710000D01*
%TO.C,C35*%
X144761252Y-62265000D02*
X144238748Y-62265000D01*
X144761252Y-63735000D02*
X144238748Y-63735000D01*
%TO.C,D3*%
X148015000Y-124015000D02*
X148015000Y-126300000D01*
X149485000Y-124015000D02*
X148015000Y-124015000D01*
X149485000Y-126300000D02*
X149485000Y-124015000D01*
%TO.C,R34*%
X145765000Y-67272936D02*
X145765000Y-67727064D01*
X147235000Y-67272936D02*
X147235000Y-67727064D01*
%TO.C,R25*%
X124015000Y-100772936D02*
X124015000Y-101227064D01*
X125485000Y-100772936D02*
X125485000Y-101227064D01*
%TO.C,C16*%
X125765000Y-94261252D02*
X125765000Y-93738748D01*
X127235000Y-94261252D02*
X127235000Y-93738748D01*
%TO.C,U2*%
X89650000Y-120840000D02*
X93410000Y-120840000D01*
X89650000Y-127660000D02*
X93410000Y-127660000D01*
X93410000Y-120840000D02*
X93410000Y-122100000D01*
X93410000Y-127660000D02*
X93410000Y-126400000D01*
X88370000Y-120940000D02*
X88130000Y-120610000D01*
X88610000Y-120610000D01*
X88370000Y-120940000D01*
G36*
X88370000Y-120940000D02*
G01*
X88130000Y-120610000D01*
X88610000Y-120610000D01*
X88370000Y-120940000D01*
G37*
%TO.C,R6*%
X123265000Y-81022936D02*
X123265000Y-81477064D01*
X124735000Y-81022936D02*
X124735000Y-81477064D01*
%TO.C,R7*%
X123265000Y-85272936D02*
X123265000Y-85727064D01*
X124735000Y-85272936D02*
X124735000Y-85727064D01*
%TO.C,C11*%
X125765000Y-81511252D02*
X125765000Y-80988748D01*
X127235000Y-81511252D02*
X127235000Y-80988748D01*
%TO.C,C19*%
X92015000Y-61238748D02*
X92015000Y-61761252D01*
X93485000Y-61238748D02*
X93485000Y-61761252D01*
%TO.C,C6*%
X85511252Y-127765000D02*
X84988748Y-127765000D01*
X85511252Y-129235000D02*
X84988748Y-129235000D01*
%TO.C,D4*%
X146477500Y-88265000D02*
X146477500Y-89735000D01*
X146477500Y-89735000D02*
X148762500Y-89735000D01*
X148762500Y-88265000D02*
X146477500Y-88265000D01*
%TO.C,R1*%
X147522936Y-127515000D02*
X147977064Y-127515000D01*
X147522936Y-128985000D02*
X147977064Y-128985000D01*
%TO.C,C17*%
X112961252Y-70265000D02*
X112438748Y-70265000D01*
X112961252Y-71735000D02*
X112438748Y-71735000D01*
%TO.C,R31*%
X119272936Y-67065000D02*
X119727064Y-67065000D01*
X119272936Y-68535000D02*
X119727064Y-68535000D01*
%TO.C,D8*%
X139850000Y-112010000D02*
X139850000Y-106500000D01*
X139850000Y-112010000D02*
X143150000Y-112010000D01*
X143150000Y-112010000D02*
X143150000Y-106500000D01*
%TO.C,C27*%
X89765000Y-81988748D02*
X89765000Y-82511252D01*
X91235000Y-81988748D02*
X91235000Y-82511252D01*
%TO.C,C20*%
X90265000Y-76988748D02*
X90265000Y-77511252D01*
X91735000Y-76988748D02*
X91735000Y-77511252D01*
%TO.C,U9*%
X117190000Y-96820000D02*
X121810000Y-96820000D01*
X117190000Y-99360000D02*
X117190000Y-98140000D01*
X121810000Y-98140000D02*
X121810000Y-99360000D01*
X121810000Y-100680000D02*
X117190000Y-100680000D01*
X116350000Y-98140000D02*
X116690000Y-98610000D01*
X116010000Y-98610000D01*
X116350000Y-98140000D01*
G36*
X116690000Y-98610000D02*
G01*
X116010000Y-98610000D01*
X116350000Y-98140000D01*
X116690000Y-98610000D01*
G37*
%TO.C,R2*%
X144727064Y-85265000D02*
X144272936Y-85265000D01*
X144727064Y-86735000D02*
X144272936Y-86735000D01*
%TO.C,U6*%
X131190000Y-91820000D02*
X135810000Y-91820000D01*
X131190000Y-94360000D02*
X131190000Y-93140000D01*
X135810000Y-93140000D02*
X135810000Y-94360000D01*
X135810000Y-95680000D02*
X131190000Y-95680000D01*
X136650000Y-94360000D02*
X136310000Y-93890000D01*
X136990000Y-93890000D01*
X136650000Y-94360000D01*
G36*
X136650000Y-94360000D02*
G01*
X136310000Y-93890000D01*
X136990000Y-93890000D01*
X136650000Y-94360000D01*
G37*
%TO.C,U5*%
X131190000Y-87590000D02*
X135810000Y-87590000D01*
X131190000Y-90130000D02*
X131190000Y-88910000D01*
X135810000Y-88910000D02*
X135810000Y-90130000D01*
X135810000Y-91450000D02*
X131190000Y-91450000D01*
X136650000Y-90130000D02*
X136310000Y-89660000D01*
X136990000Y-89660000D01*
X136650000Y-90130000D01*
G36*
X136650000Y-90130000D02*
G01*
X136310000Y-89660000D01*
X136990000Y-89660000D01*
X136650000Y-90130000D01*
G37*
%TO.C,D9*%
X148515000Y-109265000D02*
X148515000Y-111550000D01*
X149985000Y-109265000D02*
X148515000Y-109265000D01*
X149985000Y-111550000D02*
X149985000Y-109265000D01*
%TO.C,FB2*%
X113099622Y-74690000D02*
X112300378Y-74690000D01*
X113099622Y-75810000D02*
X112300378Y-75810000D01*
%TO.C,R10*%
X144727064Y-95015000D02*
X144272936Y-95015000D01*
X144727064Y-96485000D02*
X144272936Y-96485000D01*
%TO.C,D5*%
X147015000Y-92515000D02*
X147015000Y-93985000D01*
X147015000Y-93985000D02*
X149300000Y-93985000D01*
X149300000Y-92515000D02*
X147015000Y-92515000D01*
%TO.C,U8*%
X110352500Y-99840000D02*
X110402500Y-99840000D01*
X110352500Y-101660000D02*
X110352500Y-99840000D01*
X110402500Y-101660000D02*
X110352500Y-101660000D01*
X111522500Y-99840000D02*
X112302500Y-99840000D01*
X113422500Y-99840000D02*
X113472500Y-99840000D01*
X113472500Y-99840000D02*
X113472500Y-101660000D01*
X113472500Y-101660000D02*
X113422500Y-101660000D01*
X110402500Y-102200000D02*
X110072500Y-102440000D01*
X110072500Y-101960000D01*
X110402500Y-102200000D01*
G36*
X110402500Y-102200000D02*
G01*
X110072500Y-102440000D01*
X110072500Y-101960000D01*
X110402500Y-102200000D01*
G37*
%TO.C,C31*%
X129265000Y-66261252D02*
X129265000Y-65738748D01*
X130735000Y-66261252D02*
X130735000Y-65738748D01*
%TO.C,R41*%
X91272936Y-63515000D02*
X91727064Y-63515000D01*
X91272936Y-64985000D02*
X91727064Y-64985000D01*
%TO.C,R26*%
X146272936Y-114515000D02*
X146727064Y-114515000D01*
X146272936Y-115985000D02*
X146727064Y-115985000D01*
%TO.C,U11*%
X117190000Y-104320000D02*
X121810000Y-104320000D01*
X117190000Y-106860000D02*
X117190000Y-105640000D01*
X121810000Y-105640000D02*
X121810000Y-106860000D01*
X121810000Y-108180000D02*
X117190000Y-108180000D01*
X116350000Y-105640000D02*
X116690000Y-106110000D01*
X116010000Y-106110000D01*
X116350000Y-105640000D01*
G36*
X116690000Y-106110000D02*
G01*
X116010000Y-106110000D01*
X116350000Y-105640000D01*
X116690000Y-106110000D01*
G37*
%TO.C,R32*%
X148015000Y-67272936D02*
X148015000Y-67727064D01*
X149485000Y-67272936D02*
X149485000Y-67727064D01*
%TO.C,R11*%
X144814564Y-98765000D02*
X144360436Y-98765000D01*
X144814564Y-100235000D02*
X144360436Y-100235000D01*
%TO.C,C28*%
X118488748Y-71415000D02*
X119011252Y-71415000D01*
X118488748Y-72885000D02*
X119011252Y-72885000D01*
%TO.C,C25*%
X96065000Y-90488748D02*
X96065000Y-91011252D01*
X97535000Y-90488748D02*
X97535000Y-91011252D01*
%TO.C,C12*%
X125765000Y-85761252D02*
X125765000Y-85238748D01*
X127235000Y-85761252D02*
X127235000Y-85238748D01*
%TO.C,Y2*%
X92715000Y-82765000D02*
G75*
G02*
X95785000Y-82765000I1535000J-484711D01*
G01*
X95785000Y-83735000D02*
G75*
G02*
X92715000Y-83735000I-1535000J484711D01*
G01*
%TO.C,R29*%
X124015000Y-108272936D02*
X124015000Y-108727064D01*
X125485000Y-108272936D02*
X125485000Y-108727064D01*
%TO.C,U15*%
X143952500Y-43690000D02*
X145772500Y-43690000D01*
X143952500Y-43740000D02*
X143952500Y-43690000D01*
X143952500Y-45640000D02*
X143952500Y-44860000D01*
X143952500Y-46810000D02*
X143952500Y-46760000D01*
X145772500Y-43690000D02*
X145772500Y-43740000D01*
X145772500Y-46760000D02*
X145772500Y-46810000D01*
X145772500Y-46810000D02*
X143952500Y-46810000D01*
X146312500Y-46760000D02*
X146552500Y-47090000D01*
X146072500Y-47090000D01*
X146312500Y-46760000D01*
G36*
X146552500Y-47090000D02*
G01*
X146072500Y-47090000D01*
X146312500Y-46760000D01*
X146552500Y-47090000D01*
G37*
%TO.C,C32*%
X132988748Y-68765000D02*
X133511252Y-68765000D01*
X132988748Y-70235000D02*
X133511252Y-70235000D01*
%TO.C,C9*%
X141015000Y-84738748D02*
X141015000Y-85261252D01*
X142485000Y-84738748D02*
X142485000Y-85261252D01*
%TO.C,C29*%
X119011252Y-69265000D02*
X118488748Y-69265000D01*
X119011252Y-70735000D02*
X118488748Y-70735000D01*
%TO.C,U7*%
X100390000Y-59940000D02*
X108110000Y-59940000D01*
X100390000Y-60185000D02*
X100390000Y-59940000D01*
X100390000Y-78060000D02*
X100390000Y-77815000D01*
X108110000Y-59940000D02*
X108110000Y-60185000D01*
X108110000Y-77815000D02*
X108110000Y-78060000D01*
X108110000Y-78060000D02*
X100390000Y-78060000D01*
X99600000Y-60180000D02*
X99260000Y-59710000D01*
X99940000Y-59710000D01*
X99600000Y-60180000D01*
G36*
X99600000Y-60180000D02*
G01*
X99260000Y-59710000D01*
X99940000Y-59710000D01*
X99600000Y-60180000D01*
G37*
%TO.C,R16*%
X123265000Y-89522936D02*
X123265000Y-89977064D01*
X124735000Y-89522936D02*
X124735000Y-89977064D01*
%TO.C,R12*%
X138765000Y-93272936D02*
X138765000Y-93727064D01*
X140235000Y-93272936D02*
X140235000Y-93727064D01*
%TO.C,C14*%
X141015000Y-98238748D02*
X141015000Y-98761252D01*
X142485000Y-98238748D02*
X142485000Y-98761252D01*
%TO.C,C21*%
X90265000Y-67261252D02*
X90265000Y-66738748D01*
X91735000Y-67261252D02*
X91735000Y-66738748D01*
%TO.C,Q2*%
X129355000Y-103775000D02*
X129355000Y-104045000D01*
X129355000Y-110675000D02*
X129355000Y-110405000D01*
X135775000Y-103775000D02*
X129355000Y-103775000D01*
X135775000Y-110675000D02*
X129355000Y-110675000D01*
X127625000Y-104085000D02*
X127285000Y-103615000D01*
X127965000Y-103615000D01*
X127625000Y-104085000D01*
G36*
X127625000Y-104085000D02*
G01*
X127285000Y-103615000D01*
X127965000Y-103615000D01*
X127625000Y-104085000D01*
G37*
%TO.C,U14*%
X144190000Y-70940000D02*
X144285000Y-70940000D01*
X144190000Y-75060000D02*
X144190000Y-70940000D01*
X144285000Y-75060000D02*
X144190000Y-75060000D01*
X149215000Y-70940000D02*
X149310000Y-70940000D01*
X149310000Y-70940000D02*
X149310000Y-75060000D01*
X149310000Y-75060000D02*
X149215000Y-75060000D01*
X149220000Y-70400000D02*
X149550000Y-70160000D01*
X149550000Y-70640000D01*
X149220000Y-70400000D01*
G36*
X149550000Y-70640000D02*
G01*
X149220000Y-70400000D01*
X149550000Y-70160000D01*
X149550000Y-70640000D01*
G37*
%TO.C,U10*%
X110440000Y-107340000D02*
X110490000Y-107340000D01*
X110440000Y-109160000D02*
X110440000Y-107340000D01*
X110490000Y-109160000D02*
X110440000Y-109160000D01*
X111610000Y-107340000D02*
X112390000Y-107340000D01*
X113510000Y-107340000D02*
X113560000Y-107340000D01*
X113560000Y-107340000D02*
X113560000Y-109160000D01*
X113560000Y-109160000D02*
X113510000Y-109160000D01*
X110490000Y-109700000D02*
X110160000Y-109940000D01*
X110160000Y-109460000D01*
X110490000Y-109700000D01*
G36*
X110490000Y-109700000D02*
G01*
X110160000Y-109940000D01*
X110160000Y-109460000D01*
X110490000Y-109700000D01*
G37*
%TO.C,C30*%
X129265000Y-69761252D02*
X129265000Y-69238748D01*
X130735000Y-69761252D02*
X130735000Y-69238748D01*
%TO.C,R4*%
X138765000Y-84772936D02*
X138765000Y-85227064D01*
X140235000Y-84772936D02*
X140235000Y-85227064D01*
%TO.C,R19*%
X91772936Y-57765000D02*
X92227064Y-57765000D01*
X91772936Y-59235000D02*
X92227064Y-59235000D01*
%TO.C,R5*%
X138765000Y-89272936D02*
X138765000Y-89727064D01*
X140235000Y-89272936D02*
X140235000Y-89727064D01*
%TO.C,U4*%
X131190000Y-83340000D02*
X135810000Y-83340000D01*
X131190000Y-85880000D02*
X131190000Y-84660000D01*
X135810000Y-84660000D02*
X135810000Y-85880000D01*
X135810000Y-87200000D02*
X131190000Y-87200000D01*
X136650000Y-85880000D02*
X136310000Y-85410000D01*
X136990000Y-85410000D01*
X136650000Y-85880000D01*
G36*
X136650000Y-85880000D02*
G01*
X136310000Y-85410000D01*
X136990000Y-85410000D01*
X136650000Y-85880000D01*
G37*
%TD*%
M02*
