%TF.GenerationSoftware,KiCad,Pcbnew,10.0.3*%
%TF.CreationDate,2026-09-07T14:17:23+03:00*%
%TF.ProjectId,staj_proje,7374616a-5f70-4726-9f6a-652e6b696361,rev?*%
%TF.SameCoordinates,Original*%
%TF.FileFunction,Soldermask,Bot*%
%TF.FilePolarity,Negative*%
%FSLAX46Y46*%
G04 Gerber Fmt 4.6, Leading zero omitted, Abs format (unit mm)*
G04 Created by KiCad (PCBNEW 10.0.3) date 2026-09-07 14:17:23*
%MOMM*%
%LPD*%
G01*
G04 APERTURE LIST*
G04 Aperture macros list*
%AMRoundRect*
0 Rectangle with rounded corners*
0 $1 Rounding radius*
0 $2 $3 $4 $5 $6 $7 $8 $9 X,Y pos of 4 corners*
0 Add a 4 corners polygon primitive as box body*
4,1,4,$2,$3,$4,$5,$6,$7,$8,$9,$2,$3,0*
0 Add four circle primitives for the rounded corners*
1,1,$1+$1,$2,$3*
1,1,$1+$1,$4,$5*
1,1,$1+$1,$6,$7*
1,1,$1+$1,$8,$9*
0 Add four rect primitives between the rounded corners*
20,1,$1+$1,$2,$3,$4,$5,0*
20,1,$1+$1,$4,$5,$6,$7,0*
20,1,$1+$1,$6,$7,$8,$9,0*
20,1,$1+$1,$8,$9,$2,$3,0*%
G04 Aperture macros list end*
%ADD10R,1.700000X1.700000*%
%ADD11C,1.700000*%
%ADD12RoundRect,0.102000X0.762000X-0.762000X0.762000X0.762000X-0.762000X0.762000X-0.762000X-0.762000X0*%
%ADD13C,1.728000*%
%ADD14C,6.404000*%
%ADD15C,1.000000*%
%ADD16RoundRect,0.250000X0.262500X0.450000X-0.262500X0.450000X-0.262500X-0.450000X0.262500X-0.450000X0*%
%ADD17RoundRect,0.250000X-1.550000X0.650000X-1.550000X-0.650000X1.550000X-0.650000X1.550000X0.650000X0*%
%ADD18O,3.600000X1.800000*%
%ADD19RoundRect,0.250000X0.250000X0.475000X-0.250000X0.475000X-0.250000X-0.475000X0.250000X-0.475000X0*%
%ADD20RoundRect,0.218750X0.381250X-0.218750X0.381250X0.218750X-0.381250X0.218750X-0.381250X-0.218750X0*%
%ADD21RoundRect,0.250000X1.500000X1.000000X-1.500000X1.000000X-1.500000X-1.000000X1.500000X-1.000000X0*%
%ADD22RoundRect,0.250000X-1.400000X-1.000000X1.400000X-1.000000X1.400000X1.000000X-1.400000X1.000000X0*%
%ADD23R,2.000000X2.000000*%
%ADD24C,2.000000*%
%ADD25RoundRect,0.250000X0.300000X-2.050000X0.300000X2.050000X-0.300000X2.050000X-0.300000X-2.050000X0*%
%ADD26RoundRect,0.250002X5.149998X-4.449998X5.149998X4.449998X-5.149998X4.449998X-5.149998X-4.449998X0*%
%ADD27RoundRect,0.250000X-0.475000X0.250000X-0.475000X-0.250000X0.475000X-0.250000X0.475000X0.250000X0*%
%ADD28RoundRect,0.154000X-1.416000X-0.616000X1.416000X-0.616000X1.416000X0.616000X-1.416000X0.616000X0*%
%ADD29RoundRect,0.102000X-2.500000X3.500000X-2.500000X-3.500000X2.500000X-3.500000X2.500000X3.500000X0*%
G04 APERTURE END LIST*
D10*
%TO.C,J7*%
X142725000Y-80750000D03*
D11*
X145265000Y-80750000D03*
%TD*%
D12*
%TO.C,J2*%
X87496345Y-110630000D03*
D13*
X84956345Y-110630000D03*
X87496345Y-108090000D03*
X84956345Y-108090000D03*
X87496345Y-105550000D03*
X84956345Y-105550000D03*
X87496345Y-103010000D03*
X84956345Y-103010000D03*
X87496345Y-100470000D03*
X84956345Y-100470000D03*
X87496345Y-97930000D03*
X84956345Y-97930000D03*
X87496345Y-95390000D03*
X84956345Y-95390000D03*
X87496345Y-92850000D03*
X84956345Y-92850000D03*
X87496345Y-90310000D03*
X84956345Y-90310000D03*
X87496345Y-87770000D03*
X84956345Y-87770000D03*
X87496345Y-85230000D03*
X84956345Y-85230000D03*
X87496345Y-82690000D03*
X84956345Y-82690000D03*
X87496345Y-80150000D03*
X84956345Y-80150000D03*
X87496345Y-77610000D03*
X84956345Y-77610000D03*
X87496345Y-75070000D03*
X84956345Y-75070000D03*
X87496345Y-72530000D03*
X84956345Y-72530000D03*
X87496345Y-69990000D03*
X84956345Y-69990000D03*
X87496345Y-67450000D03*
X84956345Y-67450000D03*
X87496345Y-64910000D03*
X84956345Y-64910000D03*
X87496345Y-62370000D03*
X84956345Y-62370000D03*
D14*
X86226345Y-115500000D03*
X86226345Y-57500000D03*
X135226345Y-57500000D03*
X135226345Y-115500000D03*
%TD*%
D15*
%TO.C,Y2*%
X93300000Y-83250000D03*
X95200000Y-83250000D03*
%TD*%
D10*
%TO.C,J4*%
X103910000Y-55500000D03*
D11*
X101370000Y-55500000D03*
X98830000Y-55500000D03*
X96290000Y-55500000D03*
X93750000Y-55500000D03*
%TD*%
D16*
%TO.C,R8*%
X149037500Y-89000000D03*
X147212500Y-89000000D03*
%TD*%
D17*
%TO.C,J6*%
X152567500Y-62450000D03*
D18*
X152567500Y-66260000D03*
X152567500Y-70070000D03*
X152567500Y-73880000D03*
X152567500Y-77690000D03*
X152567500Y-81500000D03*
%TD*%
D19*
%TO.C,C2*%
X140950000Y-119750000D03*
X139050000Y-119750000D03*
%TD*%
D17*
%TO.C,J8*%
X152567500Y-44340000D03*
D18*
X152567500Y-48150000D03*
X152567500Y-51960000D03*
X152567500Y-55770000D03*
%TD*%
D17*
%TO.C,J1*%
X152567500Y-124150000D03*
D18*
X152567500Y-127960000D03*
%TD*%
D20*
%TO.C,FB1*%
X82250000Y-112562500D03*
X82250000Y-110437500D03*
%TD*%
D16*
%TO.C,R27*%
X146162500Y-117500000D03*
X144337500Y-117500000D03*
%TD*%
D21*
%TO.C,C3*%
X93000000Y-124750000D03*
X86500000Y-124750000D03*
%TD*%
D22*
%TO.C,D1*%
X146250000Y-129150000D03*
X146250000Y-122350000D03*
%TD*%
D16*
%TO.C,R15*%
X149412500Y-102000000D03*
X147587500Y-102000000D03*
%TD*%
D21*
%TO.C,C1*%
X140250000Y-125500000D03*
X133750000Y-125500000D03*
%TD*%
D23*
%TO.C,BT1*%
X104500000Y-87500000D03*
D24*
X104500000Y-108300000D03*
%TD*%
D17*
%TO.C,J3*%
X152567500Y-88185000D03*
D18*
X152567500Y-91995000D03*
X152567500Y-95805000D03*
X152567500Y-99615000D03*
X152567500Y-103425000D03*
%TD*%
D25*
%TO.C,U1*%
X127900000Y-127525000D03*
X126200000Y-127525000D03*
X124500000Y-127525000D03*
D26*
X124500000Y-118375000D03*
D25*
X122800000Y-127525000D03*
X121100000Y-127525000D03*
%TD*%
D16*
%TO.C,R14*%
X149412500Y-98000000D03*
X147587500Y-98000000D03*
%TD*%
D17*
%TO.C,J5*%
X152567500Y-109995000D03*
D18*
X152567500Y-113805000D03*
X152567500Y-117615000D03*
%TD*%
D27*
%TO.C,C4*%
X97500000Y-127550000D03*
X97500000Y-129450000D03*
%TD*%
D28*
%TO.C,D2*%
X115500000Y-124075000D03*
X115500000Y-117425000D03*
%TD*%
D16*
%TO.C,R23*%
X146162500Y-115500000D03*
X144337500Y-115500000D03*
%TD*%
%TO.C,R9*%
X149412500Y-93250000D03*
X147587500Y-93250000D03*
%TD*%
D29*
%TO.C,L1*%
X110500000Y-123750000D03*
X100500000Y-123750000D03*
%TD*%
M02*
