M48
; DRILL file KiCad 10.0.3 date 2026-09-07T14:32:05
; FORMAT={-:-/ absolute / metric / decimal}
; #@! TF.CreationDate,2026-09-07T14:32:05+03:00
; #@! TF.GenerationSoftware,Kicad,Pcbnew,10.0.3
; #@! TF.FileFunction,Plated,1,2,PTH
FMAT,2
METRIC
; #@! TA.AperFunction,Plated,PTH,ViaDrill
T1C0.300
; #@! TA.AperFunction,Plated,PTH,ComponentDrill
T2C0.500
; #@! TA.AperFunction,Plated,PTH,ComponentDrill
T3C1.000
; #@! TA.AperFunction,Plated,PTH,ComponentDrill
T4C1.016
; #@! TA.AperFunction,Plated,PTH,ComponentDrill
T5C1.200
; #@! TA.AperFunction,Plated,PTH,ComponentDrill
T6C1.500
; #@! TA.AperFunction,Plated,PTH,ComponentDrill
T7C2.750
%
G90
G05
T1
X82.25Y-123.0
X82.6Y-67.25
X82.8Y-63.75
X83.25Y-49.6
X83.25Y-50.8
X83.25Y-52.0
X83.779Y-50.2
X83.779Y-51.4
X90.721Y-71.45
X90.721Y-72.65
X90.75Y-61.5
X90.971Y-108.85
X90.971Y-110.05
X91.0Y-60.25
X91.25Y-70.85
X91.25Y-72.05
X91.25Y-73.25
X91.25Y-130.0
X91.5Y-108.25
X91.5Y-109.45
X91.5Y-110.65
X91.85Y-130.529
X92.0Y-84.5
X92.25Y-57.0
X92.45Y-130.0
X93.05Y-130.529
X93.25Y-89.0
X93.65Y-130.0
X96.5Y-84.75
X96.75Y-86.75
X97.25Y-65.85
X97.25Y-67.05
X97.25Y-68.25
X97.5Y-88.0
X97.779Y-66.45
X97.779Y-67.65
X98.1Y-88.529
X98.25Y-58.75
X98.7Y-88.0
X99.3Y-88.529
X99.9Y-88.0
X101.5Y-60.75
X102.1Y-61.5
X102.25Y-81.25
X102.75Y-60.0
X104.15Y-101.5
X104.95Y-101.5
X105.65Y-79.375
X105.75Y-101.5
X106.55Y-101.5
X107.35Y-101.5
X110.15Y-58.279
X110.75Y-57.75
X110.9Y-64.7
X111.35Y-58.279
X111.5Y-63.3
X111.5Y-65.825
X111.5Y-67.095
X111.95Y-57.75
X112.0Y-103.5
X112.0Y-111.0
X112.55Y-58.279
X113.0Y-68.365
X113.6Y-69.635
X113.971Y-66.6
X113.971Y-67.8
X114.5Y-66.0
X114.5Y-67.2
X114.5Y-68.4
X115.75Y-59.5
X115.75Y-126.5
X117.5Y-65.8
X117.5Y-67.8
X117.5Y-111.75
X118.1Y-112.279
X118.7Y-111.75
X119.3Y-112.279
X119.9Y-111.75
X120.5Y-55.35
X120.5Y-56.55
X120.5Y-57.75
X120.5Y-112.279
X121.029Y-55.95
X121.029Y-57.15
X121.1Y-111.75
X121.5Y-78.5
X121.7Y-112.279
X122.0Y-82.0
X122.25Y-86.5
X122.3Y-111.75
X122.5Y-90.5
X122.75Y-95.0
X122.9Y-112.279
X123.5Y-111.75
X123.75Y-97.5
X123.75Y-105.0
X124.1Y-112.279
X124.25Y-62.25
X124.7Y-111.75
X125.3Y-112.279
X125.9Y-111.75
X126.25Y-130.75
X126.5Y-112.279
X127.1Y-111.75
X127.7Y-112.279
X128.3Y-111.75
X128.75Y-82.25
X128.75Y-86.5
X128.75Y-90.79
X128.75Y-95.0
X128.9Y-112.279
X129.5Y-111.75
X130.1Y-112.279
X130.7Y-111.75
X131.3Y-112.279
X131.9Y-111.75
X139.75Y-110.5
X139.75Y-117.5
X141.25Y-37.25
X141.25Y-38.05
X141.25Y-38.85
X141.25Y-39.65
X141.25Y-40.45
X141.5Y-44.5
X142.05Y-37.25
X142.05Y-38.05
X142.05Y-38.85
X142.05Y-39.65
X142.05Y-40.45
X142.75Y-66.25
X142.85Y-37.25
X142.85Y-38.05
X142.85Y-38.85
X142.85Y-39.65
X142.85Y-40.45
X143.65Y-37.25
X143.65Y-38.05
X143.65Y-38.85
X143.65Y-39.65
X143.65Y-40.45
X144.0Y-49.5
X144.0Y-57.5
X144.45Y-37.25
X144.45Y-38.05
X144.45Y-38.85
X144.45Y-39.65
X144.45Y-40.45
X144.5Y-83.5
X145.0Y-87.75
X145.875Y-92.875
X146.25Y-98.0
X146.5Y-63.5
X146.5Y-65.5
X146.5Y-102.0
X146.5Y-112.75
X147.221Y-104.4
X147.221Y-105.6
X147.221Y-106.8
X147.5Y-117.5
X147.75Y-105.0
X147.75Y-106.2
X148.75Y-65.0
X149.963Y-89.0
X150.5Y-93.25
X150.5Y-98.0
X150.5Y-102.0
T2
X93.3Y-83.25
X95.2Y-83.25
T3
X93.75Y-55.5
X96.29Y-55.5
X98.83Y-55.5
X101.37Y-55.5
X103.91Y-55.5
X142.725Y-80.75
X145.265Y-80.75
T4
X84.956Y-62.37
X84.956Y-64.91
X84.956Y-67.45
X84.956Y-69.99
X84.956Y-72.53
X84.956Y-75.07
X84.956Y-77.61
X84.956Y-80.15
X84.956Y-82.69
X84.956Y-85.23
X84.956Y-87.77
X84.956Y-90.31
X84.956Y-92.85
X84.956Y-95.39
X84.956Y-97.93
X84.956Y-100.47
X84.956Y-103.01
X84.956Y-105.55
X84.956Y-108.09
X84.956Y-110.63
X87.496Y-62.37
X87.496Y-64.91
X87.496Y-67.45
X87.496Y-69.99
X87.496Y-72.53
X87.496Y-75.07
X87.496Y-77.61
X87.496Y-80.15
X87.496Y-82.69
X87.496Y-85.23
X87.496Y-87.77
X87.496Y-90.31
X87.496Y-92.85
X87.496Y-95.39
X87.496Y-97.93
X87.496Y-100.47
X87.496Y-103.01
X87.496Y-105.55
X87.496Y-108.09
X87.496Y-110.63
T5
X152.567Y-44.34
X152.567Y-48.15
X152.567Y-51.96
X152.567Y-55.77
X152.567Y-62.45
X152.567Y-66.26
X152.567Y-70.07
X152.567Y-73.88
X152.567Y-77.69
X152.567Y-81.5
X152.567Y-88.185
X152.567Y-91.995
X152.567Y-95.805
X152.567Y-99.615
X152.567Y-103.425
X152.567Y-109.995
X152.567Y-113.805
X152.567Y-117.615
X152.567Y-124.15
X152.567Y-127.96
T6
X104.5Y-87.5
X104.5Y-108.3
T7
X86.226Y-57.5
X86.226Y-115.5
X135.226Y-57.5
X135.226Y-115.5
M30
